<?xml version="1.0" standalone="yes"?>
<!DOCTYPE svg PUBLIC "-//W3C//DTD SVG 1.1//EN" "http://www.w3.org/Graphics/SVG/1.1/DTD/svg11.dtd">
<svg version="1.0" xmlns="http://www.w3.org/2000/svg" id="Familyhistory" width="400" height="500" viewBox="0 0 760 800"
    preserveAspectRatio="xMidYMid meet">

    <style type="text/css">
  g[id]:hover {
  fill: red;
  cursor: pointer;
  }
  
  .Familyhistory {
  fill: red;
  }
   </style>


    <g transform="translate(0.000000,800.000000) scale(0.100000,-0.100000)" fill="#000000" stroke="none">

        <g id="Familyhistory_Familyhistory_PaternalGrandmother" class="">
            <title>Paternal Grandmother</title>
            <path d="M4680 7712 c-27 -22 -30 -76 -6 -100 23 -23 76 -19 98 7 24 30 23 62
-2 89 -25 27 -60 28 -90 4z"/>
            <path
                d="M4612 7552 c-23 -23 -106 -257 -98 -277 6 -18 32 -20 42 -4 4 6 21
  52 39 102 18 50 38 93 44 95 18 6 14 -13 -44 -174 -30 -85 -55 -157 -55 -159
  0 -3 23 -5 50 -5 l50 0 0 -124 c0 -129 8 -154 44 -140 14 5 16 25 16 135 0
  122 1 129 20 129 19 0 20 -7 20 -129 0 -133 6 -152 41 -130 11 6 14 37 14 134
  l0 125 53 0 c62 0 63 -20 -9 178 -50 136 -56 162 -40 162 10 0 38 -68 62 -148
  16 -54 34 -71 55 -50 14 14 12 28 -27 139 -24 68 -51 131 -61 141 -26 26 -190
  26 -216 0z"
            />
        </g>


        <g id="Familyhistory_Familyhistory_PaternalGrandfather" class="">
            <title>Paternal Grandfather</title>
            <path d="M5185 7705 c-29 -29 -32 -55 -7 -84 37 -46 122 -18 122 41 0 25 -44
   68 -70 68 -11 0 -32 -11 -45 -25z"/>
            <path
                d="M5089 7541 c-29 -29 -29 -30 -29 -154 0 -130 9 -157 45 -143 12 4 15
27 15 122 0 88 3 115 13 112 9 -4 13 -76 15 -307 l2 -302 28 3 27 3 5 179 c4
131 8 180 18 184 9 3 12 -36 12 -170 0 -95 4 -179 9 -186 4 -8 19 -12 32 -10
l24 3 3 303 c2 256 4 302 17 302 12 0 15 -23 17 -117 3 -110 4 -118 23 -118
19 0 20 8 23 125 1 69 0 135 -3 147 -9 39 -54 53 -165 53 -99 0 -102 -1 -131
-29z"
            />
        </g>

        <g id="Familyhistory_Familyhistory_MaternalGrandmother" class="">
            <title>Maternal Grandmother</title>
            <path d="M2580 7702 c-27 -22 -30 -76 -6 -100 23 -23 76 -19 98 7 24 30 23 62
    -2 89 -25 27 -60 28 -90 4z"/>
            <path
                d="M2512 7542 c-23 -23 -106 -257 -98 -277 6 -18 32 -20 42 -4 4 6 21
52 39 102 18 50 38 93 44 95 18 6 14 -13 -44 -174 -30 -85 -55 -157 -55 -159
0 -3 23 -5 50 -5 l50 0 0 -124 c0 -129 8 -154 44 -140 14 5 16 25 16 135 0
122 1 129 20 129 19 0 20 -7 20 -129 0 -133 6 -152 41 -130 11 6 14 37 14 134
l0 125 53 0 c62 0 63 -20 -9 178 -50 136 -56 162 -40 162 10 0 38 -68 62 -148
16 -54 34 -71 55 -50 14 14 12 28 -27 139 -24 68 -51 131 -61 141 -26 26 -190
26 -216 0z"
            />
        </g>

        <g id="Familyhistory_Familyhistory_MaternalGrandfather" class="">
            <title>Maternal Grandfather</title>
            <path d="M3085 7695 c-29 -29 -32 -55 -7 -84 37 -46 122 -18 122 41 0 25 -44
    68 -70 68 -11 0 -32 -11 -45 -25z"/>
            <path
                d="M2989 7531 c-29 -29 -29 -30 -29 -154 0 -130 9 -157 45 -143 12 4 15
27 15 122 0 88 3 115 13 112 9 -4 13 -76 15 -307 l2 -302 28 3 27 3 5 179 c4
131 8 180 18 184 9 3 12 -36 12 -170 0 -95 4 -179 9 -186 4 -8 19 -12 32 -10
l24 3 3 303 c2 256 4 302 17 302 12 0 15 -23 17 -117 3 -110 4 -118 23 -118
19 0 20 8 23 125 1 69 0 135 -3 147 -9 39 -54 53 -165 53 -99 0 -102 -1 -131
-29z"
            />
        </g>


        <path
            d="M4960 6705 l0 -135 -440 0 -440 0 0 -175 0 -175 25 0 25 0 0 150 0
150 770 0 770 0 0 -150 0 -150 25 0 25 0 0 150 0 150 235 0 235 0 0 -150 0
-150 25 0 25 0 0 175 0 175 -615 0 -615 0 0 135 0 135 -25 0 -25 0 0 -135z"/>
        <path
            d="M2840 6690 l0 -120 -685 0 -685 0 0 -175 0 -175 25 0 25 0 0 150 0
150 235 0 235 0 0 -150 0 -150 25 0 25 0 0 150 0 150 765 0 765 0 0 -150 0
-150 25 0 25 0 0 175 0 175 -365 0 -365 0 0 120 0 120 -25 0 -25 0 0 -120z"/>


        <g id="Familyhistory_Familyhistory_PaternalAunt" class="">
            <title>Paternal Aunt</title>
            <path d="M5660 6152 c-27 -22 -30 -76 -6 -100 23 -23 76 -19 98 7 24 30 23 62
                -2 89 -25 27 -60 28 -90 4z"/>
            <path
                d="M5592 5992 c-23 -23 -106 -257 -98 -277 6 -18 32 -20 42 -4 4 6 21
52 39 102 18 50 38 93 44 95 18 6 14 -13 -44 -174 -30 -85 -55 -157 -55 -159
0 -3 23 -5 50 -5 l50 0 0 -124 c0 -129 8 -154 44 -140 14 5 16 25 16 135 0
122 1 129 20 129 19 0 20 -7 20 -129 0 -133 6 -152 41 -130 11 6 14 37 14 134
l0 125 53 0 c62 0 63 -20 -9 178 -50 136 -56 162 -40 162 10 0 38 -68 62 -148
16 -54 34 -71 55 -50 14 14 12 28 -27 139 -24 68 -51 131 -61 141 -26 26 -190
26 -216 0z"
            />
        </g>

        <g id="Familyhistory_Familyhistory_PaternalUncle" class="">
            <title>Paternal Uncle</title>
            <path d="M6165 6145 c-29 -29 -32 -55 -7 -84 37 -46 122 -18 122 41 0 25 -44
                68 -70 68 -11 0 -32 -11 -45 -25z"/>
            <path
                d="M6069 5981 c-29 -29 -29 -30 -29 -154 0 -130 9 -157 45 -143 12 4 15
27 15 122 0 88 3 115 13 112 9 -4 13 -76 15 -307 l2 -302 28 3 27 3 5 179 c4
131 8 180 18 184 9 3 12 -36 12 -170 0 -95 4 -179 9 -186 4 -8 19 -12 32 -10
l24 3 3 303 c2 256 4 302 17 302 12 0 15 -23 17 -117 3 -110 4 -118 23 -118
19 0 20 8 23 125 1 69 0 135 -3 147 -9 39 -54 53 -165 53 -99 0 -102 -1 -131
-29z"
            />
        </g>

        <g id="Familyhistory_Familyhistory_Mother" class="">
            <title>Mother</title>
            <path d="M3560 6142 c-27 -22 -30 -76 -6 -100 23 -23 76 -19 98 7 24 30 23 62
                -2 89 -25 27 -60 28 -90 4z"/>
            <path
                d="M3492 5982 c-23 -23 -106 -257 -98 -277 6 -18 32 -20 42 -4 4 6 21
52 39 102 18 50 38 93 44 95 18 6 14 -13 -44 -174 -30 -85 -55 -157 -55 -159
0 -3 23 -5 50 -5 l50 0 0 -124 c0 -129 8 -154 44 -140 14 5 16 25 16 135 0
122 1 129 20 129 19 0 20 -7 20 -129 0 -133 6 -152 41 -130 11 6 14 37 14 134
l0 125 53 0 c62 0 63 -20 -9 178 -50 136 -56 162 -40 162 10 0 38 -68 62 -148
16 -54 34 -71 55 -50 14 14 12 28 -27 139 -24 68 -51 131 -61 141 -26 26 -190
26 -216 0z"
            />
        </g>

        <g id="Familyhistory_Familyhistory_Father" class="">
            <title>Father</title>
            <path d="M4065 6135 c-29 -29 -32 -55 -7 -84 37 -46 122 -18 122 41 0 25 -44
                68 -70 68 -11 0 -32 -11 -45 -25z"/>
            <path
                d="M3969 5971 c-29 -29 -29 -30 -29 -154 0 -130 9 -157 45 -143 12 4 15
27 15 122 0 88 3 115 13 112 9 -4 13 -76 15 -307 l2 -302 28 3 27 3 5 179 c4
131 8 180 18 184 9 3 12 -36 12 -170 0 -95 4 -179 9 -186 4 -8 19 -12 32 -10
l24 3 3 303 c2 256 4 302 17 302 12 0 15 -23 17 -117 3 -110 4 -118 23 -118
19 0 20 8 23 125 1 69 0 135 -3 147 -9 39 -54 53 -165 53 -99 0 -102 -1 -131
-29z"
            />
        </g>

        <g id="Familyhistory_Familyhistory_MaternalAunt" class="">
            <title>Maternal Aunt</title>
            <path d="M1460 6132 c-27 -22 -30 -76 -6 -100 23 -23 76 -19 98 7 24 30 23 62
                -2 89 -25 27 -60 28 -90 4z"/>
            <path
                d="M1392 5972 c-23 -23 -106 -257 -98 -277 6 -18 32 -20 42 -4 4 6 21
52 39 102 18 50 38 93 44 95 18 6 14 -13 -44 -174 -30 -85 -55 -157 -55 -159
0 -3 23 -5 50 -5 l50 0 0 -124 c0 -129 8 -154 44 -140 14 5 16 25 16 135 0
122 1 129 20 129 19 0 20 -7 20 -129 0 -133 6 -152 41 -130 11 6 14 37 14 134
l0 125 53 0 c62 0 63 -20 -9 178 -50 136 -56 162 -40 162 10 0 38 -68 62 -148
16 -54 34 -71 55 -50 14 14 12 28 -27 139 -24 68 -51 131 -61 141 -26 26 -190
26 -216 0z"
            />
        </g>

        <g id="Familyhistory_Familyhistory_MaternalUncle" class="">
            <title>Maternal Uncle</title>
            <path d="M1965 6125 c-29 -29 -32 -55 -7 -84 37 -46 122 -18 122 41 0 25 -44
                68 -70 68 -11 0 -32 -11 -45 -25z"/>
            <path
                d="M1869 5961 c-29 -29 -29 -30 -29 -154 0 -130 9 -157 45 -143 12 4 15
27 15 122 0 88 3 115 13 112 9 -4 13 -76 15 -307 l2 -302 28 3 27 3 5 179 c4
131 8 180 18 184 9 3 12 -36 12 -170 0 -95 4 -179 9 -186 4 -8 19 -12 32 -10
l24 3 3 303 c2 256 4 302 17 302 12 0 15 -23 17 -117 3 -110 4 -118 23 -118
19 0 20 8 23 125 1 69 0 135 -3 147 -9 39 -54 53 -165 53 -99 0 -102 -1 -131
-29z"
            />
        </g>

        <path
            d="M2680 5010 l0 -270 -450 0 -450 0 0 -175 0 -175 25 0 25 0 0 150 0
150 235 0 235 0 0 -150 0 -150 25 0 25 0 0 150 0 150 190 0 190 0 0 270 0 270
300 0 300 0 0 25 0 25 -325 0 -325 0 0 -270z"/>
        <path
            d="M4400 5255 l0 -25 300 0 300 0 0 -270 0 -270 145 0 145 0 0 -150 0
-150 25 0 25 0 0 150 0 150 235 0 235 0 0 -150 0 -150 25 0 25 0 0 175 0 175
-405 0 -405 0 0 270 0 270 -325 0 -325 0 0 -25z"/>
        <path d="M1480 5195 c0 -20 5 -25 25 -25 20 0 25 5 25 25 0 20 -5 25 -25 25
-20 0 -25 -5 -25 -25z"/>
        <path d="M1990 5195 c0 -20 5 -25 25 -25 20 0 25 5 25 25 0 20 -5 25 -25 25
-20 0 -25 -5 -25 -25z"/>
        <path d="M5660 5195 c0 -20 5 -25 25 -25 20 0 25 5 25 25 0 20 -5 25 -25 25
-20 0 -25 -5 -25 -25z"/>
        <path d="M6170 5195 c0 -20 5 -25 25 -25 20 0 25 5 25 25 0 20 -5 25 -25 25
-20 0 -25 -5 -25 -25z"/>
        <path
            d="M3830 4960 l0 -220 -385 0 -385 0 0 -175 0 -175 25 0 25 0 0 150 0
150 360 0 360 0 0 -290 0 -290 25 0 25 0 0 290 0 290 370 0 370 0 0 -150 0
-150 25 0 25 0 0 175 0 175 -395 0 -395 0 0 220 0 220 -25 0 -25 0 0 -220z"/>
        <path d="M1480 5125 c0 -20 5 -25 25 -25 20 0 25 5 25 25 0 20 -5 25 -25 25
-20 0 -25 -5 -25 -25z"/>
        <path d="M1990 5125 c0 -20 5 -25 25 -25 20 0 25 5 25 25 0 20 -5 25 -25 25
-20 0 -25 -5 -25 -25z"/>
        <path d="M5660 5125 c0 -20 5 -25 25 -25 20 0 25 5 25 25 0 20 -5 25 -25 25
-20 0 -25 -5 -25 -25z"/>
        <path d="M6170 5125 c0 -20 5 -25 25 -25 20 0 25 5 25 25 0 20 -5 25 -25 25
-20 0 -25 -5 -25 -25z"/>
        <path
            d="M1270 4910 l0 -170 -475 0 -475 0 0 -175 0 -175 25 0 25 0 0 150 0
150 235 0 235 0 0 -150 0 -150 25 0 25 0 0 150 0 150 215 0 215 0 0 195 0 195
-25 0 -25 0 0 -170z"/>



        <path d="M1340 5055 c0 -20 5 -25 25 -25 20 0 25 5 25 25 0 20 -5 25 -25 25
-20 0 -25 -5 -25 -25z"/>
        <path d="M1410 5055 c0 -20 5 -25 25 -25 20 0 25 5 25 25 0 20 -5 25 -25 25
-20 0 -25 -5 -25 -25z"/>
        <path d="M1480 5055 c0 -20 5 -25 25 -25 20 0 25 5 25 25 0 20 -5 25 -25 25
-20 0 -25 -5 -25 -25z"/>
        <path d="M1560 5055 c0 -20 5 -25 25 -25 20 0 25 5 25 25 0 20 -5 25 -25 25
-20 0 -25 -5 -25 -25z"/>
        <path d="M1630 5055 c0 -20 5 -25 25 -25 20 0 25 5 25 25 0 20 -5 25 -25 25
-20 0 -25 -5 -25 -25z"/>
        <path d="M1700 5055 c0 -20 5 -25 25 -25 20 0 25 5 25 25 0 20 -5 25 -25 25
-20 0 -25 -5 -25 -25z"/>
        <path d="M1770 5055 c0 -20 5 -25 25 -25 20 0 25 5 25 25 0 20 -5 25 -25 25
-20 0 -25 -5 -25 -25z"/>
        <path d="M1840 5055 c0 -20 5 -25 25 -25 20 0 25 5 25 25 0 20 -5 25 -25 25
-20 0 -25 -5 -25 -25z"/>
        <path d="M1910 5055 c0 -20 5 -25 25 -25 20 0 25 5 25 25 0 20 -5 25 -25 25
-20 0 -25 -5 -25 -25z"/>
        <path d="M1990 5055 c0 -20 5 -25 25 -25 20 0 25 5 25 25 0 20 -5 25 -25 25
-20 0 -25 -5 -25 -25z"/>
        <path d="M5660 5055 c0 -20 5 -25 25 -25 20 0 25 5 25 25 0 20 -5 25 -25 25
-20 0 -25 -5 -25 -25z"/>
        <path d="M5740 5055 c0 -20 5 -25 25 -25 20 0 25 5 25 25 0 20 -5 25 -25 25
-20 0 -25 -5 -25 -25z"/>
        <path d="M5810 5055 c0 -20 5 -25 25 -25 20 0 25 5 25 25 0 20 -5 25 -25 25
-20 0 -25 -5 -25 -25z"/>
        <path d="M5880 5055 c0 -20 5 -25 25 -25 20 0 25 5 25 25 0 20 -5 25 -25 25
-20 0 -25 -5 -25 -25z"/>
        <path d="M5950 5055 c0 -20 5 -25 25 -25 20 0 25 5 25 25 0 20 -5 25 -25 25
-20 0 -25 -5 -25 -25z"/>
        <path d="M6020 5055 c0 -20 5 -25 25 -25 20 0 25 5 25 25 0 20 -5 25 -25 25
-20 0 -25 -5 -25 -25z"/>
        <path d="M6090 5055 c0 -20 5 -25 25 -25 20 0 25 5 25 25 0 20 -5 25 -25 25
-20 0 -25 -5 -25 -25z"/>
        <path d="M6170 5055 c0 -20 5 -25 25 -25 20 0 25 5 25 25 0 20 -5 25 -25 25
-20 0 -25 -5 -25 -25z"/>
        <path d="M6240 5055 c0 -20 5 -25 25 -25 20 0 25 5 25 25 0 20 -5 25 -25 25
-20 0 -25 -5 -25 -25z"/>
        <path d="M6310 5055 c0 -20 5 -25 25 -25 20 0 25 5 25 25 0 20 -5 25 -25 25
-20 0 -25 -5 -25 -25z"/>


        <path
            d="M6380 4885 l0 -195 170 0 170 0 0 -150 0 -150 25 0 25 0 0 150 0 150
235 0 235 0 0 -150 0 -150 25 0 25 0 0 175 0 175 -430 0 -430 0 0 170 0 170
-25 0 -25 0 0 -195z"/>



        <g id="Familyhistory_Familyhistory_Brother" class="">
            <title>Brother</title>
            <path d="M4605 4305 c-14 -13 -25 -33 -25 -43 0 -58 85 -87 122 -42 25 30 23
                56 -7 85 -31 32 -59 32 -90 0z"/>
            <path
                d="M4509 4141 c-29 -29 -29 -30 -29 -154 0 -130 9 -157 45 -143 12 4 15
27 15 122 0 88 3 115 13 112 9 -4 13 -76 15 -307 l2 -302 28 3 27 3 5 179 c4
131 8 180 18 184 9 3 12 -36 12 -170 0 -95 4 -179 9 -186 4 -8 19 -12 32 -10
l24 3 3 303 c2 256 4 302 17 302 12 0 15 -23 17 -117 3 -110 4 -118 23 -118
19 0 20 8 23 125 1 69 0 135 -3 147 -9 39 -54 53 -165 53 -99 0 -102 -1 -131
-29z"
            />
        </g>

        <g id="Familyhistory_Familyhistory_PaternalHalfSister" class="">
            <title>Paternal Half Sister</title>
            <path d="M5280 4312 c-27 -22 -30 -76 -6 -100 23 -23 76 -19 98 7 24 30 23 62
                -2 89 -25 27 -60 28 -90 4z"/>
            <path
                d="M5212 4152 c-23 -23 -106 -257 -98 -277 6 -18 32 -20 42 -4 4 6 21
52 39 102 18 50 38 93 44 95 18 6 14 -13 -44 -174 -30 -85 -55 -157 -55 -159
0 -3 23 -5 50 -5 l50 0 0 -124 c0 -129 8 -154 44 -140 14 5 16 25 16 135 0
122 1 129 20 129 19 0 20 -7 20 -129 0 -133 6 -152 41 -130 11 6 14 37 14 134
l0 125 53 0 c62 0 63 -20 -9 178 -50 136 -56 162 -40 162 10 0 38 -68 62 -148
16 -54 34 -71 55 -50 14 14 12 28 -27 139 -24 68 -51 131 -61 141 -26 26 -190
26 -216 0z"
            />
        </g>

        <g id="Familyhistory_Familyhistory_PaternalHalfBrother" class="">
            <title>Paternal Half Brother</title>
            <path d="M5785 4305 c-14 -13 -25 -33 -25 -43 0 -58 85 -87 122 -42 25 30 23
                56 -7 85 -31 32 -59 32 -90 0z"/>
            <path
                d="M5689 4141 c-29 -29 -29 -30 -29 -154 0 -130 9 -157 45 -143 12 4 15
27 15 122 0 88 3 115 13 112 9 -4 13 -76 15 -307 l2 -302 28 3 27 3 5 179 c4
131 8 180 18 184 9 3 12 -36 12 -170 0 -95 4 -179 9 -186 4 -8 19 -12 32 -10
l24 3 3 303 c2 256 4 302 17 302 12 0 15 -23 17 -117 3 -110 4 -118 23 -118
19 0 20 8 23 125 1 69 0 135 -3 147 -9 39 -54 53 -165 53 -99 0 -102 -1 -131
-29z"
            />
        </g>

        <g id="Familyhistory_Familyhistory_FemaleCousinOnFathersSide" class="">
            <title>Female Cousin On Fathers Side</title>
            <path d="M6710 4312 c-27 -22 -30 -76 -6 -100 23 -23 76 -19 98 7 24 30 23 62
                -2 89 -25 27 -60 28 -90 4z"/>
            <path
                d="M6642 4152 c-23 -23 -106 -257 -98 -277 6 -18 32 -20 42 -4 4 6 21
52 39 102 18 50 38 93 44 95 18 6 14 -13 -44 -174 -30 -85 -55 -157 -55 -159
0 -3 23 -5 50 -5 l50 0 0 -124 c0 -129 8 -154 44 -140 14 5 16 25 16 135 0
122 1 129 20 129 19 0 20 -7 20 -129 0 -133 6 -152 41 -130 11 6 14 37 14 134
l0 125 53 0 c62 0 63 -20 -9 178 -50 136 -56 162 -40 162 10 0 38 -68 62 -148
16 -54 34 -71 55 -50 14 14 12 28 -27 139 -24 68 -51 131 -61 141 -26 26 -190
26 -216 0z"
            />
        </g>

        <g id="Familyhistory_Familyhistory_MaleCousinOnFathersSide" class="">
            <title>Male Cousin On Fathers Side</title>
            <path d="M7215 4305 c-14 -13 -25 -33 -25 -43 0 -58 85 -87 122 -42 25 30 23
                56 -7 85 -31 32 -59 32 -90 0z"/>
            <path
                d="M7119 4141 c-29 -29 -29 -30 -29 -154 0 -130 9 -157 45 -143 12 4 15
27 15 122 0 88 3 115 13 112 9 -4 13 -76 15 -307 l2 -302 28 3 27 3 5 179 c4
131 8 180 18 184 9 3 12 -36 12 -170 0 -95 4 -179 9 -186 4 -8 19 -12 32 -10
l24 3 3 303 c2 256 4 302 17 302 12 0 15 -23 17 -117 3 -110 4 -118 23 -118
19 0 20 8 23 125 1 69 0 135 -3 147 -9 39 -54 53 -165 53 -99 0 -102 -1 -131
-29z"
            />
        </g>

        <g id="Familyhistory_Familyhistory_FemaleCousinOnMothersSide" class="">
            <title>Female Cousin On Mothers Side</title>
            <path d="M310 4292 c-27 -22 -30 -76 -6 -100 23 -23 76 -19 98 7 24 30 23 62
                -2 89 -25 27 -60 28 -90 4z"/>
            <path
                d="M242 4132 c-23 -23 -106 -257 -98 -277 6 -18 32 -20 42 -4 4 6 21 52
39 102 18 50 38 93 44 95 18 6 14 -13 -44 -174 -30 -85 -55 -157 -55 -159 0
-3 23 -5 50 -5 l50 0 0 -124 c0 -129 8 -154 44 -140 14 5 16 25 16 135 0 122
1 129 20 129 19 0 20 -7 20 -129 0 -133 6 -152 41 -130 11 6 14 37 14 134 l0
125 53 0 c62 0 63 -20 -9 178 -50 136 -56 162 -40 162 10 0 38 -68 62 -148 16
-54 34 -71 55 -50 14 14 12 28 -27 139 -24 68 -51 131 -61 141 -26 26 -190 26
-216 0z"
            />
        </g>

        <g id="Familyhistory_Familyhistory_MaleCousinOnMothersSide" class="">
            <title>Male Cousin On Mothers Side</title>
            <path d="M815 4285 c-14 -13 -25 -33 -25 -43 0 -58 85 -87 122 -42 25 30 23
                56 -7 85 -31 32 -59 32 -90 0z"/>
            <path
                d="M719 4121 c-29 -29 -29 -30 -29 -154 0 -130 9 -157 45 -143 12 4 15
27 15 122 0 88 3 115 13 112 9 -4 13 -76 15 -307 l2 -302 28 3 27 3 5 179 c4
131 8 180 18 184 9 3 12 -36 12 -170 0 -95 4 -179 9 -186 4 -8 19 -12 32 -10
l24 3 3 303 c2 256 4 302 17 302 12 0 15 -23 17 -117 3 -110 4 -118 23 -118
19 0 20 8 23 125 1 69 0 135 -3 147 -9 39 -54 53 -165 53 -99 0 -102 -1 -131
-29z"
            />
        </g>

        <g id="Familyhistory_Familyhistory_MaternalHalfSister" class="">
            <title>Maternal Half Sister</title>
            <path d="M1790 4292 c-27 -22 -30 -76 -6 -100 23 -23 76 -19 98 7 24 30 23 62
                -2 89 -25 27 -60 28 -90 4z"/>
            <path
                d="M1722 4132 c-23 -23 -106 -257 -98 -277 6 -18 32 -20 42 -4 4 6 21
52 39 102 18 50 38 93 44 95 18 6 14 -13 -44 -174 -30 -85 -55 -157 -55 -159
0 -3 23 -5 50 -5 l50 0 0 -124 c0 -129 8 -154 44 -140 14 5 16 25 16 135 0
122 1 129 20 129 19 0 20 -7 20 -129 0 -133 6 -152 41 -130 11 6 14 37 14 134
l0 125 53 0 c62 0 63 -20 -9 178 -50 136 -56 162 -40 162 10 0 38 -68 62 -148
16 -54 34 -71 55 -50 14 14 12 28 -27 139 -24 68 -51 131 -61 141 -26 26 -190
26 -216 0z"
            />
        </g>

        <g id="Familyhistory_Familyhistory_MaternalHalfBrother" class="">
            <title>Maternal Half Brother</title>
            <path d="M2295 4285 c-14 -13 -25 -33 -25 -43 0 -58 85 -87 122 -42 25 30 23
                56 -7 85 -31 32 -59 32 -90 0z"/>
            <path
                d="M2199 4121 c-29 -29 -29 -30 -29 -154 0 -130 9 -157 45 -143 12 4 15
27 15 122 0 88 3 115 13 112 9 -4 13 -76 15 -307 l2 -302 28 3 27 3 5 179 c4
131 8 180 18 184 9 3 12 -36 12 -170 0 -95 4 -179 9 -186 4 -8 19 -12 32 -10
l24 3 3 303 c2 256 4 302 17 302 12 0 15 -23 17 -117 3 -110 4 -118 23 -118
19 0 20 8 23 125 1 69 0 135 -3 147 -9 39 -54 53 -165 53 -99 0 -102 -1 -131
-29z"
            />
        </g>

        <g id="Familyhistory_Familyhistory_Sister" class="">
            <title>Sister</title>
            <path d="M3030 4292 c-27 -22 -30 -76 -6 -100 23 -23 76 -19 98 7 24 30 23 62
                -2 89 -25 27 -60 28 -90 4z"/>
            <path
                d="M2962 4132 c-23 -23 -106 -257 -98 -277 6 -18 32 -20 42 -4 4 6 21
52 39 102 18 50 38 93 44 95 18 6 14 -13 -44 -174 -30 -85 -55 -157 -55 -159
0 -3 23 -5 50 -5 l50 0 0 -124 c0 -129 8 -154 44 -140 14 5 16 25 16 135 0
122 1 129 20 129 19 0 20 -7 20 -129 0 -133 6 -152 41 -130 11 6 14 37 14 134
l0 125 53 0 c62 0 63 -20 -9 178 -50 136 -56 162 -40 162 10 0 38 -68 62 -148
16 -54 34 -71 55 -50 14 14 12 28 -27 139 -24 68 -51 131 -61 141 -26 26 -190
26 -216 0z"
            />
        </g>


        <path d="M3830 3965 c0 -8 7 -15 15 -15 8 0 15 7 15 15 0 8 -7 15 -15 15 -8 0
-15 -7 -15 -15z"/>
        <path
            d="M3550 3906 c0 -52 3 -66 15 -66 9 0 15 9 15 24 0 18 6 26 21 28 12 2
27 11 33 21 17 26 -4 51 -48 55 l-36 3 0 -65z m58 27 c-5 -25 -28 -28 -28 -4
0 12 6 21 16 21 9 0 14 -7 12 -17z"/>
        <path
            d="M3761 3944 c-9 -11 -10 -18 -3 -23 6 -3 12 -22 14 -41 2 -27 8 -36
26 -38 12 -2 22 1 22 7 0 6 -4 11 -10 11 -15 0 -12 58 2 62 9 3 8 9 -4 21 -20
21 -29 21 -47 1z"/>
        <path
            d="M4101 3944 c-9 -11 -10 -18 -3 -23 6 -3 12 -22 14 -41 2 -27 8 -36
26 -38 12 -2 22 1 22 7 0 6 -4 11 -10 11 -15 0 -12 58 2 62 9 3 8 9 -4 21 -20
21 -29 21 -47 1z"/>
        <path
            d="M3667 3934 c-14 -14 -7 -21 18 -16 14 2 25 0 25 -6 0 -6 -10 -12 -22
-14 -17 -2 -23 -10 -23 -28 0 -22 5 -25 38 -28 l38 -3 -3 48 c-3 45 -5 48 -33
51 -17 2 -34 0 -38 -4z m43 -64 c0 -5 -4 -10 -10 -10 -5 0 -10 5 -10 10 0 6 5
10 10 10 6 0 10 -4 10 -10z"/>
        <path d="M3830 3890 c0 -38 4 -50 15 -50 11 0 15 12 15 50 0 38 -4 50 -15 50
-11 0 -15 -12 -15 -50z"/>
        <path
            d="M3890 3921 c-14 -28 -13 -56 4 -70 17 -15 68 -11 73 5 2 7 -5 10 -20
7 -14 -3 -28 0 -31 6 -5 7 4 11 23 11 23 0 31 5 31 18 0 41 -60 59 -80 23z
m50 -11 c0 -5 -7 -10 -15 -10 -8 0 -15 5 -15 10 0 6 7 10 15 10 8 0 15 -4 15
-10z"/>
        <path d="M3990 3889 c0 -36 4 -49 14 -49 10 0 16 13 18 37 4 52 28 56 28 4 0
-30 4 -41 16 -41 12 0 14 10 12 48 l-3 47 -42 2 -43 2 0 -50z"/>
        <path
            d="M3830 3355 l0 -375 -125 0 -125 0 0 -150 0 -150 25 0 25 0 0 125 0
125 235 0 235 0 0 -125 0 -125 25 0 25 0 0 150 0 150 -135 0 -135 0 0 375 0
375 -25 0 -25 0 0 -375z"/>
        <path
            d="M3050 3150 l0 -170 -765 0 -765 0 0 -140 0 -140 25 0 25 0 0 115 0
115 235 0 235 0 0 -120 0 -120 25 0 25 0 0 120 0 120 505 0 505 0 0 195 0 195
-25 0 -25 0 0 -170z"/>
        <path
            d="M4620 3125 l0 -195 550 0 550 0 0 -120 0 -120 25 0 25 0 0 120 0 120
235 0 235 0 0 -115 0 -115 25 0 25 0 0 140 0 140 -810 0 -810 0 0 170 0 170
-25 0 -25 0 0 -195z"/>


        <g id="Familyhistory_Familyhistory_NieceBrothersChild" class="">
            <title>Niece - Brothers Child</title>
            <path d="M5720 2632 c-27 -22 -30 -76 -6 -100 23 -23 76 -19 98 7 24 30 23 62
                -2 89 -25 27 -60 28 -90 4z"/>
            <path
                d="M5652 2472 c-23 -23 -106 -257 -98 -277 6 -18 32 -20 42 -4 4 6 21
52 39 102 18 50 38 93 44 95 18 6 14 -13 -44 -174 -30 -85 -55 -157 -55 -159
0 -3 23 -5 50 -5 l50 0 0 -124 c0 -129 8 -154 44 -140 14 5 16 25 16 135 0
122 1 129 20 129 19 0 20 -7 20 -129 0 -133 6 -152 41 -130 11 6 14 37 14 134
l0 125 53 0 c62 0 63 -20 -9 178 -50 136 -56 162 -40 162 10 0 38 -68 62 -148
16 -54 34 -71 55 -50 14 14 12 28 -27 139 -24 68 -51 131 -61 141 -26 26 -190
26 -216 0z"
            />
        </g>

        <g id="Familyhistory_Familyhistory_NephewBrothersChild" class="">
            <title>Nephew - Brothers Child</title>
            <path d="M6225 2625 c-14 -13 -25 -33 -25 -43 0 -58 85 -87 122 -42 25 30 23
                56 -7 85 -31 32 -59 32 -90 0z"/>
            <path
                d="M6129 2461 c-29 -29 -29 -30 -29 -154 0 -130 9 -157 45 -143 12 4 15
27 15 122 0 88 3 115 13 112 9 -4 13 -76 15 -307 l2 -302 28 3 27 3 5 179 c4
131 8 180 18 184 9 3 12 -36 12 -170 0 -95 4 -179 9 -186 4 -8 19 -12 32 -10
l24 3 3 303 c2 256 4 302 17 302 12 0 15 -23 17 -117 3 -110 4 -118 23 -118
19 0 20 8 23 125 1 69 0 135 -3 147 -9 39 -54 53 -165 53 -99 0 -102 -1 -131
-29z"
            />
        </g>

        <g id="Familyhistory_Familyhistory_Daughter" class="">
            <title>Daughter</title>
            <path d="M3570 2622 c-27 -22 -30 -76 -6 -100 23 -23 76 -19 98 7 24 30 23 62
                -2 89 -25 27 -60 28 -90 4z"/>
            <path
                d="M3502 2462 c-23 -23 -106 -257 -98 -277 6 -18 32 -20 42 -4 4 6 21
52 39 102 18 50 38 93 44 95 18 6 14 -13 -44 -174 -30 -85 -55 -157 -55 -159
0 -3 23 -5 50 -5 l50 0 0 -124 c0 -129 8 -154 44 -140 14 5 16 25 16 135 0
122 1 129 20 129 19 0 20 -7 20 -129 0 -133 6 -152 41 -130 11 6 14 37 14 134
l0 125 53 0 c62 0 63 -20 -9 178 -50 136 -56 162 -40 162 10 0 38 -68 62 -148
16 -54 34 -71 55 -50 14 14 12 28 -27 139 -24 68 -51 131 -61 141 -26 26 -190
26 -216 0z"
            />
        </g>

        <g id="Familyhistory_Familyhistory_Son" class="">
            <title>Son</title>
            <path d="M4075 2615 c-14 -13 -25 -33 -25 -43 0 -58 85 -87 122 -42 25 30 23
                56 -7 85 -31 32 -59 32 -90 0z"/>
            <path
                d="M3979 2451 c-29 -29 -29 -30 -29 -154 0 -130 9 -157 45 -143 12 4 15
27 15 122 0 88 3 115 13 112 9 -4 13 -76 15 -307 l2 -302 28 3 27 3 5 179 c4
131 8 180 18 184 9 3 12 -36 12 -170 0 -95 4 -179 9 -186 4 -8 19 -12 32 -10
l24 3 3 303 c2 256 4 302 17 302 12 0 15 -23 17 -117 3 -110 4 -118 23 -118
19 0 20 8 23 125 1 69 0 135 -3 147 -9 39 -54 53 -165 53 -99 0 -102 -1 -131
-29z"
            />
        </g>

        <g id="Familyhistory_Familyhistory_NieceSistersChild" class="">
            <title>Niece - Sisters Child</title>
            <path d="M1520 2612 c-27 -22 -30 -76 -6 -100 23 -23 76 -19 98 7 24 30 23 62
                -2 89 -25 27 -60 28 -90 4z"/>
            <path
                d="M1452 2452 c-23 -23 -106 -257 -98 -277 6 -18 32 -20 42 -4 4 6 21
52 39 102 18 50 38 93 44 95 18 6 14 -13 -44 -174 -30 -85 -55 -157 -55 -159
0 -3 23 -5 50 -5 l50 0 0 -124 c0 -129 8 -154 44 -140 14 5 16 25 16 135 0
122 1 129 20 129 19 0 20 -7 20 -129 0 -133 6 -152 41 -130 11 6 14 37 14 134
l0 125 53 0 c62 0 63 -20 -9 178 -50 136 -56 162 -40 162 10 0 38 -68 62 -148
16 -54 34 -71 55 -50 14 14 12 28 -27 139 -24 68 -51 131 -61 141 -26 26 -190
26 -216 0z"
            />
        </g>

        <g id="Familyhistory_Familyhistory_NephewSistersChild" class="">
            <title>Nephew - Sisters Child</title>
            <path d="M2025 2605 c-14 -13 -25 -33 -25 -43 0 -58 85 -87 122 -42 25 30 23
                56 -7 85 -31 32 -59 32 -90 0z"/>
            <path
                d="M1929 2441 c-29 -29 -29 -30 -29 -154 0 -130 9 -157 45 -143 12 4 15
27 15 122 0 88 3 115 13 112 9 -4 13 -76 15 -307 l2 -302 28 3 27 3 5 179 c4
131 8 180 18 184 9 3 12 -36 12 -170 0 -95 4 -179 9 -186 4 -8 19 -12 32 -10
l24 3 3 303 c2 256 4 302 17 302 12 0 15 -23 17 -117 3 -110 4 -118 23 -118
19 0 20 8 23 125 1 69 0 135 -3 147 -9 39 -54 53 -165 53 -99 0 -102 -1 -131
-29z"
            />
        </g>


        <path
            d="M3590 1560 l0 -130 -520 0 -520 0 0 -160 0 -160 25 0 25 0 0 135 0
135 235 0 235 0 0 -140 0 -140 25 0 25 0 0 140 0 140 260 0 260 0 0 155 0 155
-25 0 -25 0 0 -130z"/>
        <path
            d="M4090 1535 l0 -155 280 0 280 0 0 -135 0 -135 25 0 25 0 0 135 0 135
235 0 235 0 0 -135 0 -135 25 0 25 0 0 160 0 160 -540 0 -540 0 0 130 0 130
-25 0 -25 0 0 -155z"/>


        <g id="Familyhistory_Familyhistory_GranddaughterSonsChild" class="">
            <title>Granddaughter - Sons Child</title>
            <path d="M4640 1052 c-27 -22 -30 -76 -6 -100 23 -23 76 -19 98 7 24 30 23 62
                -2 89 -25 27 -60 28 -90 4z"/>
            <path
                d="M4572 892 c-23 -23 -106 -257 -98 -277 6 -18 32 -20 42 -4 4 6 21 52
39 102 18 50 38 93 44 95 18 6 14 -13 -44 -174 -30 -85 -55 -157 -55 -159 0
-3 23 -5 50 -5 l50 0 0 -124 c0 -129 8 -154 44 -140 14 5 16 25 16 135 0 122
1 129 20 129 19 0 20 -7 20 -129 0 -133 6 -152 41 -130 11 6 14 37 14 134 l0
125 53 0 c62 0 63 -20 -9 178 -50 136 -56 162 -40 162 10 0 38 -68 62 -148 16
-54 34 -71 55 -50 14 14 12 28 -27 139 -24 68 -51 131 -61 141 -26 26 -190 26
-216 0z"
            />
        </g>

        <g id="Familyhistory_Familyhistory_GrandsonSonsChild" class="">
            <title>Grandson - Sons Child</title>
            <path d="M5145 1045 c-29 -29 -32 -55 -7 -84 37 -46 122 -18 122 41 0 25 -44
                68 -70 68 -11 0 -32 -11 -45 -25z"/>
            <path
                d="M5049 881 c-29 -29 -29 -30 -29 -154 0 -130 9 -157 45 -143 12 4 15
27 15 122 0 88 3 115 13 112 9 -4 13 -76 15 -307 l2 -302 28 3 27 3 5 179 c4
131 8 180 18 184 9 3 12 -36 12 -170 0 -95 4 -179 9 -186 4 -8 19 -12 32 -10
l24 3 3 303 c2 256 4 302 17 302 12 0 15 -23 17 -117 3 -110 4 -118 23 -118
19 0 20 8 23 125 1 69 0 135 -3 147 -9 39 -54 53 -165 53 -99 0 -102 -1 -131
-29z"
            />
        </g>

        <g id="Familyhistory_Familyhistory_GranddaughterDaughtersChild" class="">
            <title>Granddaughter - Daughters Child</title>
            <path d="M2540 1042 c-27 -22 -30 -76 -6 -100 23 -23 76 -19 98 7 24 30 23 62
                -2 89 -25 27 -60 28 -90 4z"/>
            <path
                d="M2472 882 c-23 -23 -106 -257 -98 -277 6 -18 32 -20 42 -4 4 6 21 52
39 102 18 50 38 93 44 95 18 6 14 -13 -44 -174 -30 -85 -55 -157 -55 -159 0
-3 23 -5 50 -5 l50 0 0 -124 c0 -129 8 -154 44 -140 14 5 16 25 16 135 0 122
1 129 20 129 19 0 20 -7 20 -129 0 -133 6 -152 41 -130 11 6 14 37 14 134 l0
125 53 0 c62 0 63 -20 -9 178 -50 136 -56 162 -40 162 10 0 38 -68 62 -148 16
-54 34 -71 55 -50 14 14 12 28 -27 139 -24 68 -51 131 -61 141 -26 26 -190 26
-216 0z"
            />
        </g>

        <g id="Familyhistory_Familyhistory_GrandsonDaughtersChild" class="">
            <title>Grandson - Daughters Child</title>
            <path d="M3045 1035 c-29 -29 -32 -55 -7 -84 37 -46 122 -18 122 41 0 25 -44
                68 -70 68 -11 0 -32 -11 -45 -25z"/>
            <path
                d="M2949 871 c-29 -29 -29 -30 -29 -154 0 -130 9 -157 45 -143 12 4 15
27 15 122 0 88 3 115 13 112 9 -4 13 -76 15 -307 l2 -302 28 3 27 3 5 179 c4
131 8 180 18 184 9 3 12 -36 12 -170 0 -95 4 -179 9 -186 4 -8 19 -12 32 -10
l24 3 3 303 c2 256 4 302 17 302 12 0 15 -23 17 -117 3 -110 4 -118 23 -118
19 0 20 8 23 125 1 69 0 135 -3 147 -9 39 -54 53 -165 53 -99 0 -102 -1 -131
-29z"
            />
        </g>

    </g>
</svg>
