<?xml version="1.0" encoding="utf-8"?>
<!-- Generator: Adobe Illustrator 19.2.1, SVG Export Plug-In . SVG Version: 6.00 Build 0)  -->
<!DOCTYPE svg PUBLIC "-//W3C//DTD SVG 1.1//EN" "http://www.w3.org/Graphics/SVG/1.1/DTD/svg11.dtd">
<svg version="1.1" xmlns="http://www.w3.org/2000/svg" id="Fracture" class="imageMap" xmlns:xlink="http://www.w3.org/1999/xlink" x="0px" y="0px" height="400" width="250"
	 viewBox="0 0 595.3 841.9" style="enable-background:new 0 0 595.3 841.9;" xml:space="preserve">
<style type="text/css">
	.st0{fill-rule:evenodd;clip-rule:evenodd;fill:#1E385B;}
	.st1{fill-rule:evenodd;clip-rule:evenodd;fill:#5991CD;}
	.st2{fill:#5991CD;}
</style>
<g id="body">
	<path class="st0" d="M462.5,433.5c-2.8-5.5-9.5-12.6-12.3-14.8c-2.5-1.5-5.2-4.6-7.1-8.9c1.2-10.5-9.9-44-10.8-48.6
		c2.2-9.5,0-23.1-1.2-28.3c-1.8-6.5-11.1-28-14.5-35.7c-3.7-11.1-0.9-9.5-1.5-15.7c-0.6-7.1-0.4-26.5-1.9-32.3
		c-3.1-10.5-0.9-18.5-1.2-23.1c-0.3-4.6,3.7-10.5,3.1-18.8c-0.9-8.6-8.9-25.6-9.5-29.6c-0.6-4-7.1-10.2-7.7-11.1
		c-0.6-0.9-13.2-7.1-14.8-8.3c-1.5-1.2-7.4-2.2-11.1-3.1c-3.7-0.9-6.5-0.6-13.5-4.6c-6.5-4.6-23.7-13.2-28.9-18.5
		c-2.2-5.2-0.9-8.3-0.6-16c2.2-4.9,6.2-18.2,6.2-18.2s3.4,1.3,4.3-1.8c0.5-0.7,0.2-7.4,3.6-11.4c4.8-5.8,4.1-15.1-0.3-13.3
		c0,0-0.1-1.4,0.1-2.4c10.3-56.8-39.9-55.6-39.9-55.6s-46.7-1.2-40.5,55.6c0.3,2.7,2.2,4.2,0,5.2c0.3-0.7-1.1-3.1-3.6,0
		c-0.7,2.8-1,7.1,2.4,11.2c1.6,1.9,3.9,10,4.5,10.7c2.6,3.6,4.3,1.8,4.3,1.8s4,13.2,6.2,18.2c0.3,7.7,1.5,10.8-0.6,16
		c-5.2,5.2-22.5,13.9-28.9,18.5c-7.1,4-9.9,3.7-13.5,4.6c-3.7,0.9-9.5,1.8-11.1,3.1c-1.5,1.2-14.2,7.4-14.8,8.3
		c-0.6,0.9-7.1,7.1-7.7,11.1c-0.6,4-8.6,20.9-9.5,29.6c-0.6,8.3,3.4,14.2,3.1,18.8c-0.3,4.6,1.8,12.6-1.2,23.1
		c-1.5,5.9-1.4,25.2-1.9,32.3c-0.6,6.2,2.2,4.6-1.5,15.7c-3.4,7.7-12.6,29.2-14.5,35.7c-1.2,5.2-3.4,18.8-1.2,28.3
		c-0.9,4.6-12,38.2-10.8,48.6c-1.8,4.3-4.6,7.4-7.1,8.9c-2.8,2.2-9.5,9.2-12.3,14.8c-2.8,8.6-11.6,18.5-15.7,25.9
		c0,2.3,2.8,3.1,5.5,2.2c3.1-1.2,10.8-6.5,12.3-9.5c0.3,4.3,0.3,34.5,1.5,38.5c0.9,2.8,1.8,7.4,4.3,8c2.5-0.3,3.4-1.8,3.4-1.8
		c0,3.4,0.9,8.9,4,9.2c2.1-0.4,4.4-1.4,5.2-3.1c1.5,0.9,5.4,0.6,7.3-2.2c2.2-3.4,3.2-8.6,3.2-8.6s1.5,2.5,3.4,2.2
		c2.7-0.1,4.3-2.2,4.9-6.2c0.6-4,2.2-15.1,2.2-15.7c0-0.6,1.2-9.2,1.8-13.2c2.2-4.3,4.6-18.8,4.6-21.6c0-3.1-0.6-5.5-3.1-12.3
		c1.8-6.5,3.4-10.2,3.4-10.2s8.9-15.1,11.1-22.8c3.1-4,16.3-19.4,17.9-33.6c1.8-11.4,1.5-16.3,2.2-17.5c1.5-3.4,4.9-13.2,3.7-28.6
		c1.8-6.2,4.9-16.6,5.5-17.5c-0.9-4.3-3.1-12.6-4-20c-0.6-8.6-1.2-22.2-0.9-24.9c0-4.3-1.5-17.5-1.8-20.3c1.2,1.8,2.8,3.8,4.2,5.2
		c1.3,1.5,3.1,2.6,3.1,2.6c-1.5-0.3-4.6,0-4.6,0s0.7,7.9,0.7,13.1c0,5.2,0.9,23.7,1.2,26.2c0.3,2.5,4.6,24.3,6.2,26.2
		c0,5.2-6.8,39.4-4.6,49c-2.5,5.8-7.7,29.9-6.5,36.6c-0.6,4.6-4.6,45.9-3.4,59.7c1.2,13.9,8,64.7,11.4,72.4
		c1.2,4.9,8.3,30.8,12.3,36c0.9,3.4,2.2,11.4,2.5,17.2c0.3,6.2,0.6,12.6,1.2,15.7c-0.6,6.2-4.3,27.7-5.9,30.2
		c-0.6,4.6-3.1,19.1-3.1,25.2c-0.3,6.2,3.1,28.6,6.2,34.2c1.2,6.2,12,43.7,12.6,48.6c1.5,5.8,6.2,14.2,5.9,17.6
		c-0.3,4.6-2.2,12.9-0.9,17.2c0.9,4,1.5,4.3,0.6,7.7c-0.9,3.4-1.8,2.5-2.5,4.9c-1.8,3.7-5.2,5.2-6.2,8.3
		c-3.1,3.4-10.7,11.3-9.5,14.1c3.2,2.7,4.8,0.3,5.7,0c0.2,2.4,0.6,3.7,1.7,4.1c2.2,1.5,4.6,0,4.6,0c0.4,1.8,4.1,3.2,6.2,0.8
		c1.2,2.4,7.6,3.6,9.2-2c2.8-2.2,4-1.2,4-1.2s-1.1,6.5,3.8,6.8c4,0.6,7.2-1.2,9.1-4.3c2.2-3.7,5.3-7.9,4.7-9.8
		c-0.6-3.4-2.9-18.2-2.5-21.3c2.2-7.1,4.3-10.5,3.7-13.2c-0.6-2.8-4-14.2-4-18.2c-0.9-3.4-2.5-18.2-2.2-20.3
		c0.9-4.6,1.8-12.9,1.2-23.1c0.9-8.9,1.8-17.2,3.7-20c1.5-4.6,3.4-14.8,1.5-25.2c-2.2-10.5-6.8-28.9-6.5-32.9c0.3-4-1.5-7.7-0.6-9.9
		c0.9-2.2,4.3-7.7,5.9-17.2c2.2-9.9,3.5-23.4,3.6-25.6c0.1-2.2-0.2-27.4-1.5-33.6c-0.6-8-1.2-24.9,0-30.5c1.5-8.6,3.4-22.5,3.7-29.9
		c0.3-6.3,1.7-9.3,2.1-10c0.4,0.7,1.8,3.6,2.1,10c0.3,7.4,2.2,21.2,3.7,29.9c1.2,5.5,0.6,22.5,0,30.5c-1.2,6.2-1.5,31.4-1.5,33.6
		c0.1,2.2,1.5,15.7,3.6,25.6c1.5,9.5,4.9,15.1,5.9,17.2c0.9,2.2-0.9,5.8-0.6,9.9c0.3,4-4.3,22.5-6.5,32.9c-1.8,10.5,0,20.6,1.5,25.2
		c1.8,2.8,2.8,11.1,3.7,20c-0.6,10.2,0.3,18.5,1.2,23.1c0.3,2.2-1.2,16.9-2.2,20.3c0,4-3.4,15.4-4,18.2c-0.6,2.8,1.5,6.2,3.7,13.2
		c0.3,3.1-2.2,17.2-2.8,20.6c0,3.3,2.8,6.8,4.9,10.5c1.8,3.1,5.6,5.6,9.6,5c4.9-0.3,3.3-7.5,3.3-7.5s1.2-0.9,4,1.2
		c1.4,4.4,8.2,4.4,9.4,2c0.6,2,7,2.5,6.7-0.9c0,0,1.7,0.9,3.9,0.1c2.1-0.6,1.4-1.2,2.3-4.3c0.9,0.3,3.8,2.2,5.7-0.3
		c1.2-5.5-7.1-10.2-10.2-13.5c-0.9-3.1-4.3-4.6-6.2-8.3c-0.6-2.5-1.5-1.5-2.5-4.9c-0.9-3.4-0.3-3.7,0.6-7.7
		c1.2-4.3-0.6-12.6-0.9-17.2c-0.3-3.4,4.3-11.7,5.9-17.6c0.6-4.9,11.4-42.5,12.6-48.6c3.1-5.5,6.5-28,6.2-34.2
		c0-6.2-2.5-20.6-3.1-25.2c-1.5-2.5-5.2-24-5.9-30.2c0.6-3.1,0.9-9.5,1.2-15.7c0.3-5.8,1.5-13.9,2.5-17.2c4-5.2,11.1-31.1,12.3-36
		c3.4-7.7,10.2-58.5,11.4-72.4c1.2-13.9-2.8-55.1-3.4-59.7c1.2-6.8-4-30.8-6.5-36.6c2.2-9.5-4.6-43.7-4.6-49
		c1.5-1.8,5.9-23.7,6.2-26.2c0.3-2.5,1.2-20.9,1.2-26.2c0-5.2,1.2-14,1.2-14s-2.4,2.5-3.9,2.8c0,0,1.6-3,2.9-4.5
		c1.3-1.5,2-3.5,3.2-5.3c-0.3,2.8-1.8,16-1.8,20.3c0.3,2.8-0.3,16.3-0.9,24.9c-0.9,7.4-3.1,15.7-4,20c0.6,0.9,3.7,11.4,5.5,17.5
		c-1.2,15.4,2.2,25.2,3.7,28.6c0.6,1.2,0.3,6.2,2.2,17.5c1.5,14.2,14.8,29.6,17.9,33.6c2.2,7.7,11.1,22.8,11.1,22.8
		s1.5,3.7,3.4,10.2c-2.5,6.8-3.1,9.2-3.1,12.3c0,2.8,2.5,17.2,4.6,21.6c0.6,4,1.8,12.6,1.8,13.2c0,0.6,2.4,12.3,3.7,16.1
		c1.9,6,4,6.4,5.3,5.9c1.7,0,2-0.7,1.9-1.4c-0.3-0.6-0.4-1-0.4-1s0.3,0.5,0.4,1c0.7,1.6,2.1,4.9,3.6,7.3c1.8,2.8,6.4,3.1,7.9,2.1
		c0.3,2.2,1.5,2.7,3.8,3.4c4.4-1.2,4.8-5.5,4.8-8.9c0,0,1.6,0.8,4.1,1.1c2.5-0.6,4-4.1,4-7.5c1.2-4,0.1-34.3,0.4-38.6
		c1.5,3.1,9.2,8.3,12.3,9.5c2.8,0.9,5.3-0.8,6.2-4.2C478.9,454.9,466.7,442.3,462.5,433.5z"/>
</g>
<g id="skeleton_base">
	<path class="st1" d="M295.9,163.5c0,0-6,1.5-10.3,1.8c-3.2-0.9-5.6-0.9-6.6-1.1c-0.6-0.1-2.6,0.1-5,0.3c-2.5,0.2-5.4,0.5-7.1,0.3
		c-3.5-0.8-8.8-0.9-13.2-1.3c-4.5-0.2-12.6,0.2-16.4,1.3c-1.3,0.2-2.4,0.1-3.3,0c-0.7-0.1-1.3-0.1-1.8-0.1c-1,0.2-3.3,1-3.9,1.3
		c-0.9-0.5-1.6-3.2-1.6-4.5c0.4-1.3,0.8-1.3,1.8-1.5c1.3-0.1,8.8-0.2,11.7,0c3.1-0.4,8.9-1.8,13.4-1.2c3.5-0.2,7.4-1.4,10.3-0.9
		c2.7,0.8,12.4,1.5,15.6,0.9c1.8-0.4,3.5-1.3,5.4-1c0.9,0,2.4,0,3.8,0c1.7,0,3.3,0,3.3,0c0.8,0,1.4-0.7,2.3,0
		c0.6,0.6,2.3,1.9,2.3,3.1C296.1,162.3,295.9,163.5,295.9,163.5L295.9,163.5z"/>
	<path class="st1" d="M222.2,160.2l-8.2,5.6c0,0-2.6,1.7-2.3,3.3c1.5,0.4,3.9-1.6,5.3-2.2c2-0.8,3.6-1.3,5.3-1.1
		c1.9,0.2,4.7,0.8,4.5-1.1c-0.8-2-0.8-4.5-0.8-4.5C225,159.5,222.2,160.2,222.2,160.2z"/>
	<path class="st1" d="M216.6,175.1C215.7,175.1,216.6,175.1,216.6,175.1h-6.2c0,0-1.5,0-2.8,5.2c-1.2,5.2,0,11.7,1.5,16.3
		c0.3,5.5,1.8,15.7-0.3,25.9c-2.8,10.2-5.2,25.2-3.1,32c1.2,8.9-1.5,25.2-3.1,29.9c-2.5,8-7.7,23.4-8,25.6c-0.3,2.2,1.2,7.1,8,4.6
		c3.5,1.1,7.1-1.7,10.5-0.2c3.1,1.4,5.5,4.4,6.6,7.6c0.2,0.6,3.2,1.7,4,0.7c0.8-1,0.9-4.5-0.8-8.7c-4.7-4-6.4-13-6.7-17.3
		c-0.3-4.3-1.5-20.3-0.3-32.3c1.5-11.7,2.6-28.6,3.1-43.7c3.9-14.8,5.3-23.7,5.2-27.4c-0.5-4,0.9-8.3,0-9.5
		c-0.9-1.2-0.7-8.6-5.2-8.6C217.8,175.1,217,175.1,216.6,175.1z"/>
	<path class="st1" d="M200.6,322.5c0,0-7.1-4.9-7.7,14.5c-6.8,13.9-12,22.8-15.1,32.3c-2.5,11.1-4,22.6-7.7,29.3
		c-3.4,8.8-7.7,17.5-1.5,17.5c4.9-0.3,5.2,0.3,9.9,2.2c3.4-0.9,1.5-7.4,0.6-12.3c-0.6-6.5,2.7-16.9,4-21.6c1.2-4.6,5.9-18.2,7.4-24
		c4-7.1,15.1-31.7,14.5-35.4C202.4,323.1,200.6,322.5,200.6,322.5z"/>
	<path class="st1" d="M206.5,324.7c0,0,3.7-2.5,6.2,0c1.2,1.4,2.7,1.6,0,5.1c-4.1,4.3-8.8,15.4-9.4,20.5c-0.8,3.9-3.9,29.4-7.2,41.1
		c-2.7,8.8-7,18.9-7.8,24c-0.6,4.1,0.9,11.1-3,7.2c-2.3-0.2-4.8,0.8-5.8-2.5c1.4-2.3,2.3-6.6,2.1-7.6c0.8-1.6,2.6-4.9,3.8-6.8
		c1.4-3.7,7.5-27.3,7.5-34.7c0.8-9.4,2.3-22.5,6.4-29C201.8,335.6,206.5,324.7,206.5,324.7z"/>
	<path class="st1" d="M216.3,173.4c0,0,5-3.5,9.2-0.7c1.6,1,8.1,7.6,3.5,18.8c-1.1,0.8-2.9-0.3-3.7-0.9c-0.6-1.1-0.7-5.6-0.8-8.9
		c-0.5-2.1-1.6-5.1-2.9-5.9c-1.2-0.6-3.3,0.1-3.9-0.7C217.2,174.4,216.3,173.4,216.3,173.4z"/>
	<path class="st1" d="M196.8,315.5c0,0-3,3.2-1,5.7c0.8,0.5,1.4,0.4,2.7,0c1.2,0.3,4.5,1.8,5.5,2.3c1.1-0.4,0.8,0.2,0.9-1.6
		c-0.1-2,0.1-5.6-0.6-6.4c-1.1-0.1-1.5-0.4-2.6,0c-1.5,0.2-4,0.4-4.3-0.2C196.8,315.5,196.8,315.5,196.8,315.5z"/>
	<path class="st1" d="M205.5,316.2v5.7c0,0,0,0,0.9,1.2c0.9,1.1,2.2-0.3,3.3-0.4c1.4-0.1,2.7,1.3,4.1,1c0.8-0.2,1.9-0.6,2.5-1.1
		c1.1-0.9,1.9-3,1.1-4.3c-0.4-0.7-1.3-1.1-1.9-1.6c-0.5-0.5-1.2-1.3-2-1.4c-1.3-0.2-4.1-0.2-6.7,0
		C205.9,315.6,205.5,316.2,205.5,316.2z"/>
	<path class="st1" d="M163.5,422c0,0-1.2-0.8,0-1.6c1.6-1.2,4.5-2.3,4.8-2.7c1.6-0.4,4.3-0.9,5.2,0.6c-0.1,1.5-1.6,3.7-2.1,4.4
		c-0.9,0.6-3,2.1-3.2,2.3c-0.8,0-2.8-0.7-3.1-0.5C164.7,423.5,163.5,422,163.5,422z"/>
	<path class="st1" d="M172,423.3c0,0,1.9,0.7,2.5,1.3c1,0.1,2.5,0,2.5,0c0.6-0.8,1.6-3.4,1.2-3.9c-0.5-0.8-2.9-2.6-3.6-2.1
		c-0.8,1.3-2,3.4-2.3,3.6C172,422.8,172,423.3,172,423.3z"/>
	<path class="st1" d="M178.2,423.7c0,0,0.1-2.6,1.8-1.5c1.4,1,2.5,1.8,1.8,5.1c-0.4,1.8-0.5,3.1-1.7,2.9c-1.1-1.1-1.3-1.6-1.9-2.5
		c-0.3-1.2-0.6-2.5-0.4-3.1C177.9,424.2,178.2,423.7,178.2,423.7z"/>
	<path class="st1" d="M182.7,426.1l-1,3.7c0,0-0.3,1.2,0,1.4c0.5,0.1,2.5,1.1,3.1-0.9c0.3-2.2,0.7-3.6,0.3-4.2
		c-0.5-0.8-1-1.3-1.7-1.1C182.8,425.2,182.7,426.1,182.7,426.1z"/>
	<path class="st1" d="M173.5,425.6h1.2c0,0,1.4,0.3,1.6,0c0.2-0.3,1-0.3,1.1,0.5c0,0.7,0.3,1.2,0.8,2.1c0.3,0.8,1,1.6,1.2,3.3
		c-0.1,1.9,0.3,2.9-0.7,2.8c-0.7-0.8-2.1-2.3-3.1-2.8c-1.6-0.2-2.4-1.3-2.4-2.1c0.2-1,0-2.9,0-2.9L173.5,425.6z"/>
	<path class="st1" d="M169.1,425.4c0,0,0.8-1.4,1.4-1.7c0.6-0.3,0.5-0.3,1.4,0.4c0.9,0.8,0.8,1.4,0.7,2.7c-0.3,0.7-0.7,0.9-1.1,0.6
		c-0.4-0.3-1.4-1-1.9-1C169.1,425.9,169.1,425.4,169.1,425.4z"/>
	<path class="st1" d="M168.7,426.9c0,0,0.5,0,1.2,0.3c0.9,0.5,1.8,0.4,2.1,1.6c0.2,1.8,0.4,2.1-0.3,3.2c-0.4,0.9-0.2,1.1-1.2,0.5
		c-1.5-0.5-2.5-0.9-3-1c-0.3-1.2-0.3-0.7,0-2.1C168.2,427.8,168.7,426.9,168.7,426.9z"/>
	<path class="st1" d="M164.1,426.9c0,0,0-1.3,0.8-1.5c1,0.1,2.4-0.3,2.7,0.7c-0.2,1.6,0,1.6-0.5,3.1c-0.5,1.1-0.5,2-0.5,2.2
		c-0.4,0.6-1,2.4-2.2,1c-0.9-0.5-0.9-0.8-1.5-1c-0.6-0.3-0.9-0.6-0.4-1.2c0.8-1,1.4-1.6,1.4-2.1
		C164.1,427.7,164.1,426.9,164.1,426.9z"/>
	<path class="st1" d="M163,422.9c0,0-0.4-1.6-2.2,0c-1.5,1.2-3.4,2.6-2.5,3.6c0.6,0.9,1.2,1.2,1.5,2.2c0.1,1.2-0.4,1.9,0.2,2.5
		c0.8,0.4,1.2,0.1,1.5,0c0.3-0.1,0.8-1.4,1.2-1.9c0.8-1.1,0.8-1.7,0.8-2.5c0.4-1.3,0.6-2,0.5-3.2C163.3,423.1,163,422.9,163,422.9z"
		/>
	<path class="st1" d="M180,431.3c0,0,0.6-0.3,1.2,0c0.8,0.3,0.8,0.1,1.2,1c0.1,1,0.4,1.8,0,1.9c-0.8-0.2-1-0.7-1.6-0.6
		c-0.8,0.3-1,0.3-0.9-0.3C180.1,432.6,180,431.3,180,431.3z"/>
	<path class="st1" d="M165.5,435.7c0,0,0.6-1.3,0.7-1.7c0.1-0.8,0-1.6,1-1.6c1.5,0.3,3.5,0.2,3.8,1.9c-0.2,1.5,0.6,5.9-2.7,5.1
		c-1.9-0.5-2.2-0.8-2.8-0.7c-0.6,0.1-1-0.7-0.8-1.4C164.9,436.5,165.5,435.7,165.5,435.7z"/>
	<path class="st1" d="M160,432.8c0,0,1.6-1.1,2.3-0.7c0.9,0.7,3,1.4,2.7,2.7c-0.2,1-1,2.7-1.1,3.4c-0.4,1,0,1.6-1.4,1.4
		c-1.1-0.7-3.1-0.9-3.7-1.3c-0.4-0.8-0.7-1-0.3-2.4C158.8,434.3,160,432.8,160,432.8z"/>
	<path class="st1" d="M171.9,436.5c-0.4,3.3,2.9,0.5,4,0.6c-0.4,0.4-0.6,1.1-1,1.4c-0.6,0.5-1.2,0.2-1.9,0c-0.5-0.1-1.4-0.2-1.6-0.7
		c-0.2-0.5,0.4-1.4,0.8-1.3H171.9z"/>
	<path class="st1" d="M178.5,435.7l1.8-0.8c0,0,2,0.3,2.3,0.8c0.3,0.4,1.1,2.6,0.9,3.4c0,0.8-1,1.1-1.9,1c-1.2-0.1-2.8,0.6-3.8,0
		c-0.9-0.8-1.1-0.9-0.8-1.7C177.7,437.3,178.5,435.7,178.5,435.7z"/>
	<path class="st1" d="M150.9,456.2c0,0-0.4,0.4,0,0.7c0.4,0.4,1.7,0.2,2,0.2s1.3,0.2,1.7,0.4c0.4,0.2,2.2,0.5,2.6-0.6
		c0.1-1.5,1.1-3.8,1.3-5.4c0.9-1.8,1.9-4.5,2.5-5.5c0.6-1.9,1.5-3.9,2.1-5c-0.2-1.1-0.4-1-1.1-1.3c-1-0.3-2.9-0.8-2.9-0.8
		s-0.6-1-1.6,0c-0.6,1.1-2.9,5.7-3.2,6.6c-0.3,1.1-0.6,3.6-0.8,4.4c-0.4,1.2-1.5,4.6-1.8,5.1C151.3,455.4,150.9,456.2,150.9,456.2z"
		/>
	<path class="st1" d="M164.6,439.6c0,0,0.9-0.5,1.3-0.4c0.8,0.4,2.5,0.6,3.1,0.7c0.7,0,1,0.3,1.1,0.9c0.3,1,0.7,0.7-0.4,2.7
		c-0.6,1.8-2,8.1-1.9,9.5c-0.3,2.1,0.6,4.4,0.3,5.2c-0.5,0.5-0.3,0.4-1.3,0c-1.3-0.2-3.6-0.3-4-0.2c-1-0.2-1.3-0.9-1.1-1.8
		c0.3-0.9,1.2-4.8,1.6-5.8c0.4-1.6,0.6-4.3,0.7-4.7c0.1-0.5,0.3-2.9,0.2-3.5c-0.1-0.6,0.5-2.3,0.5-2.3V439.6z"/>
	<path class="st1" d="M170.9,440.4c0,0-0.3-0.7,0.5-0.8c0.7,0.1,1.9,0.1,2.4,0.4c0.7,0,1.6-0.1,2.1-0.4c0.5,0.3,0.9,1,1,1.7
		c0,1.4,0.2,4.7,0.5,6.1c-0.1,2-0.2,3.7,0,5.2c0.3,1.4,0.8,3.1,0.7,3.8c-0.8,0.7-0.9,1-1.8,1.1c-1.4-0.1-3.1,0.6-3.8,0
		c-0.4-0.9,0-2.4,0.2-3.1c0.2-0.8,0.1-4.9,0-6.1c-0.1-1.1-0.5-4.2-0.7-4.5C171.8,443.5,170.9,440.4,170.9,440.4z"/>
	<path class="st1" d="M178.1,441.6c0,0-0.5-1,0.6-1c1,0.2,2.6,0.2,2.6,0c0.4-0.2,1.4-0.3,1.9-0.3c0.4,0.7,0.5,1.6,0.7,4.3
		c0.2,2.6,1.2,6.1,0.6,8.8c-0.1,1.7,0.3,2-0.5,2.7c-1,0.1-1.5-0.2-2.2,0c-0.6,0.2-1.3,0.7-1.6-0.4c-0.2-1,0-2.6,0-2.9
		c0-0.3-0.3-4.8-0.6-5.3c-0.2-0.5-0.6-3.6-1-4.1C178.3,443.2,178.1,441.6,178.1,441.6z"/>
	<path class="st1" d="M160.8,466.6c0,0-0.7-2.2,1-2.1c1.3,0.4,2.4,0.5,2.7,0.4c0.4-0.1,1.3-0.3,2.1-0.7c0.8,0.3,0.6,0.5,0.8,0.9
		c-0.2,0.8-0.2,2.7-0.6,4.6c-0.2,1.8-0.6,3.6-0.5,5.1c0.1,1.5,1,2.8,0.5,3.4c-0.6,0.6-0.8,0.6-1.9,0.4c-1.1-0.2-2.9-0.4-3.3-0.2
		c-0.4,0.2-0.9,0.3-0.9-1.2c0-1.5,0.3-2.3,0.4-2.6c0.1-0.3,0.4-3.5,0.4-3.8c0-0.4-0.3-3.7-0.3-3.7
		C161.1,467.2,160.8,466.6,160.8,466.6z"/>
	<path class="st1" d="M171.9,463.5c0,0,0-1.9,1.1-1.3c1,0.3,1.7,0.3,2.2,0.2s1.2-0.5,1.6,0.2c0.3,0.8,2.3-2.2,0.3,2.8
		c-0.4,2.4-1.2,5.6-1.1,6.5c0.1,0.9,0.3,3.2,0.4,3.8c-0.4,0.7-0.5,0.8-1.4,0.7c-1.1-0.5-2.6-1.2-3.3-0.8c-0.8,0.1-1.7,0.2-1.1-1.3
		c0.7-1.5,1.2-3.3,1.3-4.2c0.1-0.8,0.3-3.2,0.2-3.8C171.7,465.5,171.9,463.5,171.9,463.5z"/>
	<path class="st1" d="M179.9,462.6c0,0-0.6-1.6,0.5-1.8c1.2,0,3.2,0,3.2,0s1.9-0.7,1.8,0.3c-0.5,1.3-0.8,3.8-1.1,5.3
		c-0.3,1.5-0.6,3.7-0.6,3.7s-0.1,1.4,0,2.1c-0.8,0.3-0.9,0.3-2,0c-0.9,0.1-2.6,0.8-2.9-0.3c0.5-1.5,1.1-4.3,1.1-4.7
		C180,466.6,179.9,462.6,179.9,462.6z"/>
	<path class="st1" d="M172.1,457.7c0,0,0.4,0.4,0.6,0.4c0.2,0,1.6,0,2.3-0.2c0.9,0,2.3,0,2.5-0.2c0.3-0.3,0.5-0.7,0.6-0.7
		c0.4,0.1,0.7,0.8,0.7,1.5c-0.2,0.8-0.3,2.6-0.7,3c-0.8,0.5-1.5-0.1-1.7,0c-0.4,0.3-1.4,0.7-1.9,0.5c-0.7-0.2-2.2,0.1-2.8-1.1
		c0-1.5-0.1-2.3,0-2.5C171.8,458.3,172.1,457.7,172.1,457.7z"/>
	<path class="st1" d="M179.8,458.2c0,0-0.3-1.9,1.1-1.3c1.2-0.3,1.9-0.7,2.4-0.6c0.7,0.1,0.9-0.4,1.4,0c0.4,1.1,1,2.8,0.8,3.4
		c-0.7,0.4-1,0.5-2,0.6c-1,0.1-3.3,0.5-3.4,0C179.7,459.4,179.8,458.2,179.8,458.2z"/>
	<path class="st1" d="M161.6,458.5c0,0-1.5,2.2-0.6,5c1.1,0.7,2.5,1,3.1,1.1c0.9-0.1,2.2-0.6,2.8-0.9c0.7-0.5,1.8-1.2,1.1-4.2
		c-0.5-0.7-1.2-1-2-1.1c-0.7-0.1-3.2,0-3.2,0L161.6,458.5z"/>
	<path class="st1" d="M159.3,480.7c0,0,1.2-1.8,2.7-1.9c1.2,0.1,2.6,0.2,2.8,0.3c0.6,0.3,1.1,0.4,1.3,2.1c-0.4,1.4-0.6,2.2-1.6,2.2
		c-1.4-0.4-3.3-0.7-3.8-0.5c-0.9-0.1-1.4-0.6-1.4-1.4C159.3,480.7,159.3,480.7,159.3,480.7z"/>
	<path class="st1" d="M159.3,484.4c0,0,1.1-1.3,2.7-0.9c1,0.2,1.7-0.1,2.3,0.4c0.2,1.3,0.3,1.4-0.5,3.5c-0.4,2,0,2.1,0,3
		c-0.2,1.3,0.1,1.2-0.8,1.5c-1-0.1-1.9-0.3-1.9-0.3s-1,0.4-1.7-0.3c-0.2-1.6-0.3-1.4,0-2.8c0.3-1.5,0.4-2.8,0.3-3.2
		C159.4,484.8,159.3,484.4,159.3,484.4z"/>
	<path class="st1" d="M159.3,496.2c0,0-0.4-3,0-3.7c0.3-0.7,0.6-0.8,1.1-0.7c0.8,0.2,2.1,0.5,2.5,0.5c0.2,1.2-0.1,1.4,0,2.8
		c0.1,1.4-0.1,1.7-1.2,1.9c-1.1,0.2-2.8,0.2-2.6-0.3C159.3,496.2,159.3,496.2,159.3,496.2z"/>
	<path class="st1" d="M158.9,497.7c0,0,0.5-0.5,1.1-0.3c0.8,0.2,2.4-0.3,2.4,0.7c-0.3,1.2-0.5,1.1-0.6,1.7c-0.1,0.6-0.2,2.9-1.6,2.7
		c-1.4-0.3-1.2-1.7-1.3-2.6C158.8,499.1,158.9,497.7,158.9,497.7z"/>
	<path class="st1" d="M166.8,500.7c0,0-1.1-2.9-0.7-3.6c0.4-0.6,1-0.8,1.7-0.7c0.8,0.2,2.1,0.1,1.9,1.3c-0.5,1.2-1.2,2.7-1.9,2.9
		C167.2,501,166.8,500.7,166.8,500.7z"/>
	<path class="st1" d="M166.6,495.4c0,0-0.4,0.7,0.5,0.6c1,0.1,2.3,0.3,2.7,0.7c0.6-0.5,1.5-2.2,1.5-2.7c-0.4-0.5-1.2-0.5-1.5-0.4
		c-0.6-0.1-1.6-0.5-2.1-0.8c-0.6,0.4-0.7,0.3-0.8,1.1C166.7,494.6,166.6,495.4,166.6,495.4z"/>
	<path class="st1" d="M167.5,491.3c0,0-0.1,1.2,1.4,1.5c0.7,0.3,2.3,0.7,2.5-0.4c0.1-1.3,0-2.3-1.4-2.6c-1.7,0-2.5,0.5-2.6,0.9
		C167.4,491,167.5,491.3,167.5,491.3z"/>
	<path class="st1" d="M170,479.5c0,0,1.4-0.8,2-0.7c0.6,0.2,2.2,0,2.1,0.7c-0.2,1.1-0.5,2.6-1.3,4.4c-0.5,2.1-0.6,2.8-0.8,3.7
		c-0.4,1-0.3,1.3-1.1,0.9c-0.8-0.4-1.5-0.1-2.1-0.3c-0.4-0.8-0.4-1.2,0-2.2c0.4-0.9,0.7-2.8,0.7-3.6c0-0.8-0.1-1.7,0-2.2
		C169.6,479.8,170,479.5,170,479.5z"/>
	<path class="st1" d="M169.9,479c0,0-0.2-2.2,0.3-2.8c0.7-0.3,1.7-0.5,2-0.5c0.5,0.3,2.3,0.8,2.5,0.9c0.2,0.7,0.2,1.6-0.1,2.2
		c-0.4,0.1-1.3-0.1-1.7-0.3c-0.4-0.2-1.4-0.2-1.7,0c-0.3,0.2-1.1,0.4-1.1,0.4H169.9z"/>
	<path class="st1" d="M179.1,473.5c-0.1-0.1-0.1-1,1.7-1.1c0.7,0,1.9,0.1,2.2,0.2c0.1,0.9,0.1,1.4-0.5,2.5c-0.9,0.2-1,0.7-2.1,0.4
		c-1.3-0.3-1.6-0.4-1.6-1.3C178.8,473.2,179.1,473.5,179.1,473.5z"/>
	<path class="st1" d="M178.2,475.6c0,0,0.8-0.5,1.4,0c0.6,0.3,1.4,0.5,1.8,0.4c0.5,0.1,1-0.3,0.4,1.2c-0.5,1.2-1.4,5.5-1.3,6.2
		c0,0.9-0.3,1.6-0.9,1.4c-0.8-0.2-2.3-0.4-2.9-0.2c-0.6-0.5-0.6-1.5-0.3-2c0.3-0.5,0.8-2.1,0.9-2.5c0.1-0.4,0.6-2.4,0.6-3
		c0-0.7,0-1.4,0-1.4L178.2,475.6z"/>
	<path class="st1" d="M176.8,485.3c0,0,0.8-0.5,1.3-0.5c0.5,0.1,2.5,0.3,2.1,1.2c-0.3,0.9-0.2,1.3-1.1,1.4c-1.2,0.1-2.3-0.1-2.3-0.5
		c-0.1-0.4-0.1-1.2-0.1-1.2L176.8,485.3z"/>
	<path class="st1" d="M176.7,488.1c0,0,0.1-0.8,0.9-0.6c0.8,0.2,1.3,0.3,1.8,0.3c0.4,0.5,0.6,0.6,0.4,1.5c-0.3,1.3-0.6,2.6-1.5,2.8
		c-1-0.4-1.4-0.9-1.6-2C176.5,489.1,176.7,488.1,176.7,488.1z"/>
	<path class="st1" d="M271.2,156.8c0,0-1.3-2.1,2.5-2.2c2-0.4,4.6-1.9,5.8-2.9c1.2-1,3.2-1.7,3.9-1.9c1.3,0.3,1.8-0.4,5.8,1.3
		c1.2,0.4,1.9,0.6,2.9,0.1c1.1-0.9,1.8-2,2.9-1.4c1,0.5,2.5,1.1,2.6,2.8c-0.4,1.2-0.4,1.5-1.5,2.3c-1.1,0.8-3.2,1.8-4.1,1.5
		c-0.9-0.3-4.5-1.3-6.6-2.4c-0.8-0.2-2,0.5-2.7,0.9c-0.8,0.5-3.7,2.4-5.2,2.7c-1.5,0.3-3,1-4.6,0.4
		C271.3,157.5,271.2,156.8,271.2,156.8z"/>
	<path class="st1" d="M275.7,165.8c0,0,0.8-1.1,2-1.1c1.1,0,1,0.5,1.8,1.1c0.8,0.6,9.1,3.1,10.6,2.5c1.4-0.6,0.6-1.1,2.2-0.6
		c1.5,0.5,5,0.8,4.4,3.9c-0.7,2.3-0.2,2,0,2.5c-0.3,1.2,0.4,2.7-1.6,2.9c-2.1,0.2-3.6-0.1-5.1-1.5c-2.1,0.2-5,0.8-6.7-0.6
		c-1.6-1.4-5.1-4.1-6.7-5.4c-1.2-1.6-0.9-1.7-0.8-2.3C275.8,166.4,275.7,165.8,275.7,165.8z"/>
	<path class="st1" d="M258.9,164.7c0,0-6.5,7.2,2.7,14.4c9.2,7.2,27.8,7.6,30.4,6.6c1.5-1.4,2.4-5,1.5-5.8c-0.8-0.8-1.8-0.9-3.3-0.6
		c-1.4,0.3-15.4,2.3-23.3-4.2c-2-1.6-3.2-3.7-3.7-5.5c-0.4-1.8-0.7-3.1,0.3-3.7C264.5,165.2,258.9,164.7,258.9,164.7z"/>
	<path class="st1" d="M256.2,173.4c0,0,2.5,4.6,4.6,5.8c-1.1,0.6-3.2,2.1-3.1,3c0.4,1.2,6.9,5.9,9.9,7.1c3,1.3,10.8,5.8,12.6,5.8
		c1.8,0,8.9,0.5,10.5,0c1.7,0.9,1.8,3.3,1.3,5.2c-1.8,1.1-8.6,2-14.2-0.6c-4.6-2-9.4-3.5-11.5-4.2c-2.7-1.3-12-4.9-14.6-11.5
		c-1-4.3,0.1-7.6,1.6-8.7C254.9,174.2,256.2,173.4,256.2,173.4z"/>
	<path class="st1" d="M250.6,183l0.7,1.6c0,0,1,2.1,1,2.7c-0.6,1.1-3.7,4.1-2.3,7.4c1.4,2,6.2,7.5,10.4,8.8c2.3,1.3,6.6,3.4,9.2,3.8
		c3.8-0.4,9.9-0.1,13.3-1.4c4.4-1,6.2-1.6,7.2-0.1c0.6,2.1,1.2,4-1,5.3c-2.5,0.5-7.4,0.8-10.2,1.2c-2.8,0.4-6.6,2-12.2,0
		c-5.5-1.4-11.8-3.1-14.9-6.1c-2.7-2.5-7.7-5.1-8-11.6c0-2.9,0.8-6.5,2.5-8C248.1,185.3,250.6,183,250.6,183z"/>
	<path class="st1" d="M244,197.8c0,0,1.2,3.5,2.4,4.5c-0.6,1.7-2.7,5.7,1.1,10.1c2.2,2.4,8.2,7.2,14.4,9.1c4.1,1,5.6,1.7,7.7,1.4
		c2.9-0.3,8.2-2.2,10.1-2.7c2.9-0.9,8.8-2.8,9.4-3c1,0.1,2.6-0.5,2.3,2.4c-0.7,2.9,0.4,4-2.2,4.4c-2.6,0.4-14.4,4.4-15.8,4.4
		c-2,0.1-6.2-1.2-7.2-1.5c-1-0.3-11.8-2.7-14.8-5.3c-1.9-0.8-8.4-3.7-10.1-7.3c-1.6-3.6-2.5-7.3-1.3-10.3
		C241.1,201.1,244,197.8,244,197.8z"/>
	<path class="st1" d="M239.4,212.2c0,0,1.3,4.2,2.4,4.8c-0.6,1.7-1.8,7.5,2.2,10.5c4,3,13.4,8.2,19.3,8.9c5.4,1.1,11.7,1.2,14.4,0
		c2.7-1.2,8.6-5.3,9.9-6.3c1.7-0.5,4.2-2.5,3.8,0.5c-0.5,2.8,0.8,2.6-0.5,3.8c-1.3,1.2-2.2,2-5,3.4c-2.8,1.4-5.2,4.2-8.5,5
		c-3.3,0.8-9.4,0-11.9-0.4c-2.5-0.4-13.7-4.2-15.5-4.7c-1.7-0.5-11.8-7.1-13.1-10.6c-0.9-4.3-1.2-7.7,0-10
		C238,215,239.4,212.2,239.4,212.2z"/>
	<path class="st1" d="M236,227.7c0,0,2.7,2.7,3.5,3.6c-0.4,2.4-1.1,8.1,1.4,10.3c2.9,2.7,16.4,10,20.2,10.1c2.5,0.2,6.2-0.4,8.4-2
		c3.1-2.2,5.2-4.4,6-4.8c0.7-0.4,2.4-1.2,3.2-1.7c0.8-0.5,10.1-6.6,11.1-6.8c1.3-0.7,2.5-0.9,3.1-0.2c-0.2,1.2-0.3,2.3-2,3.5
		c-1.7,1.2-10.3,8.4-12.1,10.4c-2.1,1.7-6.8,5.7-10.1,6.4c-3.3,0.6-9.1,0.3-13.2-1c-4.1-1.3-13.2-6.7-14.6-7.4
		c-1.4-0.7-4.4-2.3-6.2-7c-1.8-4.7-2.6-6.9-0.9-10.5C235.3,227.1,236,227.7,236,227.7z"/>
	<path class="st1" d="M237.8,247.1c-0.5-0.4,2.3,1,3.5,2.7c-0.8,2.7-1.7,3.8-1.4,4.6c0.7,1.3,6.6,7.6,13.7,8.4
		c4.9,1.2,6.2,1.7,9.3,0c3.9-2.4,9.7-6.2,11-7.4c1.3-1.2,5.1-4.4,5.1-4.4s4.1-3.2,6-3.2c2.8-0.1,5.4,0,7.3-1.3
		c1.8-1.3,4.3-3.2,4.3,0c-1,2.5-0.4,3.5-2.2,3.7c-3.4,0.1-8.3,0.8-10.2,1.7c-3.3,2-11.3,8.2-13.8,10.9c-3.8,3-6.5,5.4-8.6,6
		c-3,0.5-5.5,1.3-6.9,0.9c-1.7-1.2-5.4-1.6-7.1-2.9c-1.6-1.2-7.3-4.5-9.1-5.3c-2.2-2.3-3-2.1-3.2-4.2c-0.2-2.2,0.8-7.1,1.3-8.3
		C237.4,247.9,237.8,247.1,237.8,247.1z"/>
	<path class="st1" d="M238.6,262.2c0,0,3.7,1.8,4.6,2.6c-0.4,2-1.4,2.6-1.2,4c1,2.3,6,6.6,7.6,6.9c2.5,0.4,3.9,0,5.4-1.1
		c2.6-1.6,6-4.6,6.8-4.7c1.5-0.4,7.1-4,8-4.7c1.5-1.2,5.1-4.7,7.3-4.8c2.8-0.5,7.9-1.7,10-2.2c2.6-0.8,4.1-2.2,5.9-2.7
		c1.5,0.3,2.8,2.2,1.7,4.5c-1.1,1.7-2.2,1.7-4.8,2.3c-4.5,0.9-11.7,2.4-16.7,6c-5,3.7-14.7,10.7-15.6,11.9c-2.2,1.7-3.9,2.5-6.6,2.1
		c-3-1.2-7.2-2.4-10.6-7.1c-3.3-3.9-5.4-5.7-4.3-9.2C237.1,264.3,238.6,262.2,238.6,262.2z"/>
	<path class="st1" d="M239,275.3c0,0,3.7,3.6,4.6,4.5c-0.2,2-1,8.4,2.8,10.8c2,1,2.8,2.1,4.5,0c1.7-2.6,2.5-6.4,3.1-7.3
		c1.5-1.3,4.3-2.5,5-2.8c0.5,1.5,0.1,14.3-9.2,18.4c-3.4,0-8-1-10.9-7c-1.1-4.5-0.6-6.3-0.7-8.7C238,280.7,239,275.3,239,275.3z"/>
	<path class="st1" d="M246.3,298.9c0,0,2.9,1.1,3.1,0.5c-0.8,2.9,0.1,3.2-0.8,4.6c-1.9,0.9-2.1,1.2-2.3-0.3c-0.2-1.5,0-3.7,0-3.7
		V298.9z"/>
	<path class="st1" d="M294.9,268c0,0,2.9,2.2,0.5,4.8c-3.3,2.7-12,7.5-16.3,11.5c-4.9,4.3-9,6-12.1,11.9c-2.7,5.1-6,8.3-6.8,8.8
		c-0.9,0.5-3,2.1-2.9-1.9c1.5-3.8,4.3-8,4.8-10.2c2.4-3.3,5-7.6,7.4-8.9c2.8-2.3,7.6-5.6,10-7c2.8-1.8,12.8-7.5,13.3-8.2
		C293.3,268.2,294.9,268,294.9,268z"/>
	<path class="st2" d="M250.7,387.8c0,0-2.5-3.3-3.6-0.3c-0.9,2.8-1.6,3.4-0.8,4.2c1,0.8,4.1,4.9,4.6,6.2c1,1.3,3.2,4.7,4.6,5.7
		c1.6,0.9,2.9,1,3.8,0c0.9-1,1.4-1.3,1.3-3.3c-0.1-2-2.4-8.1-3.8-9.3C255.5,389.7,250.7,387.8,250.7,387.8z"/>
	<path class="st2" d="M243.2,392c0,0,8.3,9.9,10.1,12.3c-1.9,2.9-6.6,3.7-5,5.3c1.9,3.3,6.9,10.2,5,11.5c-1.9,1.3-3.7,8.4-4.8,13.9
		c1.3,7.9,9.5,58.6,15.3,67.5c4.1,9.4,7.5,33.2,9.9,36.9c2.4,3.7,5.4,15.6,9,20.5c4,7.4,6.5,9.4,5.7,11.9c2.3,6.8-1.3,14,0.2,16
		c-2.6,2.9-7.5-12.7-7.5-15.6c-2.5-2.9-7.3-6.2-7.3-6.2s-8.7,0-9.9,1.6c-2.5,4.9-5.7,16.4-5.3,18.1c-2.1,3.3-3.7,4.8-4.5,3.2
		c-0.8-1.6-3-10.4-2.1-14.9c1-4.5,6.7-8.2,6.4-9.6c-1.1-5.9-6.4-41.8-10.5-59.2c-3.7-9.9-7.4-36.9-9.4-44.7
		c-2.1-9.1-4.9-18.9-7.4-26.3c-2.9-7.8-7-11.9-7.8-17.1c2.9-6.4,5.3-12.5,4.9-12.9c-0.4-0.4-0.5-8.2,5.1-12.3c4,3.3,1.9,2.5,4,3.3
		C240.8,394,243.2,392,243.2,392z"/>
	<path class="st2" d="M264.4,568.7c0,0,6.1-2.3,8.8-1.7c1.9,1.2,6.6,4.7,7,5.5c0.4,2,1.9,10.5-7.9,15.5c-2.7-1.2-6.7-6.2-7.6-12
		C264.2,571.1,264.4,568.7,264.4,568.7z"/>
	<path class="st2" d="M263.1,572.8c0,0,1.8,14,7.3,15.7c-2.1,1.4-10.9,5.9-15.5,3.2c0.3-1.6,1.2-2,2-2.5c0.9-0.8,2.7-2.9,2.9-3.8
		c0.2-0.8,1-8.7,2.2-10.5C262.3,574,263.1,572.8,263.1,572.8z"/>
	<path class="st2" d="M276.1,588.2c0.1-0.3,5.5-6.4,5.7-7.9c0.4-1.3,0.7,0,0.9,0.5c0.3,1.2,2.2,6.8,4,8.2c0.2,1.2-0.1,1.1-1.3,1.4
		c-1.2,0.3-7.5-0.2-8.8-1.5C275.3,587.7,276.1,588.2,276.1,588.2z"/>
	<path class="st2" d="M254.9,594.8c0,0,13.6-1.6,15.5-4.2c3.8,1.3,14.7,2.6,16.3,2c2.2,1.9,2.9,2.8,2.4,5.2
		c-2.4,3.4-5.4,7.7-5.7,10.8c-0.6,4.6-2.4,28-2.1,35.1c-0.1,10.5,0.7,29.6,0,36.6c0.9,9.9,1.5,29.2,3.3,38.2
		c1.2,10.2,2.6,19.4,4.7,22.8c2.1,5.8,4.6,11.1,4.6,15.4c-0.9,4.9-0.9,4.9-2.2,3.1c-1.2-1.8-4.9-4.9-6.5-4.6c-1.5,0.3-8.3,0-8.9-0.6
		c-2.5,0.9-4.9,0-4-3.1c0.9-3.1,2.3-6.8,2.1-8.3c-0.2-1.5,0.6-6.1,0.7-8.1c0.5-5.4,0.2-6.7,0.5-11.6c0.2-2.6-2.8-19.5-4.4-37.1
		c-1.5-15.9-1.8-21.9-1.4-31.6c0.4-9.8-3.1-30.6-4.9-35.5c-1.8-4.9-2.2-9-4.4-12.7c-0.8-1.4-3-1.3-4.3-3.8
		C254.8,600.2,254.9,594.8,254.9,594.8z"/>
	<path class="st2" d="M253.1,605.7c0,0,1.5-2.8,3.5-0.6c2.2,1.4,2.5,1.6,3.4,1.8c0.5,1.2,1.8,2.6,1.5,6.2c-0.7,3-2.5,17.9-0.5,25.7
		c0.5,6.1,3.2,32.5,3.8,37.6c0.2,6.4,1.2,17.6,1.9,20.3c0.7,3.7,1.4,12.1,2.4,17.2c0.9,5.1,2.3,18.8,2.6,21
		c0.3,2.3,1.3,8.1,0.7,10.7c-0.6,2.6-1.5,7.7-2,9.9c-0.6,3.1-1.7,7,0.2,8.1c-0.1,2.2-0.6,2.9-2,1.3c-1.3-1.5-4-3.1-2.4-10.8
		c1.1-5.2,2.9-3.6,2.4-7.9c-0.8-6.4-3.2-17.4-3.5-22c-0.4-5.4-3.7-21.8-4.1-26.3c-0.2-5.2-1.3-22.1-1.7-24.2
		c-0.4-2.2-2.5-18.7-2.7-21.8c-0.4-3.9-1.8-25.9-2.5-27.1c-0.6-1.2-4.1-9.2-3.8-11.2c0.3-2,2-6.4,2.1-6.7
		C252.5,606.7,253.1,605.7,253.1,605.7z"/>
	<path class="st2" d="M270.4,759.9c0,0-0.4-3.6,2.9-3.7c2.7-0.1,4.9,0.4,6.2,0.9c1.8-0.1,7.3-1.7,9.5,1c1.9,3.2,2.7,3.9,0.5,6
		c-1.6,1-6.1,0.3-7.4-0.6c-2-0.9-6.1-1.2-7-0.5c-2.2,0.8-4.8,0.4-4.7-1.3C270.4,759.9,270.4,759.9,270.4,759.9z"/>
	<path class="st2" d="M269.1,770.2c-0.1-0.3,0.3-3,0.8-3.7c0.8-1.1,0.5-1.9,1.2-2.3c1-0.1,1.9,0.2,3.3,0c1.5-0.5,4.8-1.5,6.2,0
		c-0.2,0.9-0.1,1.5-1.5,1.9c-1.4,0.4-2.9,2.1-4.7,2.7c-1.1,0.8-1.1,1.8-3,2C269.6,770.9,269.1,770.2,269.1,770.2z"/>
	<path class="st2" d="M277.9,769.8c0,0-0.6-1.1,0-2c0.8-0.3,3.5-2.1,3.6-2.8c1.1-0.3,1.7-0.6,3.8,0.7c1.1,0.8,2.7,1.6,2.4,2.5
		c-1.3,0.7-1.4,0.8-2.5,0.5c-1.1-0.2-1.8-0.8-2.4-0.6c-0.6,0.2-2.3,0.9-2.9,1.2C279.2,769.7,277.9,769.8,277.9,769.8z"/>
	<path class="st2" d="M265.5,773.6c0,0,1.1-1.8,1.9-2.2c0.9-0.4,1.1-0.9,2-0.6c0.8,0.2,1.7,0.5,2.5,0.3c0.7-0.3,1.5-0.6,2.1-1.2
		c0.6-0.7,2-1.3,2.6-1.2c0.4,0.7,0.9,0.8,0.2,2.1c-0.7,1.4-0.3,2-0.9,2.3c-1.4-0.1-2.6-0.1-3.2,0.6c-1,0.1-1.3,0.2-2.2,0
		c-1.3,0.2-2.9,0.5-3.4,0.8c-1.2,0.3-1.9,0.2-1.7-0.5C265.4,773.2,265.5,773.6,265.5,773.6z"/>
	<path class="st2" d="M277.1,772.4c0,0,3.4-2.8,5.6-3.4c2,0.5,6,0,8.2,3.1c-0.1,0.9-0.3,1.8-1.4,1.8c-1.3-0.6-3.1-1.1-4.1-1.4
		c-0.9-0.3-3.1-0.1-3.7,0.1c-0.6,0.2-3.3,1.3-4,1.3c-0.5-0.8-0.5-0.8-0.5-0.8L277.1,772.4z"/>
	<path class="st2" d="M277.7,776.3c0,0,2.9-0.5,4,0c1-0.4,2.1-1.7,2-2.1c-0.9-0.7-1.5-1.4-2.2-1.1c-1.5,0.5-3.4,1.2-3.8,1.5
		c-0.4,0.7-0.5,1.2-0.2,1.5C277.7,776.3,277.7,776.3,277.7,776.3z"/>
	<path class="st2" d="M282.7,778.6c0,0-0.7-0.6,0-1.5c0.2-0.9,1-1.9,2-2.5c1.6-0.7,1.8-2.1,6.1,0.8c0.5,1.7,0.5,1.6,0.2,2.8
		c-0.1,1.5-0.4,2.4-1.5,1.7c-1.2-0.8-2-1.6-2.8-1.5c-0.9,0.4-2,1.4-3.2,1.1C282.7,778.6,282.7,778.6,282.7,778.6z"/>
	<path class="st2" d="M272.1,774.7c0,0,1.1-1,2.2-1c1.3,0,1.8,0.2,2.1,0c0.4,0.6,0.8,0.5,0.4,1.6c-0.4,1.4-0.1,1.5-0.6,2
		c-1.7,0.1-1.8,0.2-2.6,0c-1.2,0.2-2.6,1-1.8-0.9c0.5-0.8,0.5-1.2,0.5-1.2L272.1,774.7z"/>
	<path class="st2" d="M267,775.6c0,0-1.1,1.7-1.2,2.4c0.4,0.6,0.6,0.6,1.6,0.3c1.6-0.1,2.3,0.5,2.7,0.2c0.8-1.4,0.6-1.9,1-2.3
		c0.4-0.7,0.9-1.2,0.3-1.6c-1.1-0.3-2.3-0.4-3,0.1C267.4,775,267,775.6,267,775.6z"/>
	<path class="st2" d="M264.4,775.6c0,0,1-0.9,2-0.7c-0.1,0.5,0.1,0.5-0.6,1.5c-0.4,1.3-0.3,2-0.9,1.9c-1-0.3-1.3-0.5-1.1-1.4
		C264.1,775.9,264.4,775.6,264.4,775.6z"/>
	<path class="st1" d="M288.1,102.2c0.3,0-0.2,2.8-0.2,3c0,0.2,0,0.5-0.3,0.5c-0.2-0.6-0.4-0.5-0.4-1.2c0-0.9,0.2-2.8,0.3-2.9
		c0-0.1,0.5,0.2,0.5,0.2L288.1,102.2z"/>
	<path class="st2" d="M319.8,104.8C319.8,104.8,319.8,104.8,319.8,104.8C319.8,104.8,319.8,104.8,319.8,104.8z"/>
	<path class="st2" d="M332.1,89.6c-1.9,2.1-6.3,0.8-8-0.7c-0.4,7.2-0.3,9.8-0.3,9.8l0.1,2.3c0,0-0.1,1.5-0.3,1.8
		c-0.2,0.3-0.8,0-0.8,0s0.1,0.7-0.6,1.5c-0.6,0.4-1.1-0.4-1.1-0.4s0.1,1.2-0.5,1.3c-0.5,0.1-0.7-0.2-0.8-0.4c0,0.1,0.2,0.6-0.3,1.1
		c-0.7,0.1-0.8-0.3-0.8,0c0,0.3-0.5,0.9-0.5,0.9l-1.3-0.3c0,0-0.1,0.7-1,1.2c-0.6-0.1-0.8-0.4-0.8-0.4s-0.1,0.7-0.7,1.4
		c-0.8,0.3-1.5-0.7-1.5-0.7s-0.2,1.1-1.1,1.6c-0.9,0.5-1.9-0.4-1.9-0.4s-0.3,1-1.2,1.6c-0.9,0.5-1.8-0.8-1.8-0.8s-0.9,1.4-1.6,1.4
		c-0.4-0.1-1.6-1-1.6-1s-1.6,1.1-2,1.1c-0.7-0.1-1.6-1.4-1.6-1.4s-0.9,1.4-1.8,0.8c-0.9-0.5-1.2-1.6-1.2-1.6s-1.1,0.9-1.9,0.4
		c-0.9-0.5-1.1-1.6-1.1-1.6s-0.7,1-1.5,0.7c-0.6-0.7-0.7-1.4-0.7-1.4s-0.2,0.3-0.8,0.4c-0.8-0.5-1-1.2-1-1.2l-1.3,0.3
		c0,0-0.5-0.6-0.5-0.9c0-0.3-0.1,0.1-0.8,0c-0.4-0.5-0.3-1-0.3-1.1c-0.1,0.1-0.2,0.4-0.8,0.4c-0.6-0.1-0.5-1.3-0.5-1.3
		s-0.5,0.8-1.1,0.4c-0.7-0.8-0.6-1.5-0.6-1.5l-0.7-1.8l-0.3-2.3c0,0,1.4-1.9-0.3-9.8c-1.7,1.5-6.1,2.7-8,0.7
		c0.6,3.5,4.5,12.3,3.8,16.1c-0.1,2,0.3,3.3,1.4,5.1c1.8,3,3.2,5.3,5.1,6.2c1.5,0.5,2.8,0.7,4.2,1.4c1.5,1.4,2.8,1.2,4.6,2
		c2.2,0.7,4,0.6,6,0c1.7,0.1,5.4-0.1,7.2-0.2c2,0.6,3.8,0.7,6,0c1.8-0.8,2.7-1.4,4.2-2.9c1.4-0.7,1.7-1.8,3.2-2.4
		c1.7-0.8,4.3-3.8,6.6-5.4c1.7-1.2,1.4-2.1,1.2-4.1C327.6,101.9,331.5,93.1,332.1,89.6z"/>
	<path class="st2" d="M287.2,105C287.2,105,287.2,105,287.2,105C287.2,105,287.2,105,287.2,105z"/>
	<path class="st1" d="M304,105.6c0,0-0.4,3.2,0,4.1c0.5,0.8,1.2,0.9,1.2,1c0.7-0.6,1-0.5,1.2-1.4c0.2-0.9,0.3-3.4,0.2-3.7
		c-0.6-0.3-1.8-0.2-1.8-0.2L304,105.6z"/>
	<path class="st1" d="M307.2,105.4c0,0-0.4,3.5-0.3,3.8c0.2,0.5,1.3,1.2,1.3,1.2c0.5-0.3,1.4-1,1.4-1.6c0.1-0.9,0.5-2.7,0.2-3.6
		c-0.4-0.3-1.5,0-1.5,0L307.2,105.4z"/>
	<path class="st1" d="M310.1,104.8c0,0-0.2,3.3-0.1,3.5c0.6,0.6,0.6,0.8,1.1,0.8c0.8-0.5,1.3-1.3,1.4-1.6c0.1-0.6,0.4-3,0-3.2
		c-0.4-0.2-1.5,0-1.5,0L310.1,104.8z"/>
	<path class="st1" d="M312.8,104.7c0,0,0,2.3,0.1,2.9c0.5,0.8,0.8,0.9,1,0.9c0.5-0.6,1.1-1.3,1-1.6c-0.1-0.5-0.3-3.2-0.3-3.2
		l-0.7,0.2l-1.2,0.2L312.8,104.7z"/>
	<path class="st1" d="M314.7,103.2l0.4,3.3c0,0,0.1,0.4,0.5,0.7c0.5-0.7,0.8-0.5,0.8-1.2c0-0.7-0.1-2.7-0.3-2.7
		c-0.2-0.1-0.7-0.1-0.8-0.1c0,0-0.4,0.2-0.4,0.2H314.7z"/>
	<path class="st1" d="M316.6,102.6l0.5,3.2c0,0,0.4,0.4,0.8,0.5c0.5-0.6,0.8-0.8,0.7-1.5c0-0.7,0.1-2.6-0.2-2.7
		c-0.4-0.1-1.1,0.2-1.1,0.2L316.6,102.6z"/>
	<path class="st1" d="M318.8,102c-0.3,0,0.2,2.8,0.2,3c0,0.2,0,0.5,0.3,0.5c0.2-0.6,0.4-0.5,0.4-1.2c0-0.9-0.2-2.8-0.3-2.9
		c0-0.1-0.5,0.2-0.5,0.2L318.8,102z"/>
	<path class="st1" d="M319.8,101.4c0,0,0.2,2.3,0.3,2.8c0.3,0.5,0.3,0.7,0.5,0.6c0.2-0.6,0.5-0.8,0.3-1.6c-0.1-1.1-0.2-2.5-0.3-2.5
		c-0.1,0-0.6,0.4-0.6,0.4L319.8,101.4z"/>
	<path class="st1" d="M320.9,100.6c0.1,0.2,0.2,2.5,0.4,2.8c0.4,0.5,0.6,0.4,0.6,0.4s0.5-0.3,0.5-1.1c0-0.8-0.4-2.9-0.4-2.9
		l-0.7,0.3L320.9,100.6z"/>
	<path class="st1" d="M303.2,105.9c0,0,0.7,2.8,0,4.1c-0.5,0.8-1.4,0.9-1.5,1c-0.7-0.6-1-0.5-1.2-1.4c-0.2-0.9-0.3-3.4-0.2-3.7
		c0.6-0.3,1.8-0.2,1.8-0.2L303.2,105.9z"/>
	<path class="st1" d="M299.5,105.7c0,0,0.4,3.5,0.3,3.8c-0.2,0.5-1.1,1.4-1.1,1.4c-0.5,0-1.7-1.2-1.7-1.8c-0.1-0.9-0.5-2.7-0.2-3.6
		c0.4-0.3,1.5,0,1.5,0L299.5,105.7z"/>
	<path class="st1" d="M296.4,105.3c0,0,0.2,3.3,0.1,3.5c-0.6,0.6-0.6,0.8-1.1,0.8c-0.8-0.5-1.3-1.3-1.4-1.6c-0.1-0.6-0.4-3,0-3.2
		c0.4-0.2,1.5,0,1.5,0L296.4,105.3z"/>
	<path class="st1" d="M293.7,104.7c0,0,0,2.3-0.1,2.9c-0.5,0.8-0.8,0.9-1,0.9c-0.5-0.6-1.1-1.3-1-1.6c0.1-0.5,0.3-3.2,0.3-3.2
		l0.7,0.2l1.2,0.2L293.7,104.7z"/>
	<path class="st1" d="M291.8,103.3l-0.4,3.3c0,0-0.1,0.4-0.5,0.7c-0.5-0.7-0.8-0.5-0.8-1.2c0-0.7,0.1-2.7,0.3-2.7
		c0.2-0.1,0.7-0.1,0.8-0.1s0.4,0.2,0.4,0.2H291.8z"/>
	<path class="st1" d="M290.3,102.8l-0.5,3.2c0,0-0.4,0.4-0.8,0.5c-0.5-0.6-0.8-0.8-0.7-1.5c0-0.7-0.1-2.6,0.2-2.7
		c0.4-0.1,1.1,0.2,1.1,0.2L290.3,102.8z"/>
	<path class="st1" d="M287.2,101.6c0,0-0.2,2.3-0.3,2.8c-0.3,0.5-0.3,0.7-0.5,0.6c-0.2-0.6-0.5-0.8-0.3-1.6c0.1-1.1,0.2-2.5,0.3-2.5
		c0.1,0,0.6,0.4,0.6,0.4L287.2,101.6z"/>
	<path class="st1" d="M286,100.8c-0.1,0.2-0.2,2.5-0.4,2.8c-0.4,0.5-0.6,0.4-0.6,0.4s-0.5-0.3-0.5-1.1c0-0.8,0.4-2.9,0.4-2.9
		l0.7,0.3L286,100.8z"/>
	<path class="st1" d="M305.2,99.3c0,0-0.7-0.3-1.5,1.1c-0.4,1.7,0.1,4,0,4.3c0.7,0.4,2.5,0.1,2.9-0.1c0.1-1.3,0.2-3.9-0.2-4.3
		C305.8,99.6,305.2,99.3,305.2,99.3z"/>
	<path class="st1" d="M306.9,103.2c0,0-0.1-2.4,0-2.7c0.3-0.5,0.2-1.5,0.8-1.5c0.9,1,1.1,1,1.2,1.5c0.2,0.5,0.7,3.2,0.5,3.7
		c-0.6,0.5-1.6,0.5-1.9,0.6C307,104.2,306.9,103.2,306.9,103.2z"/>
	<path class="st1" d="M309.4,99.4l0.4-0.7c0,0,0.9,0.1,1.2,0.7c0.6,1.2,0.9,3.3,0.8,3.9c-0.2,0.5-1.9,0.6-2.1,0.6
		c-0.2-0.3-0.4-3.7-0.4-3.9C309.4,99.8,309.4,99.4,309.4,99.4z"/>
	<path class="st1" d="M312.1,99c0.1-0.6,1.1,0.2,1.3,0.4c0,0,1,3.3,0.8,3.1c-0.5,0.4-0.8,0.8-1.8,0.9l-0.4-3.6L312.1,99
		C312.1,99,311.9,99.7,312.1,99z"/>
	<path class="st1" d="M314.1,100.9c0,0-0.6-1.8,0-2.5c0.2-0.2,1.1,0.4,0.9,0.3c0,0,0.9,3.1,0.8,3.2c-0.6,0.8-0.5,0.2-1.2,0.4
		L314.1,100.9z"/>
	<path class="st1" d="M316,97.8c-0.7,0.2-0.1,2.9-0.1,2.9l0.4,0.9c0,0,1.2,0,1.2-0.3c0-0.3-0.8-3-0.8-3l-0.3-0.5
		C316.4,97.8,316.4,97.6,316,97.8z"/>
	<path class="st1" d="M317.6,97.2c0.8-0.1,0.7,0.6,0.7,0.6c0,0.1,0.9,2.5,0.7,2.7c-0.2,0.2-1.5,0.5-1.2,0.5c0,0-0.9-2.1-0.7-3.2
		C317.4,96.7,317.6,97.2,317.6,97.2S316.8,97.2,317.6,97.2z"/>
	<path class="st1" d="M318.5,97.6c0,0-0.3-0.9,0.2-0.9c0.5-0.1,0.8,0.5,0.8,0.5s0.9,2.3,0.8,2.7c-0.6,0.3-1.4,0-1.4,0L318.5,97.6z"
		/>
	<path class="st1" d="M319.7,96.5c0,0,0.8-0.1,1,0c0.2,0.1,0.7,1,0.8,1.8c0.1,0.4,0.5,0.6,0,1c-0.5,0.4-0.6,0.4-0.8,0.3
		c-0.2-0.1-1-2-0.9-2.6C319.8,96.3,319.7,96.5,319.7,96.5z"/>
	<path class="st1" d="M301.4,99.4c0,0,0.7-0.3,1.5,1.1c0.3,2.2-0.3,3.9-0.2,4.2c-0.7,0.4-2.3,0.2-2.7,0c-0.1-1.3-0.2-3.9,0.2-4.3
		C300.7,99.8,301.4,99.4,301.4,99.4z"/>
	<path class="st1" d="M299.7,103.4c0,0,0.1-2.4,0-2.7c-0.3-0.5-0.2-1.5-0.8-1.5c-0.9,1-1.1,1-1.2,1.5c-0.2,0.5-0.7,3.2-0.5,3.7
		c0.6,0.5,1.6,0.5,1.9,0.6C299.5,104.4,299.7,103.4,299.7,103.4z"/>
	<path class="st1" d="M297.2,99.9l-0.4-0.7c0,0-0.9,0.1-1.2,0.7c-0.3,1-0.9,3.3-0.8,3.9c0.2,0.5,1.9,0.6,2.1,0.6
		c0.2-0.3,0.4-3.7,0.4-3.9C297.2,100.2,297.2,99.9,297.2,99.9z"/>
	<path class="st1" d="M294.8,99.8c0,0,0-1.1-0.5-0.9c-0.7,0.2-0.5,0.3-0.7,0.6c-0.2,0.4-1,0.6-0.9,3.3c0.4,0.3,1.6,0.8,1.6,0.8
		C294.8,101.8,294.8,99.8,294.8,99.8z"/>
	<path class="st1" d="M292.8,99.6c0,0-0.3-0.9-0.5-1.1c-0.2-0.2-0.9,0.5-0.9,0.5s-1,3.2-0.9,3.3c0.6,0.8,0.8,0.3,1.6,0.6L292.8,99.6
		z"/>
	<path class="st1" d="M290.6,98c0.4,0,0.6,0.9,0.6,0.9l-0.9,3.2c0,0-1.2-0.3-1.2-0.6c0-0.3,0.8-3,0.8-3l0.3-0.5
		C290.2,98,290.2,98,290.6,98z"/>
	<path class="st1" d="M289,97.3c-0.8-0.1-0.7,0.6-0.7,0.6c0,0.1-0.9,2.5-0.7,2.7c0.2,0.2,1.5,0.5,1.2,0.5c0,0,0.9-2.1,0.7-3.2
		C289.2,96.9,289,97.3,289,97.3S289.7,97.4,289,97.3z"/>
	<path class="st1" d="M288,97.8c0,0,0.3-0.9-0.2-0.9c-0.5-0.1-0.8,0.5-0.8,0.5s-0.9,2.3-0.8,2.7c0.6,0.3,1.4,0,1.4,0L288,97.8z"/>
	<path class="st1" d="M286.8,96.6c0,0-0.8-0.1-1,0c-0.2,0.1-0.7,1-0.8,1.8c-0.1,0.4-0.5,0.6,0,1c0.5,0.4,0.6,0.4,0.8,0.3
		c0.2-0.1,1-2,0.9-2.6C286.7,96.5,286.8,96.6,286.8,96.6z"/>
	<path class="st2" d="M340.3,43.1c-2.1-6.3-4.5-17.7-15.7-22.9c-11.5-5.1-21.3-4.9-21.3-4.9s-9.7,0-21.2,5
		c-11.2,5.2-13.7,16.6-15.7,22.9c-4.1,15.1,0.1,23.9,0,25.9c0.5,1.1,0.7,8,0.7,9c-0.1,1.8-0.8,5.8,2.4,6.1c-0.1,1.1,0.7,3.7,2.2,3.8
		c0.8-0.5,1.9,0.5,4.1,1.1c2.2,0.7,4.9,0.5,6.6-1.2c1.2-2.5,3-3.3,4.4-3.3c0.8,0.5,0.7,5.2,1,6.3c0.3,1.1-2.3,5.3-2,5.4
		c0.3,0.1,0.6-0.3,1-0.1c0.4,0.2,0.4,0.7,0.4,0.7s0.5-0.6,0.8-0.6c0.3,0,0.6,0.9,0.6,0.9s0.5-0.5,0.8-0.5c0.3,0.1,0.5,1,0.5,1
		s0.7-0.6,0.9-0.6c0.3,0.1,0.7,1.4,0.7,1.4s0.7-1,1-0.9s0.8,1.5,0.8,1.5s1.1-1,1.5-0.9c0.3,0,0.6,1.1,0.6,1.1s0.9-0.9,1.3-0.8
		c0.6,0.1,1.1,1.4,1.1,1.4s0.9-1.4,1.3-1.3c0.4,0.1,1.1,1.3,1.1,1.3s1.3-1.3,1.7-1.3c0.4,0.1,1.8,1.4,1.8,1.4s1-1.3,1.4-1.3
		c0.4-0.1,1.6,1,1.6,1s0.7-1.2,1.1-1.3c0.4-0.1,1.3,1.3,1.3,1.3s0.4-1.5,1-1.6c0.5-0.1,1.4,1.1,1.4,1.1s0.3-1.3,1.2-1
		c0.3,0.1,0.9,0.6,0.9,0.6s0.4-1.2,0.8-1.3c0.3-0.1,1,0.9,1,0.9s0.4-1.3,0.7-1.4c0.3-0.1,0.9,0.6,0.9,0.6s0.2-0.9,0.5-1
		c0.3-0.1,0.8,0.5,0.8,0.5s0.3-0.8,0.6-0.9c0.3,0,0.8,0.6,0.8,0.6s0-0.5,0.4-0.7c0.4-0.2,0.7,0.3,1,0.1c0.3-0.1-2.2-4.3-2-5.4
		c0.3-1.1,0.1-5.7,1-6.3c1.4,0,3.1,0.8,4.4,3.3c1.6,1.8,4.4,1.9,6.6,1.2c2.2-0.5,3.3-1.6,4.1-1.1c1.5-0.1,2.3-2.7,2.2-3.8
		c0.1-2.1,2.2-7.5,2.2-8.3c0-1,0.3-5.6,0.8-6.7C340.1,67.1,344.4,58.2,340.3,43.1z M296,70.5c-1.7,2.4-4.6,3.4-7.1,4.6
		c-0.5,0.3-1.1,0.9-1.6,1.1c-1.1,0.4-2.8,0-4,0c-1.4,0-2.5,0-3.5-1.2c-0.9-1.1-0.7-1.9-0.7-3.3c-0.2-3.2-0.3-6.2,2.2-8.6
		c2.7-2.5,8.6-3.9,12.5-3.6c4.4,0.4,4.6,6.2,2.8,10C296.4,69.9,296.2,70.2,296,70.5z M300.7,89.7c-0.1,0-0.2,0-0.4,0
		c-1-0.1-2.1-1.5-1.7-2.5c0.2-0.6,0.6-1.1,0.9-1.6c0.6-1.3,0.6-2.9,1.2-4.3c0.7-1.6,1.4-3.2,1.6-5c0.1-1.9,2.3-2.3,3-0.6
		c0.7,1.9,1,3.9,1.4,5.8c0.4,1.9,1.5,3.4,2,5.3c0.2,1,0.1,3-1.2,3.2c-1.1,0.2-2.1-1.5-3.4-1.5C302.7,88.4,301.8,89.5,300.7,89.7z
		 M326.2,66.4c0,0.2,0.3,2.2,0.4,2.5c0.6,2-0.2,4-1.5,5.9c-0.9,1.4-3,1.5-4.4,2.1c-0.9,0.4-1.8,1-2.9,0.8c-2.1-0.4-4.6-2.6-6.1-3.9
		c-1.7-1.5-2.8-3.4-3-5.7c-0.2-4,0.6-7.7,5.3-7.8C318.9,60.1,325.9,61.5,326.2,66.4z"/>
	<path class="st2" d="M292.4,316.5L292.4,316.5C292.4,316.5,292.4,316.5,292.4,316.5z"/>
	<path class="st1" d="M152.5,430.3c0,0,2-3.8,4.1-3.5c0.8,0.2,2.7,0.9,2.7,2.5c-0.3,1.3,0,2.6-1.3,3.8c-1.1,1.1-2,2.3-5.2,4
		c-1.4,1.2-2.5,2-3.8,1c-0.8-1.2-1.2-2-1.8-2.3c-0.6-1.2-1-1.7,0-2.4c1.6-0.5,2.7-1,3.5-1.4C151.4,431.5,152.5,430.3,152.5,430.3z"
		/>
	<path class="st1" d="M145.4,435.9c0,0,0.5-0.9,1.2-0.2c0.6,0.6,2.1,2.6,2.4,2.7c0.5,0.3,1.1,0.2,1.3,0.6c-0.4,0.8-1.5,2.8-2.4,3.1
		c-1.1-0.2-2.3-0.1-2.4-0.6c-0.2-0.5-2.7-1.7-1.6-2.7c0.6-0.5,1.1-1.5,1.2-1.9C145.1,436.5,145.4,435.9,145.4,435.9z"/>
	<path class="st1" d="M144,441.2c0,0-0.8-1.5-1.3-0.5c-0.5,1-0.4,1.5-1,2.4c-0.6,0.8-2.3,1.9-1.9,2.7c0.9,0.4,1.6,0.6,2.1,1.1
		c0.4,1.1,1.3,1.6,1.9,1.1c0.7-0.9,2.5-2.9,2.8-4c0.5-0.8,0.8-1.2,0-1.5C145.5,442.2,144,441.2,144,441.2z"/>
	<path class="st1" d="M137.8,449.1c0,0-0.8-0.4,0-1.6c0.8-0.8,1-1.6,1.5-1.5c0.6,0.3,1.6,0.4,2.2,1.3c0.4,0.6,0.8,0.9,1.3,0.9
		c0.4,0.5,0.6,0.1,0.2,1c-0.7,1.5-1.2,2.2-1.9,2.1c-0.9-0.1-2-0.7-2.3-1C138.5,449.9,137.8,449.1,137.8,449.1z"/>
	<path class="st1" d="M136.8,449c0,0-1.4,0.7-1.7,1.6c-0.4,0.9-0.7,1.7-0.5,2.1c0.6,0.4,2.3,1.9,2.9,2.1c0.8,0.4,1.6,0.1,2.3-0.8
		c0.7-0.6,1.1-2,1.1-2s0.2-0.2-1.1-0.8c-1.2-0.5-2.1-1.1-2.1-1.3c0-0.2-0.5-0.9-0.5-0.9H136.8z"/>
	<path class="st1" d="M134.2,453.1l2.4,1.8c0,0,0.3,0.3,0,0.9c-0.3,0.6-1.8,2.3-2.4,2.5c-0.6,0.3-2,1.4-2.5,1.3
		c-0.6-0.2-2.4-0.4-1.4-2.5c0.9-2.1,1.8-2.5,2.1-2.8c0.3-0.3,1.4-1.2,1.4-1.2H134.2z"/>
	<path class="st1" d="M149.2,464.6c0,0-0.7-1.1,0.4-1c0.9,0.3,2.6,0.6,3.1,0.5c0.7,0.6,1.2,0.2,1.5,1.2c-0.2,1.2,0.1,2.1-0.3,3
		c-0.1,1.4,0.5,2.1-0.1,2.4c-0.5,0.4-1.2,0.3-2,0c-0.7-0.3-2.7-0.4-3-0.3c-0.5-0.8-0.3-1.1,0-1.7c0.3-0.6,0.4-2.7,0.3-2.9
		C149.3,465.4,149.2,464.6,149.2,464.6z"/>
	<path class="st1" d="M150.5,457.3c0,0-1.8,2.4-1.3,5.1c0.2,0.6,0.9,1.1,1.3,1.1c0.7,0.1,2.2-0.1,2.4,0c0.4,0.2,0.9,0.8,1.4,0.8
		c0.9-0.3,2.8-1,2.6-5.5c-0.5-0.7-0.4-0.8-0.8-0.8c-0.8,0.2-2.4,0.1-2.6-0.4C152.6,457.6,150.5,457.3,150.5,457.3z"/>
	<path class="st1" d="M148.7,471.2c0,0,1.1-0.5,1.9-0.6c0.9,0.3,2.6,0.7,2.7,1c0.2,0.8,0.9,3,0,4.1c-0.9,0.6-1.4,0.9-2.1,0.7
		c-0.7-0.2-2.5-0.8-2.9-3.3c0.1-1.6,0.4-1.5,0.4-1.5C148.7,471.2,148.7,471.2,148.7,471.2z"/>
	<path class="st1" d="M149,477.2c0,0-0.1-1.1,0.6-0.9c0.8,0.4,1.8,0.5,2.3,0.4c0.5-0.1,1.4-0.6,0.9,1.5c-0.3,2-0.2,3.5,0.1,4.7
		c0.2,1.5-0.2,0.5-1,0.3c-0.8-0.2-1.5-0.4-2.1,0c-0.6,0.4-1,0.2-0.8-0.9c0.2-1.1,0.1-3,0.1-3.5C149.1,478.3,149,477.2,149,477.2z"/>
	<path class="st1" d="M149,485.2c0,0,0.5-1.7,1.3-1.8c0.8-0.1,1.7-0.1,2.4,0.9c0.6,1,0.4,1.4,0.3,1.8c0,0.5-0.8,0.6-1.5,0.8
		c-0.7,0.2-2.5-0.7-2.5-1.2S149,485.2,149,485.2z"/>
	<path class="st1" d="M149.5,487.2c0,0-0.1-0.4,0.8,0c0.9,0.4,2.1,0,2.5-0.3c0.5,0.2,0.4,0.9,0.2,2.3c0.1,1.9,0.5,3,0.8,3.5
		c-0.4,1.2-1.7,2.5-3.1,1.4c-1.2-1-1.6-1.3-1.3-2.8c0.3-1.7,0.3-2.5,0.2-2.9C149.5,488,149.5,487.2,149.5,487.2z"/>
	<path class="st2" d="M282.7,780.6c-0.1-0.2-0.5-1.2,1.6-0.4c1,0,1.8-0.3,2.5-0.9c0.6,0.1,0.8,0.2,3.1,1.4c1.2,0.4,1.4,1,1.4,1.6
		c0.1,1.1,0.4,8.2,0.6,9.4c-0.8,0.1-0.6-0.4-1.3-0.9c-0.7-0.5-1.9-1-2.6-1.1c-0.7-0.2-3.3,0.2-4,0.6c-1-0.5-0.9-0.7-0.7-1.7
		c0.2-1,0.4-2.8,0.4-2.8s0-1.7-0.2-2.5C283.2,782.4,282.7,780.6,282.7,780.6z"/>
	<path class="st2" d="M283.6,791c0,0,2.6-1.1,4.3-0.8c1.2,0.4,3.5,1.4,3.7,2.6c0.1,1.3,0.2,3.3-1.2,4.2c-2.1,0.2-3.5-0.2-4.5-0.9
		c-1.2-0.5-2.8,0.3-3.3-0.3c-0.4-1.3-0.5-2.7,0-3.6C283.3,791.2,283.6,791,283.6,791z"/>
	<path class="st2" d="M276.9,777.5c0,0,2.2-1.1,3.9-0.7c0.9,0.1,1.2,0.1,1.2,0.7c-0.2,1.3-0.3,3.7-2,6.4c-1.6,2.9-1.6,4.7-2.2,4.7
		c-0.6,0-1.5-0.6-2.6-1.4c-1.4,0.2-2.4,0.8-2.7,0.1c0.2-1.3-0.1-0.8,1.1-2.8c1.8-2.3,2.8-3.9,3-4.7
		C276.8,779.1,276.9,777.5,276.9,777.5z"/>
	<path class="st2" d="M270.9,778.8c0,0,1-0.6,2.7-0.9c1.6-0.1,2,0,2.3,0.4c0,1.1-0.4,3.6-1.7,4.7c-1.8,1.6-4.2,4.9-4.2,5.4
		c-0.9,0.3-1.3,0-1.7-0.6c-0.6-0.5-1.4,0-1.9-0.5c0.2-1.1,0.5-1.4,1.7-2.7c1.2-1.3,2.7-4,2.8-4.6
		C270.9,779.5,270.9,778.8,270.9,778.8z"/>
	<path class="st2" d="M265.2,779.4c0,0,3-1,4.1-0.5c0.5,1.3,0.8,1.1-0.6,3.3c-1.6,2.2-3.7,4.4-4.2,5.2c-0.8,1.5-1.4,3.1-2.5,2.7
		c-1.7-1-2.5-1.4-2.8-1.5c-0.3-0.1-1.3,0.1-0.6-1c0.7-1,2.1-1.7,2.8-2.6c0.7-0.9,2.7-2.9,3-3.8C264.8,780.4,265.2,779.4,265.2,779.4
		z"/>
	<path class="st2" d="M261.6,779.2c0,0,1.7-0.6,2.5-0.5c0.5,0.7,0.6,1.8-0.3,2.7c-1.5,1.5-2.7,2.8-4.5,3.6c-1.3,1.2-1.6,1.7-2,2.3
		c-1.5,0.2-2.7,0.2-2.7-0.6c0.6-0.9,1.2-1.3,2-1.9c0.7-0.6,1.8-1.3,2-2.2c0.2-0.8,0.6-2.4,1.7-3.1
		C261.6,779.2,261.6,779.2,261.6,779.2z"/>
	<path class="st2" d="M271.5,789.5c0,0,0.3-1,0.7-1.6c0.7,0.2,2.5,0.2,2.7,0c0.7,0.2,2.1,0.6,2.4,1.6c-0.2,1.3-0.3,2.1-0.9,2.4
		c-1.1,0.1-1.9,0.2-2.7-0.7c-1-0.8-1.6-1-2.2-1C271.2,789.5,271.5,789.5,271.5,789.5z"/>
	<path class="st2" d="M264.1,790.2c0-0.3,0.9-0.9,1.3-1.5c0.6-0.8,0.8-0.8,1.4-0.8c0.9,0.2,1.6,0.8,2,1.1c0.2,1,0.3,1.9-0.2,2.5
		c-1.5,0.5-2.3,0.4-2.7,0c-0.8-0.2-1.7,0.1-1.7-0.4C264,790.6,264.1,790.2,264.1,790.2z"/>
	<path class="st2" d="M257.5,789.3c0,0,0.4-0.5,1.7,0c1.6,0.9,2.4,0.8,2.2,2.3c-1,1.5-1,1.9-1.5,1.7c-0.5-0.2-0.5-0.4-1.3-0.8
		c-0.8-0.5-1.3-0.6-1.7-0.5c-0.4,0.1-0.3-1.1,0-1.7C257.2,789.5,257.5,789.3,257.5,789.3z"/>
	<path class="st2" d="M253.2,788.5c0,0,0.5-0.8,1.1-1.1c0.6,0.2,1.6,0.4,2.2,0.4c0.1,0.9-0.1,2.4-0.7,2.6c-0.8,0.1-1.8,0.4-2.1-0.3
		C253.2,789.4,253.2,788.5,253.2,788.5z"/>
	<path class="st2" d="M252.4,789.1l0.8,1.1c0,0-0.3,0.3,0.4,0.6c0,0.5-0.1,1-0.6,1.1c-0.9,0.1-2,1.1-2.3,1.1c-0.7-0.2-2-0.9-2.1-1.4
		c-0.1-0.5,0.6-1.2,1.2-1.4c0.8-0.5,1.5-0.9,1.7-1.1C252.1,788.8,252.4,789.1,252.4,789.1z"/>
	<path class="st2" d="M281.6,797c0,0,1.8-0.6,2.9-0.6c1.2,0.2,2,0.4,3.3,1.1c1.6,0.3,1.4,0.8,1.3,1.3c-0.7,1.3-2.3,4.6-4.1,5.3
		c-1.8,0.7-5.2,0.8-5.7-1.2c0.3-2.4,1.2-2.4,1.4-3.7C281,797.6,281.6,797,281.6,797z"/>
	<path class="st2" d="M270.5,791c0,0,1.6-0.9,3.1,1c0.8,0.4,0.9,0.5,1.7,0.5c0.1,1-1.2,2.9-2,3.2c-2.1-0.8-3.6-0.1-4-1.1
		c-0.4-1.1-0.1-1.3,0.4-2.4C270.3,791.1,270.5,791,270.5,791z"/>
	<path class="st2" d="M262.7,792.6c0,0,1.1-0.9,2.4-0.7c1.5,0.6,2.1,0.7,2.2,1.7c-0.4,1.4-1.3,3.1-1.7,2.9c-0.6-0.8-0.6-1.4-1.2-1.5
		c-0.6-0.2-1.1-0.1-1.7,0.1c-1-0.4-0.7-1.1-0.4-1.8C262.7,792.6,262.7,792.6,262.7,792.6z"/>
	<path class="st2" d="M260.7,796.8c0,0,0.2-1.2,1-1.5c0.8,0,1.5,0.2,2.4,0.2c0.8,0.8,1.1,0.7,1,1.6c-0.7,1.1-0.5,1.4-1,1.7
		c-0.5,0.3-1-0.3-1.9-0.6c-0.9-0.4-1.3-0.3-1.5-0.6C260.4,797.2,260.7,796.8,260.7,796.8z"/>
	<path class="st2" d="M258.8,798.8c0,0,0.8-1.2,1.3-1.1c0.7,0.3,1.8,0.7,2.5,1.1c0.5,0.9,0.7,1.5,0.3,2.1c-1.2,1-2.3,2.1-3,1.8
		c-0.8-0.3-1.3-1-1.2-2.2C258.7,799.4,258.8,798.8,258.8,798.8z"/>
	<path class="st2" d="M255.6,793.3c0,0,0.2-0.8,0.8-1.1c0.6-0.3,0.9-0.2,1.2,0c0.3,0.2,1.8,0.6,1.9,1.4c-0.1,1.3-0.2,2.7-0.9,3.1
		c-1.3,0.3-1.4-0.2-1.9-0.6c-0.5-0.4-0.6-0.6-1.1-0.6c-0.5-0.1-0.5-0.8-0.4-1.3C255.3,793.6,255.6,793.3,255.6,793.3z"/>
	<path class="st2" d="M254.6,796c0,0,1.4-0.1,2.1,0.5c0.6,0.6,1.4,0.7,1.1,1.3c-0.6,1.2-1.9,3.4-3,3.3c-1.1-0.6-1.2-2.3-1.2-3.1
		C253.6,797.2,254.6,796,254.6,796z"/>
	<path class="st2" d="M246,796.5c0,0-0.1-0.5,0.5-2.1c0.7-2,1-2.3,1.5-2.6c0.7,0.6,1.6,1.3,1.8,1.4c0,0.9,0.1,1.3-0.8,2
		c-0.6,1.4-0.9,2.8-1.7,2.5C246.6,797.5,246,796.5,246,796.5z"/>
	<path class="st2" d="M268.1,796c0,0,0.4-1.4,1.6-0.7c1.2,0.3,2.3,0.4,2.8,1c-0.1,1.1,0.7,2.3-0.3,3.1c-1.1,0.6-2.1,0.5-2.5,0.3
		c-0.8-0.5-1.2-0.7-1.6-0.6c-0.7-0.2-0.7-0.8-0.6-1.3C267.6,797.2,268.1,796,268.1,796z"/>
	<path class="st2" d="M267.3,799.1c0,0-2.2,1.6-1.7,3c1.1,1.2,2.9,1.4,3.6,1c1-0.9,2-2.3,1.9-2.5c-0.6-0.4-2.3-0.9-2.2-1.1
		C268.6,799.5,267.3,799.1,267.3,799.1z"/>
	<path class="st1" d="M172.2,435.7c0,0-1.1-1.3,0.6-3c0.7-1,0.7-1.8,1.6-1.3c1.2,1,3.2,2.1,3.4,3.3c-0.2,1.2-0.2,1.4-1,2.5
		c-0.6,0.7-0.7,0.8-0.8,1.2c-0.1,0.8-1.1,1.4-2.2,1c-1.3-0.3-3.1-0.1-2.8-1.6C171.3,436.3,172.2,435.7,172.2,435.7z"/>
	<path class="st2" d="M213.3,170.8l0.8,2.6c0,0,4.1-2,5.1-2.6c1.7-0.3,5.6-0.4,7.5,1.3c2,1.7,7.1,8.4,4,18.5
		c-1.5,2.3-2.4,1.7-1.9,2.9c2,0.3,3-0.8,3.6,0.5c0.2,2.5-0.3,7.9,1.1,10.4c2.2,4,2.7,6.2,3.1,7.8c0.6,1.8,0.9,1.3,0.9,1.3l1.9-1.7
		c-0.6-2.2-3.5-5.2,3.7-14.6c-0.2-2.4-0.7-9.9,7.4-15.1c-0.3-2.3,0.5-7.3,5.1-10c0-2,0.1-5.9,2.1-7.4c-2.9-0.2-12.1-0.7-18.7,0.5
		c-3.4,0.5-5.9,0.1-6.2,0.1c-1.3,0.8-3.2,1.8-4.2,1.6c-1.4-0.6-2.2,0.1-2.8,0c-1.2-0.2-4-0.8-5.2-0.8c-1.2,0.5-5.8,2.9-6.6,3.8
		C213.3,170.8,213.3,170.8,213.3,170.8z"/>
	<path class="st2" d="M258.6,181.6l2.2-1.2c0,0,4,2,6.1,2.6c1.3,2.2,1.7,4.5,1,5.3c-1.7-0.6-9.2-5.4-9.2-6.1
		C258.6,181.6,258.6,181.6,258.6,181.6z"/>
	<path class="st2" d="M250.5,193.7c0,0,0-3.4,2.3-5.3c1.1,0.8,3,2.5,4.3,2.7C254.4,192.3,250.5,193.7,250.5,193.7z"/>
	<polygon class="st2" points="254.2,197.8 263.4,195.8 264.8,195.8 263,199.2 257.1,200.8 254.2,197.8 	"/>
	<path class="st2" d="M246.7,202.8c0,0,0,0.1-0.1,0.2c-0.3,0.7-1,2.7-1,3.5c1.7-0.4,3.5-1.4,3.5-1.4
		C248.4,204.6,246.7,202.8,246.7,202.8z"/>
	<path class="st2" d="M247.7,211.7l6.5-2.7c0,0,4.5,2.3,5.5,2.6c-0.6,2.4-2.1,6.3-2.1,6.3l-1.2,0.6
		C256.4,218.4,248.6,213.9,247.7,211.7z"/>
	<path class="st2" d="M242.3,217.8c0,0-0.7,3.8-0.4,5.4c4-0.8,6.4-1.9,6.4-1.9S242.5,218.4,242.3,217.8z"/>
	<path class="st2" d="M245.6,227.7l9.2-3.3c0,0,0.2,0.5,0.8,0.5c-1.2,2.7-1.1,5.5-1.1,5.5c-2.3,0.8-3.5,1-3.5,1L245.6,227.7z"/>
	<path class="st1" d="M309.7,163.5c0,0,6,1.6,10.3,1.9c3.2-0.9,5.6-0.9,6.6-1.1c0.6-0.1,2.6,0.1,5,0.4c2.5,0.2,5.4,0.5,7.1,0.4
		c3.5-0.8,8.8-0.9,13.3-1.2c4.5-0.2,12.6,0.3,16.4,1.4c1.3,0.2,2.4,0.1,3.3,0.1c0.7-0.1,1.3-0.1,1.8,0c1,0.2,3.3,1.1,3.9,1.4
		c0.9-0.5,1.7-3.2,1.7-4.5c-0.4-1.3-0.8-1.3-1.8-1.6c-1.3-0.1-8.8-0.3-11.7-0.1c-3.1-0.4-8.9-1.9-13.4-1.3c-3.5-0.2-7.4-1.5-10.3-1
		c-2.7,0.8-12.4,1.4-15.6,0.8c-1.8-0.4-3.5-1.3-5.4-1.1c-0.9,0-2.4,0-3.8,0c-1.7,0-3.3,0-3.3-0.1c-0.8,0-1.4-0.7-2.3,0
		c-0.6,0.6-2.3,1.9-2.3,3.1C309.6,162.3,309.7,163.5,309.7,163.5L309.7,163.5z"/>
	<path class="st1" d="M383.5,160.8l8.2,5.7c0,0,2.6,1.7,2.3,3.3c-1.5,0.4-3.9-1.7-5.2-2.2c-2-0.8-3.6-1.3-5.3-1.2
		c-1.9,0.1-4.7,0.7-4.5-1.1c0.8-2,0.9-4.5,0.9-4.5C380.6,160.1,383.5,160.8,383.5,160.8z"/>
	<path class="st1" d="M388.7,176.4C389.6,176.4,388.7,176.4,388.7,176.4l6.2,0c0,0,1.5,0,2.8,5.2c1.2,5.2,0,11.7-1.5,16.3
		c-0.3,5.5-1.8,15.7,0.4,25.9c2.8,10.2,5.3,25.2,3.2,32c-1.2,8.9,1.6,25.2,3.2,29.9c2.5,8,7.8,23.4,8.1,25.5c0.3,2.2-1.2,7.1-8,4.6
		c-3.5,1.1-6.9-1-10.5-0.1c-5.4,1.3-6.5,3.1-7.5,6.3c-0.2,0.7-3.5,1.6-4.2,0.7c-0.8-1-0.4-2.5,1.3-6.7c4.6-4.1,7.1-13.7,7.3-18
		s1.5-20.3,0.2-32.3c-1.6-11.7-2.7-28.6-3.3-43.7c-4-14.8-5.4-23.7-5.3-27.4c0,0.3,0.3-8,0.7-9.4c0.4-1.5,0.7-8.1,4.4-8.8
		C387.5,176.1,388.3,176.4,388.7,176.4z"/>
	<path class="st1" d="M403.2,324.1c0,0,7-5.1,8,14.3c7.1,13.7,12.5,22.5,15.8,32c2.7,11,4.5,22.5,8.4,29.1c3.6,8.8,8.1,17.3,2,17.4
		c-4.9-0.2-5.2,0.4-9.8,2.4c-3.4-0.8-1.7-7.4-0.9-12.3c0.5-6.5-3.1-16.9-4.5-21.5c-1.4-4.6-6.3-18-8-23.8
		c-4.2-7-15.8-31.3-15.3-35.1C401.4,324.7,403.2,324.1,403.2,324.1z"/>
	<path class="st1" d="M397.4,326.3c0,0-3.8-2.4-6.2,0.1c-1.2,1.5-2.6,1.7,0.1,5.1c4.2,4.2,9.2,15.2,9.9,20.3
		c0.9,3.9,4.6,29.3,8.2,40.9c2.9,8.8,7.4,18.7,8.4,23.8c0.7,4.1-0.7,11.1,3.2,7.1c2.3-0.3,4.8,0.7,5.7-2.6c-1.5-2.2-2.4-6.5-2.2-7.5
		c-0.9-1.6-2.7-4.9-3.9-6.7c-1.5-3.7-8.2-27.1-8.4-34.5c-1-9.4-2.9-22.5-7.1-28.9C402.3,337.1,397.4,326.3,397.4,326.3z"/>
	<path class="st1" d="M389,173.7c0,0-5-3.5-9.2-0.8c-1.7,1-8.2,7.5-3.6,18.8c1.1,0.8,2.9-0.3,3.7-0.9c0.6-1.1,0.7-5.6,0.8-8.8
		c0.5-2.1,1.7-5.1,3-5.9c1.2-0.6,3.3,0.1,3.9-0.7C388.2,174.7,389,173.7,389,173.7z"/>
	<path class="st1" d="M406.9,317c0,0,3.1,3.1,1.1,5.7c-0.8,0.5-1.4,0.4-2.7,0.1c-1.2,0.3-4.5,1.9-5.5,2.4c-1.1-0.4-0.8,0.2-0.9-1.6
		c0-2-0.2-5.6,0.4-6.5c1.1-0.1,1.5-0.4,2.6-0.1c1.5,0.2,4,0.3,4.3-0.3C406.9,317,406.9,317,406.9,317z"/>
	<path class="st1" d="M398.3,318.3l0.1,5.7c0,0,0.5,1-0.9,1.2c-1.8,0.2-2.3-0.3-3.3-0.3c-1.4-0.1-2,0.4-4.1,1.1
		c-0.8,0.3-1.9-0.5-2.5-1.1c-1.1-0.8-2-2.9-1.2-4.2c0.4-0.7,1.3-1.1,1.9-1.6c0.5-0.5,1.2-1.3,2-1.4c1.3-0.2,4.1-0.3,6.7-0.2
		C397.8,317.6,398.3,318.3,398.3,318.3z"/>
	<path class="st1" d="M442.6,422.6c0,0,1.1-0.8,0-1.6c-1.7-1.1-4.6-2.2-4.9-2.6c-1.7-0.4-4.3-0.8-5.2,0.8c0.2,1.5,1.7,3.7,2.2,4.3
		c0.9,0.6,3,2,3.3,2.2c0.8,0,2.7-0.7,3.1-0.6C441.5,424.1,442.6,422.6,442.6,422.6z"/>
	<path class="st1" d="M434.2,424.2c0,0-1.9,0.7-2.4,1.4c-1,0.2-2.5,0.1-2.5,0.1c-0.6-0.8-1.7-3.3-1.3-3.9c0.5-0.8,2.9-2.7,3.6-2.2
		c0.9,1.3,2.1,3.3,2.3,3.6C434.2,423.6,434.2,424.2,434.2,424.2z"/>
	<path class="st1" d="M428,424.7c0,0-0.1-2.6-1.9-1.4c-1.3,1.1-2.5,1.9-1.7,5.1c0.5,1.8,0.6,3.1,1.8,2.9c1.1-1.1,1.3-1.7,1.9-2.5
		c0.3-1.2,0.5-2.6,0.3-3.1C428.3,425.1,428,424.7,428,424.7z"/>
	<path class="st1" d="M423.6,427.2l1,3.6c0,0,0.3,1.2,0,1.4c-0.5,0.2-2.4,1.1-3.2-0.8c-0.4-2.2-0.8-3.6-0.4-4.2
		c0.5-0.8,1-1.4,1.7-1.2C423.5,426.3,423.6,427.2,423.6,427.2z"/>
	<path class="st1" d="M432.7,426.5l-1.2,0c0,0-1.4,0.4-1.6,0c-0.2-0.3-1-0.3-1.1,0.5c0,0.7-0.3,1.2-0.7,2.1
		c-0.3,0.8-0.9,1.7-1.1,3.3c0.1,1.9-0.2,2.9,0.8,2.8c0.7-0.8,2.1-2.4,3-2.9c1.6-0.2,2.4-1.4,2.3-2.2c-0.2-1-0.1-2.9-0.1-2.9
		L432.7,426.5z"/>
	<path class="st1" d="M437.1,426.2c0,0-0.9-1.4-1.5-1.6c-0.6-0.2-0.5-0.2-1.4,0.4c-0.9,0.8-0.8,1.4-0.6,2.8c0.3,0.7,0.7,0.9,1.1,0.6
		s1.4-1,1.9-1.1C437.2,426.7,437.1,426.2,437.1,426.2z"/>
	<path class="st1" d="M437.5,427.6c0,0-0.5,0-1.2,0.4c-0.9,0.6-1.8,0.5-2.1,1.6c-0.2,1.8-0.4,2.1,0.4,3.2c0.4,0.9,0.2,1.1,1.2,0.4
		c1.5-0.5,2.5-0.9,3-1.1c0.2-1.2,0.3-0.7,0-2.1C438.1,428.5,437.5,427.6,437.5,427.6z"/>
	<path class="st1" d="M442.1,427.5c0,0,0-1.3-0.9-1.5c-1,0.1-2.4-0.2-2.7,0.8c0.2,1.6,0,1.6,0.6,3.1c0.5,1.1,0.6,2,0.6,2.2
		c0.4,0.6,1.1,2.4,2.2,1c0.9-0.6,0.9-0.8,1.5-1.1c0.6-0.3,0.8-0.7,0.4-1.2c-0.8-1-1.4-1.5-1.5-2
		C442.2,428.4,442.1,427.5,442.1,427.5z"/>
	<path class="st1" d="M443.2,423.5c0,0,0.4-1.7,2.2-0.1c1.5,1.1,3.5,2.5,2.6,3.5c-0.6,0.9-1.1,1.2-1.5,2.2c-0.1,1.2,0.5,1.9-0.1,2.5
		c-0.7,0.4-1.2,0.2-1.5,0c-0.3-0.1-0.8-1.4-1.2-1.9c-0.8-1.1-0.8-1.6-0.9-2.4c-0.4-1.3-0.6-2-0.6-3.2
		C442.9,423.7,443.2,423.5,443.2,423.5z"/>
	<path class="st1" d="M426.4,432.4c0,0-0.6-0.2-1.2,0c-0.7,0.3-0.8,0.1-1.2,1c-0.1,1-0.4,1.8,0,1.9c0.7-0.2,1-0.7,1.6-0.7
		c0.8,0.3,1,0.3,0.9-0.4C426.2,433.6,426.4,432.4,426.4,432.4z"/>
	<path class="st1" d="M441,436.4c0,0-0.6-1.3-0.8-1.7c-0.2-0.7-0.1-1.6-1-1.6c-1.5,0.3-3.5,0.3-3.7,2c0.2,1.5-0.5,5.9,2.8,5
		c1.9-0.6,2.1-0.8,2.8-0.8c0.6,0.1,1-0.7,0.7-1.5C441.6,437.1,441,436.4,441,436.4z"/>
	<path class="st1" d="M446.4,433.3c0,0-1.6-1-2.3-0.7c-0.9,0.7-3,1.5-2.6,2.7c0.2,1,1,2.7,1.1,3.3c0.5,0.9,0,1.6,1.4,1.4
		c1.1-0.7,3.1-0.9,3.7-1.4c0.4-0.8,0.7-1,0.3-2.4C447.6,434.9,446.4,433.3,446.4,433.3z"/>
	<path class="st1" d="M434.6,437.4c0.5,3.3-2.9,0.6-4,0.7c0.4,0.4,0.6,1.1,1.1,1.4c0.6,0.4,1.2,0.1,1.9,0c0.5-0.1,1.4-0.2,1.6-0.8
		c0.2-0.5-0.4-1.4-0.9-1.3L434.6,437.4z"/>
	<path class="st1" d="M428,436.7l-1.8-0.7c0,0-2,0.4-2.3,0.8c-0.3,0.4-1.1,2.6-0.8,3.4c0,0.8,1,1.1,1.9,1c1.2-0.2,2.9,0.6,3.8-0.1
		c0.9-0.8,1-0.9,0.7-1.7C428.8,438.3,428,436.7,428,436.7z"/>
	<path class="st1" d="M456,456.5c0,0,0.4,0.3,0,0.7c-0.4,0.4-1.7,0.2-2,0.3c-0.3,0-1.3,0.2-1.7,0.4c-0.4,0.2-2.2,0.5-2.6-0.6
		c-0.1-1.5-1.2-3.7-1.5-5.4c-0.9-1.8-2-4.4-2.6-5.4c-0.6-1.9-1.6-3.9-2.2-5c0.2-1.1,0.4-1,1-1.3c1-0.4,2.9-0.9,2.9-0.9s0.6-1,1.6,0
		c0.6,1.1,3.1,5.7,3.4,6.5c0.3,1.1,0.6,3.6,0.9,4.4c0.4,1.2,1.6,4.5,1.9,5.1C455.6,455.8,456,456.5,456,456.5z"/>
	<path class="st1" d="M441.9,440.3c0,0-0.9-0.5-1.3-0.4c-0.8,0.4-2.4,0.7-3.1,0.7c-0.7,0-1,0.3-1.1,1c-0.2,1-0.6,0.7,0.5,2.7
		c0.6,1.8,2.2,8.1,2.1,9.4c0.3,2-0.5,4.4-0.1,5.2c0.5,0.4,0.3,0.4,1.3,0c1.3-0.2,3.6-0.4,4-0.3c1-0.2,1.3-1,1-1.9s-1.3-4.7-1.8-5.8
		c-0.4-1.6-0.7-4.2-0.8-4.7c-0.1-0.5-0.4-2.9-0.3-3.5c0.1-0.6-0.5-2.2-0.5-2.2L441.9,440.3z"/>
	<path class="st1" d="M435.7,441.2c0,0,0.3-0.7-0.5-0.7c-0.7,0.1-1.9,0.2-2.4,0.4c-0.7,0.1-1.6,0-2.1-0.3c-0.5,0.3-0.8,1-0.9,1.7
		c0.1,1.4,0,4.7-0.3,6.1c0.2,2,0.2,3.7,0.1,5.2c-0.3,1.4-0.7,3.1-0.6,3.8c0.8,0.6,0.9,1,1.8,1c1.4-0.1,3.1,0.5,3.8-0.1
		c0.4-0.9-0.1-2.4-0.3-3.1c-0.2-0.8-0.2-4.9-0.1-6.1c0.1-1.1,0.4-4.2,0.6-4.5C434.9,444.3,435.7,441.2,435.7,441.2z"/>
	<path class="st1" d="M428.5,442.6c0,0,0.5-1-0.6-1c-1,0.2-2.6,0.3-2.6,0.1c-0.4-0.1-1.4-0.2-1.9-0.2c-0.3,0.7-0.5,1.6-0.6,4.3
		c-0.1,2.6-1,6.1-0.4,8.8c0.1,1.7-0.2,2,0.6,2.7c1,0,1.5-0.2,2.2-0.1c0.6,0.1,1.3,0.6,1.5-0.4c0.2-1-0.1-2.6-0.1-2.9
		c0-0.3,0.2-4.8,0.4-5.3c0.2-0.5,0.5-3.7,0.9-4.1C428.3,444.1,428.5,442.6,428.5,442.6z"/>
	<path class="st1" d="M446.4,467.2c0,0,0.7-2.2-1-2c-1.3,0.4-2.3,0.6-2.7,0.5c-0.4-0.1-1.3-0.3-2.1-0.6c-0.8,0.3-0.6,0.5-0.7,0.9
		c0.2,0.8,0.2,2.7,0.7,4.6c0.2,1.8,0.7,3.6,0.6,5.1c0,1.5-1,2.8-0.4,3.4c0.6,0.6,0.8,0.6,1.9,0.4c1.1-0.2,2.9-0.4,3.3-0.3
		c0.4,0.1,0.9,0.2,0.9-1.3c-0.1-1.5-0.3-2.3-0.4-2.6c-0.1-0.3-0.4-3.4-0.4-3.8c0-0.4,0.2-3.7,0.2-3.7
		C446.1,467.8,446.4,467.2,446.4,467.2z"/>
	<path class="st1" d="M435.3,464.3c0,0,0-1.9-1.1-1.3c-1,0.3-1.7,0.3-2.2,0.2c-0.5-0.1-1.2-0.4-1.6,0.2c-0.3,0.8-2.4-2.1-0.2,2.8
		c0.4,2.4,1.3,5.6,1.2,6.5c-0.1,0.9-0.2,3.2-0.3,3.8c0.4,0.7,0.5,0.8,1.4,0.6c1.1-0.5,2.6-1.2,3.3-0.8c0.8,0.1,1.7,0.2,1.1-1.4
		c-0.8-1.5-1.3-3.3-1.4-4.1c-0.1-0.8-0.4-3.2-0.2-3.8C435.5,466.3,435.3,464.3,435.3,464.3z"/>
	<path class="st1" d="M427.2,463.6c0,0,0.6-1.7-0.6-1.8c-1.2,0-3.2,0.1-3.2,0.1s-1.9-0.6-1.8,0.3c0.5,1.3,0.9,3.8,1.3,5.3
		c0.3,1.5,0.7,3.7,0.7,3.7s0.1,1.4,0,2.1c0.8,0.3,0.9,0.3,1.9,0c0.9,0,2.6,0.7,2.9-0.4c-0.5-1.5-1.2-4.2-1.2-4.7
		C427.2,467.6,427.2,463.6,427.2,463.6z"/>
	<path class="st1" d="M434.9,458.5c0,0-0.4,0.4-0.6,0.4c-0.2,0-1.6,0-2.3-0.1c-0.9,0-2.3,0.1-2.5-0.2c-0.3-0.3-0.5-0.7-0.6-0.7
		c-0.4,0.1-0.7,0.8-0.7,1.6c0.2,0.8,0.4,2.6,0.8,3c0.8,0.4,1.5-0.1,1.7,0c0.4,0.2,1.4,0.7,1.9,0.5c0.7-0.2,2.2,0,2.7-1.2
		c0-1.5,0-2.3-0.1-2.5C435.2,459.1,434.9,458.5,434.9,458.5z"/>
	<path class="st1" d="M427.2,459.3c0,0,0.3-1.9-1.2-1.3c-1.2-0.2-1.9-0.6-2.4-0.5c-0.7,0.1-0.9-0.4-1.4,0c-0.4,1.1-1,2.9-0.7,3.4
		c0.7,0.3,1,0.4,2,0.5c1,0.1,3.3,0.4,3.4-0.1C427.3,460.4,427.2,459.3,427.2,459.3z"/>
	<path class="st1" d="M445.4,459.1c0,0,1.6,2.2,0.8,5c-1.1,0.7-2.4,1.1-3.1,1.2c-0.9,0-2.2-0.6-2.8-0.8c-0.7-0.5-1.8-1.2-1.2-4.2
		c0.5-0.7,1.2-1,1.9-1.2c0.7-0.1,3.2-0.1,3.2-0.1L445.4,459.1z"/>
	<path class="st1" d="M448.2,481.2c0,0-1.2-1.8-2.7-1.8c-1.2,0.2-2.6,0.3-2.8,0.4c-0.6,0.3-1.1,0.4-1.2,2.1c0.4,1.4,0.7,2.2,1.6,2.1
		c1.4-0.4,3.3-0.8,3.8-0.6c0.9-0.1,1.4-0.6,1.4-1.4C448.2,481.2,448.2,481.2,448.2,481.2z"/>
	<path class="st1" d="M448.3,484.9c0,0-1.2-1.3-2.7-0.9c-1,0.3-1.7,0-2.3,0.5c-0.2,1.3-0.2,1.4,0.6,3.5c0.5,1.9,0,2.1,0.1,3
		c0.2,1.3-0.1,1.2,0.9,1.5c1-0.1,1.9-0.3,1.9-0.3s1,0.3,1.7-0.3c0.1-1.6,0.2-1.4-0.1-2.8c-0.3-1.5-0.4-2.8-0.3-3.2
		C448.2,485.3,448.3,484.9,448.3,484.9z"/>
	<path class="st1" d="M448.6,496.7c0,0,0.3-3-0.1-3.7c-0.3-0.7-0.6-0.8-1.1-0.7c-0.8,0.2-2,0.5-2.5,0.5c-0.1,1.2,0.1,1.4,0.1,2.8
		c-0.1,1.4,0.1,1.7,1.2,1.9c1.1,0.2,2.8,0.1,2.6-0.4C448.6,496.7,448.6,496.7,448.6,496.7z"/>
	<path class="st1" d="M449.1,498.2c0,0-0.5-0.5-1.1-0.3c-0.8,0.2-2.4-0.2-2.3,0.7c0.3,1.2,0.6,1.1,0.6,1.7c0.1,0.6,0.3,2.9,1.7,2.6
		c1.4-0.3,1.2-1.8,1.2-2.6C449.1,499.6,449.1,498.2,449.1,498.2z"/>
	<path class="st1" d="M441.2,501.4c0,0,1-3,0.6-3.6c-0.4-0.6-1-0.8-1.8-0.7c-0.8,0.2-2.1,0.1-1.9,1.4c0.5,1.2,1.3,2.6,2,2.9
		C440.8,501.7,441.2,501.4,441.2,501.4z"/>
	<path class="st1" d="M441.3,496.1c0,0,0.5,0.7-0.5,0.6c-1,0.1-2.3,0.4-2.7,0.7c-0.6-0.5-1.5-2.1-1.5-2.7c0.4-0.5,1.1-0.5,1.5-0.4
		c0.6-0.1,1.6-0.5,2.1-0.9c0.6,0.4,0.7,0.3,0.8,1C441.2,495.2,441.3,496.1,441.3,496.1z"/>
	<path class="st1" d="M440.3,492c0,0,0.1,1.2-1.4,1.5c-0.7,0.3-2.3,0.7-2.5-0.4c-0.1-1.3-0.1-2.3,1.3-2.6c1.7-0.1,2.5,0.4,2.6,0.8
		C440.4,491.7,440.3,492,440.3,492z"/>
	<path class="st1" d="M437.5,480.3c0,0-1.5-0.8-2-0.6c-0.6,0.2-2.2,0.1-2.1,0.7c0.2,1.1,0.6,2.6,1.4,4.3c0.6,2.1,0.6,2.8,0.8,3.7
		c0.4,1,0.4,1.3,1.1,0.9c0.7-0.4,1.5-0.1,2.1-0.3c0.3-0.8,0.3-1.2-0.1-2.2c-0.4-0.9-0.7-2.8-0.7-3.6c0-0.8,0.1-1.7-0.1-2.2
		C437.9,480.6,437.5,480.3,437.5,480.3z"/>
	<path class="st1" d="M437.6,479.8c0,0,0.1-2.2-0.4-2.8c-0.7-0.3-1.7-0.5-2-0.5c-0.5,0.3-2.2,0.8-2.5,1c-0.2,0.7-0.1,1.7,0.2,2.2
		c0.4,0.1,1.3-0.1,1.7-0.3c0.4-0.2,1.4-0.2,1.7,0c0.3,0.2,1.1,0.4,1.1,0.4L437.6,479.8z"/>
	<path class="st1" d="M428.3,474.5c0.1-0.1,0.1-1-1.7-1.1c-0.7,0-1.9,0.2-2.2,0.3c-0.1,0.9-0.1,1.4,0.6,2.5c0.9,0.2,1,0.7,2.1,0.3
		c1.3-0.3,1.6-0.5,1.5-1.4C428.6,474.2,428.3,474.5,428.3,474.5z"/>
	<path class="st1" d="M429.2,476.5c0,0-0.8-0.5-1.4,0c-0.6,0.4-1.4,0.5-1.8,0.4c-0.5,0.1-1-0.3-0.3,1.2c0.6,1.2,1.5,5.5,1.4,6.1
		c0.1,0.9,0.4,1.6,0.9,1.4c0.8-0.2,2.3-0.5,2.9-0.2c0.6-0.5,0.5-1.5,0.2-2c-0.3-0.5-0.9-2.1-1-2.5c-0.1-0.4-0.7-2.4-0.6-3
		c0-0.7,0-1.4,0-1.4L429.2,476.5z"/>
	<path class="st1" d="M430.8,486.2c0,0-0.8-0.5-1.3-0.4c-0.5,0.1-2.5,0.4-2.1,1.2c0.4,0.9,0.2,1.3,1.1,1.4c1.2,0.1,2.3-0.2,2.3-0.6
		c0.1-0.4,0.1-1.2,0.1-1.2L430.8,486.2z"/>
	<path class="st1" d="M431,489.1c0,0-0.2-0.8-0.9-0.5c-0.8,0.2-1.3,0.4-1.8,0.3c-0.4,0.5-0.6,0.6-0.4,1.5c0.4,1.3,0.7,2.6,1.5,2.7
		c1-0.4,1.4-1,1.5-2C431.2,490,431,489.1,431,489.1z"/>
	<path class="st1" d="M334.5,157c0,0,1.3-2.1-2.5-2.2c-1.9-0.4-4.6-1.9-5.8-2.9c-1.2-1-3.2-1.8-3.9-2c-1.3,0.2-1.8-0.4-5.8,1.3
		c-1.2,0.4-1.9,0.6-2.9,0c-1.1-0.9-1.8-2-2.9-1.4c-1,0.5-2.5,1.1-2.6,2.8c0.3,1.2,0.4,1.5,1.5,2.3c1.1,0.8,3.2,1.8,4,1.6
		c0.9-0.2,4.5-1.3,6.6-2.4c0.8-0.1,1.9,0.5,2.7,0.9c0.8,0.5,3.7,2.4,5.2,2.8c1.5,0.3,3,1,4.6,0.4C334.4,157.7,334.5,157,334.5,157z"
		/>
	<path class="st1" d="M329.6,166.1c0,0-0.8-1.1-1.9-1.1c-1.1,0-1,0.5-1.9,1.1c-0.8,0.6-9.2,3-10.6,2.4c-1.4-0.6-0.6-1.1-2.2-0.6
		c-1.5,0.5-5,0.8-4.4,3.9c0.7,2.3,0.2,2,0,2.5c0.3,1.2-0.5,2.7,1.6,2.9c2.1,0.2,3.6-0.1,5.1-1.5c2.1,0.2,5,0.9,6.7-0.6
		c1.7-1.4,5.2-4.1,6.7-5.4c1.2-1.6,0.9-1.7,0.8-2.3C329.5,166.7,329.6,166.1,329.6,166.1z"/>
	<path class="st1" d="M346.7,165c0,0,6.5,7.2-2.8,14.3c-9.3,7.1-27.9,7.4-30.4,6.3c-1.5-1.4-2.3-5-1.5-5.9c0.8-0.8,1.9-0.9,3.3-0.6
		c1.4,0.3,15.4,2.4,23.3-4c2-1.6,3.3-3.6,3.7-5.5c0.4-1.8,0.7-3.1-0.2-3.7C341.1,165.4,346.7,165,346.7,165z"/>
	<path class="st1" d="M349.4,173.7c0,0-2.5,4.5-4.7,5.7c1.1,0.6,3.2,2.1,3.1,3.1c-0.4,1.2-6.9,5.8-9.9,7.1c-3,1.3-10.8,5.7-12.7,5.7
		c-1.8,0-8.9,0.4-10.5-0.1c-1.8,0.9-1.9,3.3-1.4,5.2c1.8,1.1,8.6,2,14.2-0.5c4.6-1.9,9.5-3.4,11.5-4.1c2.7-1.3,12-4.8,14.7-11.4
		c1.1-4.3,0-7.6-1.6-8.7C350.6,174.6,349.4,173.7,349.4,173.7z"/>
	<path class="st1" d="M354.8,183.4l-0.7,1.6c0,0-1,2.1-1,2.7c0.6,1.1,3.7,4.2,2.2,7.4c-1.5,1.9-6.2,7.4-10.4,8.7
		c-2.3,1.3-6.6,3.3-9.3,3.7c-3.8-0.4-9.9-0.2-13.3-1.5c-4.4-1.1-6.1-1.7-7.2-0.2c-0.6,2-1.3,4,1,5.3c2.5,0.5,7.4,0.9,10.2,1.3
		c2.8,0.4,6.6,2,12.2,0.1c5.6-1.4,11.8-3,14.9-5.9c2.7-2.4,7.7-5.1,8.1-11.5c0-2.9-0.8-6.5-2.4-8
		C357.4,185.7,354.8,183.4,354.8,183.4z"/>
	<path class="st1" d="M361.4,198.3c0,0-1.3,3.4-2.4,4.5c0.6,1.8,2.6,5.7-1.2,10.1c-2.2,2.3-8.3,7.1-14.4,9c-4.1,1-5.7,1.7-7.7,1.4
		c-2.9-0.3-8.2-2.2-10-2.8c-2.9-0.9-8.8-2.8-9.4-3.1c-1,0.1-2.6-0.5-2.3,2.3c0.7,2.9-0.4,4,2.1,4.4c2.6,0.4,14.3,4.5,15.8,4.5
		c1.9,0.1,6.2-1.2,7.2-1.5c1-0.3,11.8-2.6,14.8-5.2c1.9-0.8,8.5-3.6,10.1-7.2c1.7-3.6,2.5-7.3,1.4-10.3
		C364.2,201.6,361.4,198.3,361.4,198.3z"/>
	<path class="st1" d="M365.8,212.7c0,0-1.4,4.2-2.4,4.8c0.6,1.8,1.8,7.5-2.2,10.5c-4,2.9-13.5,8.1-19.4,8.8
		c-5.4,1.1-11.7,1.1-14.4-0.1c-2.7-1.3-8.6-5.4-9.8-6.3c-1.7-0.5-4.2-2.5-3.8,0.5c0.4,2.8-0.8,2.6,0.5,3.8c1.3,1.2,2.2,2,5,3.4
		c2.8,1.5,5.2,4.3,8.5,5.1c3.3,0.8,9.4,0.1,11.9-0.3c2.5-0.4,13.8-4.1,15.5-4.6c1.7-0.5,11.9-7,13.2-10.5c1-4.3,1.3-7.7,0.1-10
		C367.2,215.5,365.8,212.7,365.8,212.7z"/>
	<path class="st1" d="M369.1,228.2c0,0-2.8,2.7-3.5,3.6c0.4,2.4,1,8.1-1.5,10.3c-2.9,2.6-16.5,9.8-20.3,9.9c-2.5,0.2-6.2-0.5-8.4-2
		c-3.1-2.2-5.2-4.5-5.9-4.9c-0.7-0.4-2.3-1.3-3.2-1.7c-0.8-0.5-10-6.7-11-6.9c-1.3-0.7-2.5-0.9-3.1-0.2c0.2,1.2,0.3,2.3,2,3.5
		c1.7,1.2,10.3,8.5,12,10.5c2,1.8,6.8,5.8,10.1,6.4c3.3,0.6,9.1,0.4,13.2-0.9c4.1-1.3,13.2-6.6,14.7-7.3c1.4-0.7,4.4-2.2,6.3-6.9
		c1.9-4.7,2.6-6.9,1-10.5C369.8,227.6,369.1,228.2,369.1,228.2z"/>
	<path class="st1" d="M367.2,247.6c0.6-0.4-2.3,1-3.6,2.7c0.8,2.7,1.7,3.8,1.4,4.6c-0.7,1.3-6.6,7.5-13.7,8.3
		c-4.9,1.2-6.2,1.7-9.3-0.1c-3.9-2.4-9.6-6.2-11-7.5c-1.3-1.2-5.1-4.5-5.1-4.5s-4.1-3.2-5.9-3.2c-2.8-0.1-5.4,0-7.3-1.4
		c-1.8-1.3-4.3-3.2-4.3,0c1,2.5,0.4,3.5,2.1,3.7c3.4,0.1,8.3,0.9,10.1,1.8c3.3,2,11.2,8.3,13.7,11c3.8,3,6.4,5.5,8.6,6
		c3,0.5,5.5,1.4,6.9,1c1.8-1.2,5.5-1.6,7.1-2.8c1.7-1.2,7.3-4.5,9.2-5.3c2.2-2.2,3-2,3.2-4.2c0.2-2.2-0.8-7.1-1.3-8.3
		C367.5,248.4,367.2,247.6,367.2,247.6z"/>
	<path class="st1" d="M366.2,262.7c0,0-3.7,1.8-4.6,2.6c0.4,2,1.4,2.6,1.2,4c-1,2.2-6,6.5-7.7,6.8c-2.5,0.4-3.9,0-5.4-1.2
		c-2.6-1.7-5.9-4.7-6.7-4.8c-1.5-0.4-7-4.1-8-4.8c-1.5-1.2-5.1-4.8-7.2-4.9c-2.8-0.5-7.9-1.8-9.9-2.2c-2.6-0.8-4.1-2.2-5.8-2.7
		c-1.5,0.3-2.8,2.1-1.8,4.5c1.1,1.8,2.1,1.8,4.8,2.3c4.5,1,11.7,2.5,16.7,6.1c5,3.7,14.6,10.8,15.5,12c2.1,1.8,3.9,2.5,6.6,2.1
		c3-1.2,7.2-2.3,10.6-7c3.3-3.9,5.4-5.7,4.4-9.2C367.7,264.8,366.2,262.7,366.2,262.7z"/>
	<path class="st1" d="M365.7,275.8c0,0-3.8,3.6-4.6,4.5c0.2,2,1,8.4-2.9,10.8c-2,1-2.8,2-4.5,0c-1.7-2.6-2.5-6.4-3-7.3
		c-1.5-1.3-4.3-2.5-5-2.8c-0.5,1.5-0.2,14.3,9.1,18.4c3.4,0,8-1,10.9-6.9c1.2-4.5,0.7-6.3,0.8-8.7
		C366.7,281.2,365.7,275.8,365.7,275.8z"/>
	<path class="st1" d="M358.2,299.3c0,0-2.9,1.1-3.1,0.5c0.8,2.9-0.1,3.2,0.8,4.6c1.9,0.9,2,1.2,2.3-0.3c0.2-1.5,0-3.7,0-3.7
		L358.2,299.3z"/>
	<path class="st1" d="M309.8,268c0,0-2.9,2.1-0.6,4.8c3.3,2.7,11.9,7.6,16.2,11.6c4.9,4.4,8.9,6.1,12,12c2.7,5.2,5.9,8.3,6.8,8.9
		c0.9,0.5,3,2.1,2.9-1.9c-1.5-3.8-4.2-8-4.7-10.2c-2.3-3.3-5-7.6-7.3-9c-2.8-2.3-7.5-5.7-9.9-7.1c-2.8-1.9-12.8-7.6-13.3-8.3
		C311.4,268.3,309.8,268,309.8,268z"/>
	<path class="st2" d="M353,388.2c0,0,2.5-3.3,3.6-0.3c0.9,2.8,1.6,3.4,0.8,4.2c-1,0.8-4.1,4.9-4.7,6.1c-1,1.3-3.2,4.7-4.7,5.7
		c-1.6,0.9-2.9,1-3.8,0c-0.9-1-1.4-1.3-1.3-3.3c0.1-1.9,2.4-8.1,3.9-9.3C348.3,390.1,353,388.2,353,388.2z"/>
	<path class="st2" d="M360.5,392.4c0,0-8.4,9.8-10.2,12.2c1.9,2.9,6.5,3.7,5,5.4c-2,3.3-7,10.1-5.1,11.4c1.9,1.3,3.6,8.4,4.7,13.9
		c-1.4,7.9-10,58.5-15.8,67.4c-4.2,9.3-7.8,33.1-10.2,36.8c-2.4,3.7-5.6,15.6-9.2,20.5c-4.1,7.4-6.6,9.4-5.8,11.9
		c-2.3,6.8,1.2,14-0.3,16c2.6,2.9,7.7-12.7,7.7-15.5c2.5-2.9,7.4-6.1,7.4-6.1s8.7,0.1,9.9,1.7c2.4,4.9,5.6,16.5,5.2,18.1
		c2,3.3,3.7,4.8,4.5,3.3c0.8-1.6,3.1-10.4,2.2-14.9c-1-4.5-6.6-8.3-6.4-9.7c1.1-5.9,6.7-41.7,11-59.1c3.8-9.8,7.7-36.8,9.8-44.6
		c2.1-9,5.1-18.9,7.6-26.2c2.9-7.8,7.1-11.9,7.9-17c-2.8-6.4-5.2-12.5-4.8-12.9c0.4-0.4,0.6-8.2-5-12.4c-4,3.3-1.9,2.4-4,3.3
		C362.9,394.5,360.5,392.4,360.5,392.4z"/>
	<path class="st2" d="M337.9,568.9c0,0-6.1-2.4-8.7-1.8c-1.9,1.1-6.6,4.6-7.1,5.5c-0.4,2-1.2,10.8,8.6,15.9c2.7-1.2,6-6.5,6.9-12.4
		C338.1,571.4,337.9,568.9,337.9,568.9z"/>
	<path class="st2" d="M339.2,573c0,0,0.1,11.4-7.7,16.3c2.1-1.3,12.4,6.3,15.7,2.7c1.1-1.2-1.2-2-2-2.5c-0.9-0.8-2.6-3-2.8-3.8
		c-0.2-0.8-1-8.7-2.1-10.5C340,574.3,339.2,573,339.2,573z"/>
	<path class="st2" d="M327.3,588.8c-0.1-0.3-5.5-7-5.6-8.5c-0.4-1.3-2.4,0.4-2.3,1.2c0.1,1.2-3,6.7-4.8,8.1
		c-0.2,1.2,1.9,2.2,3.1,2.5c1.2,0.4,8.4-0.3,9.7-1.6C328.7,589.3,327.3,588.8,327.3,588.8z"/>
	<path class="st2" d="M347.6,594.8c0,0-13.8-2-16.9-4.1c-3.8,1.4-10.3,4.5-14.9,2.4c-2.6-1.2-2.9,2.8-2.3,5.3
		c2.4,3.3,5.6,7.6,5.9,10.7c0.7,4.6,2.8,28,2.7,35.1c0.2,10.5-0.2,29.6,0.6,36.6c-0.7,9.9-1,29.3-2.7,38.2
		c-1.1,10.2-2.2,19.4-4.3,22.9c-2,5.9-4.4,11.2-4.3,15.5c1,4.9,1,4.9,2.2,3c1.2-1.9,4.8-5,6.4-4.7c1.5,0.3,8.3-0.1,8.9-0.8
		c2.5,0.9,4.9-0.1,3.9-3.1c-1-3.1-2.4-6.7-2.2-8.3c0.2-1.5-0.7-6-0.9-8.1c-0.6-5.4-0.3-6.7-0.7-11.6c-0.2-2.6,2.4-19.5,3.8-37.1
		c1.2-16,1.5-21.9,0.9-31.6c-0.6-9.8,2.5-30.6,4.3-35.6c1.8-5,2.1-9.1,4.2-12.8c0.8-1.4,3-1.4,4.3-3.9
		C347.8,600.2,347.6,594.8,347.6,594.8z"/>
	<path class="st2" d="M349.6,605.6c0,0-1.6-2.7-3.5-0.6c-2.1,1.5-2.5,1.6-3.4,1.9c-0.5,1.2-1.8,2.6-1.4,6.2c0.8,3,2.8,17.8,1,25.6
		c-0.4,6.1-2.6,32.6-3.1,37.6c-0.1,6.4-0.9,17.6-1.6,20.4c-0.7,3.7-1.2,12.1-2.1,17.3c-0.8,5.1-1.9,18.8-2.2,21.1
		c-0.3,2.3-1.2,8.1-0.5,10.7c0.7,2.6,1.6,7.7,2.2,9.8c0.7,3.1,1.8,6.9,0,8.1c0.1,2.2,0.7,2.9,2,1.3c1.3-1.6,4-3.1,2.2-10.8
		c-1.2-5.2-2.9-3.5-2.5-7.9c0.6-6.4,2.9-17.5,3.1-22c0.3-5.4,3.3-21.8,3.6-26.3c0.1-5.2,1-22.1,1.3-24.2c0.4-2.2,2.1-18.7,2.3-21.8
		c0.3-3.9,1.4-25.9,2-27.1c0.6-1.2,3.9-9.3,3.6-11.3c-0.3-1.9-2.1-6.3-2.2-6.6C350.2,606.6,349.6,605.6,349.6,605.6z"/>
	<path class="st2" d="M335,760.1c0,0,0.3-3.6-3-3.6c-2.7,0-4.9,0.5-6.1,1c-1.8-0.1-7.3-1.5-9.5,1.1c-1.9,3.3-2.6,3.9-0.4,6
		c1.6,0.9,6.1,0.2,7.4-0.7c2-0.9,6.1-1.3,7-0.7c2.2,0.7,4.8,0.3,4.7-1.4C335,760.1,335,760.1,335,760.1z"/>
	<path class="st2" d="M336.5,770.3c0.1-0.3-0.3-3-0.9-3.7c-0.8-1.1-0.6-1.9-1.3-2.2c-1-0.1-1.9,0.2-3.3,0.1
		c-1.5-0.5-4.8-1.4-6.2,0.1c0.2,0.9,0.1,1.5,1.5,1.9c1.4,0.4,3,2.1,4.8,2.6c1.1,0.7,1.2,1.8,3,1.9
		C336,771.1,336.5,770.3,336.5,770.3z"/>
	<path class="st2" d="M327.6,770.2c0,0,0.6-1.1,0-2c-0.8-0.3-3.5-2.1-3.6-2.7c-1.1-0.3-1.7-0.6-3.8,0.7c-1.1,0.8-2.6,1.7-2.4,2.5
		c1.3,0.7,1.5,0.7,2.5,0.5c1.1-0.2,1.8-0.9,2.4-0.7c0.6,0.2,2.3,0.8,2.9,1.2C326.4,770,327.6,770.2,327.6,770.2z"/>
	<path class="st2" d="M340.1,773.8c0,0-1.1-1.8-2-2.2c-0.9-0.4-1.1-0.8-2-0.6c-0.8,0.2-1.7,0.6-2.5,0.3c-0.7-0.2-1.5-0.6-2.1-1.2
		c-0.6-0.6-2-1.2-2.6-1.1c-0.3,0.7-0.9,0.8-0.1,2.1c0.7,1.3,0.3,2,1,2.3c1.4-0.1,2.6-0.1,3.2,0.5c1,0.1,1.3,0.1,2.2,0
		c1.3,0.1,2.9,0.4,3.4,0.7c1.2,0.2,1.9,0.2,1.7-0.5C340.2,773.3,340.1,773.8,340.1,773.8z"/>
	<path class="st2" d="M328.5,772.7c0,0-3.5-2.7-5.7-3.3c-2,0.5-6,0.1-8.1,3.3c0.1,0.9,0.3,1.8,1.4,1.8c1.3-0.6,3.1-1.1,4-1.5
		c0.9-0.3,3.1-0.2,3.7,0c0.6,0.1,3.3,1.3,4,1.3c0.5-0.8,0.5-0.8,0.5-0.8L328.5,772.7z"/>
	<path class="st2" d="M328,776.6c0,0-2.9-0.4-4,0.1c-1-0.3-2.1-1.7-2-2.1c0.9-0.7,1.5-1.4,2.2-1.2c1.5,0.5,3.4,1.1,3.8,1.4
		c0.5,0.7,0.5,1.2,0.3,1.5C328,776.6,328,776.6,328,776.6z"/>
	<path class="st2" d="M323,779c0,0,0.6-0.6,0-1.5c-0.2-0.9-1-1.9-2.1-2.4c-1.6-0.6-1.8-2.1-6.1,0.9c-0.5,1.7-0.5,1.6-0.2,2.8
		c0.1,1.5,0.4,2.4,1.5,1.7c1.2-0.8,2-1.7,2.7-1.5c0.9,0.3,2,1.4,3.2,1.1C323,779,323,779,323,779z"/>
	<path class="st2" d="M333.6,774.9c0,0-1.1-1-2.2-1c-1.3,0-1.8,0.2-2.1,0c-0.4,0.6-0.8,0.5-0.3,1.6c0.4,1.4,0.1,1.5,0.7,2
		c1.7,0.1,1.9,0.2,2.6,0c1.2,0.1,2.6,0.9,1.8-1c-0.5-0.8-0.5-1.2-0.5-1.2L333.6,774.9z"/>
	<path class="st2" d="M338.7,775.7c0,0,1.1,1.6,1.2,2.4c-0.4,0.6-0.6,0.6-1.6,0.3c-1.6-0.1-2.2,0.5-2.7,0.2
		c-0.8-1.4-0.7-1.9-1.1-2.3c-0.4-0.7-0.9-1.2-0.3-1.5c1.1-0.4,2.3-0.4,3,0.1C338.3,775.1,338.7,775.7,338.7,775.7z"/>
	<path class="st2" d="M341.3,775.7c0,0-1-0.9-2-0.6c0.1,0.5-0.1,0.5,0.6,1.5c0.4,1.3,0.3,2,0.9,1.9c1-0.3,1.3-0.5,1.1-1.5
		C341.5,776,341.3,775.7,341.3,775.7z"/>
	<path class="st2" d="M312,316.5L312,316.5C312,316.5,312,316.5,312,316.5z"/>
	<path class="st2" d="M362.7,330.1c-3.7-3.1-11.8-7.5-23.7-7.8c-12.5,3-16.8,17.7-17.9,21.4c-2.1,1.4-4.5,2.2-5.9,3.6
		c-0.4,3.3-0.7,5.1-5.3,8.6c-2.7,2-5.7,2.5-7.7,2.5v0c-2-0.1-5-0.6-7.7-2.6c-4.7-3.5-4.9-5.3-5.3-8.6c-1.4-1.4-3.7-2.3-5.9-3.7
		c-1.1-3.7-5.2-18.5-17.7-21.6c-11.9,0.2-20.1,4.5-23.8,7.6c-4.7,4.3-9.2,8.4-7.8,14.4c1,5.5,2.7,12.2,2.5,14.5
		c0.6,2.5,2.3,5,5.5,6.6c3.9,4.3,3.9,4.1,4.8,10.9c0.6,0.4,1.1,0.5,1.5,0.5c0.4,0,0.7-0.1,0.9-0.2c0.2-0.1,0.4-0.2,0.5-0.2
		c0.2,0,0.1,0.3-0.1,1.6c-0.6,3.5-1.5,5.5-0.7,7.2c2.3,1,6.4,3.3,9,4.1c2.4,3.9,2.6,7.2,5,9.8c1.2,1.2,2.8,1.9,4.1,1.9
		c0.9,0,1.6-0.3,2.2-0.9c2-2,2.7-3.2,5.2-3.2c0.5,0,1.1,0.1,1.7,0.2c2.3,0.7,4.1,0.8,5.6,0.8c0.3,0,0.6,0,0.8,0c0.3,0,0.5,0,0.7,0
		c0.7,0,1.2,0,1.5,0.2c1.6,1.4,4,4.7,6.4,6.2c-0.5,2.5-2.6,7.8-9.8,11.5c-2.1,0.9-2.9,1.7-3.8,1.7c-0.7,0-1.3-0.5-2.6-1.7
		c-2.3-3.9-3.9-3.3-2.1-8.4c2.1-5.3,4-6.5,4.7-8.1c0.7-1.6-1.7-1.2-3.9-1.3c-1.8,1.4-2.7,2.5-4.7,3.9c-1.5,0.3-3.4,0.7-4.8,0.7
		c-1.4,0-2.3-0.3-2-1.3c-1.2,2.9-1.8,5.3-0.6,6c1.2,1,1.4,2.7,1.8,6.8c0.4,4.1,1.6,10.1,6.4,12.8c2.2,1.1,6.4,2.4,9.6,2.4
		c0.9,0,1.7-0.1,2.3-0.3c3.5-1.9,6.6-4.8,9.3-8.9c3.8-4.3,8.3-9,8.6-9c1,0.4,0.8,1.8,1.8,2c0.1,0,0.7,0,0.8,0c1-0.2,0.8-1.7,1.8-2
		c0.3,0,4.8,4.8,8.5,9.1c2.7,4.1,5.8,7,9.3,9c0.7,0.2,1.5,0.4,2.3,0.4c3.2,0,7.3-1.3,9.6-2.4c4.7-2.6,6-8.6,6.5-12.7
		c0.4-4.1,0.7-5.7,1.9-6.8c1.2-0.6,0.6-3.1-0.6-6c0.3,1-0.6,1.3-2,1.3c-1.4,0-3.3-0.4-4.8-0.7c-1.9-1.5-2.8-2.5-4.6-3.9
		c-2.2,0.1-4.6-0.3-3.9,1.3c0.7,1.6,2.6,2.8,4.7,8.1c1.8,5.1,0.2,4.5-2.1,8.4c-1.3,1.2-1.9,1.7-2.6,1.7c-0.9,0-1.7-0.8-3.8-1.8
		c-7.2-3.8-9.2-9.1-9.7-11.6c2.4-1.4,4.9-4.7,6.4-6.1c0.3-0.2,0.9-0.2,1.5-0.2c0.2,0,0.5,0,0.7,0c0.3,0,0.5,0,0.8,0
		c1.5,0,3.4-0.1,5.6-0.8c0.7-0.1,1.2-0.1,1.7-0.1c2.4,0,3.2,1.2,5.1,3.3c0.5,0.7,1.3,1,2.2,1c1.3,0,2.8-0.7,4.1-1.8
		c2.5-2.5,2.7-5.8,5.1-9.7c2.6-0.8,6.7-3,9-4c0.9-1.6,0-3.7-0.6-7.2c-0.2-1.3-0.3-1.6-0.1-1.6c0.1,0,0.2,0.1,0.5,0.2
		c0.2,0.1,0.5,0.2,0.9,0.2c0.4,0,0.9-0.1,1.5-0.5c1-6.8,1-6.6,4.9-10.8c3.3-1.6,5-4.1,5.6-6.6c-0.2-2.3,1.5-9,2.6-14.5
		C371.9,338.6,367.4,334.4,362.7,330.1z M298.2,382.6c-0.7,0-1-0.7-1-0.7s-0.4-0.5,0.2-0.8c0.2-0.1,0.4-0.1,0.5-0.1
		c0.3,0,0.6,0.2,0.6,0.6C298.4,382,298.8,382.6,298.2,382.6z M298.2,377.9c-0.9,0.5-1.1,0.9-1.3,0.9c-0.1,0-0.2-0.1-0.4-0.3
		c-0.6-0.6-0.6-0.6-0.6-0.6s0.1-2.1,1.3-2.1c0.1,0,0.1,0,0.2,0C298.3,376.3,298.7,377.2,298.2,377.9z M298.1,369.7
		c-0.7,0.8-1.4,1.9-2,1.9c-0.1,0-0.2,0-0.3-0.1c-0.6-0.5-1-1.1-1-1.1c-0.4-0.3-0.3-2,1.2-2.5C297.6,368.1,298.3,368.5,298.1,369.7z
		 M294.9,361.4c0.6,0,1.4,0.3,2.4,1.1c0.1,1.1-0.7,1.6-1.9,2.1c-0.1,0-0.1,0-0.2,0c-1.5,0-2.8-1-2.8-1S293.1,361.4,294.9,361.4z
		 M306.9,362.5c1-0.8,1.8-1,2.4-1c1.8,0,2.4,2.1,2.4,2.1s-1.2,1-2.8,1c-0.1,0-0.1,0-0.2,0C307.7,364.1,306.8,363.6,306.9,362.5z
		 M308.1,367.8c1.4,0.5,1.5,2.2,1.2,2.5c0,0-0.4,0.6-1,1.1c-0.1,0.1-0.2,0.1-0.3,0.1c-0.6,0-1.3-1.1-1.9-1.9
		C305.9,368.5,306.6,368.1,308.1,367.8z M306.8,375.8c0.1,0,0.1,0,0.2,0c1.2,0,1.3,2.1,1.3,2.1s0,0-0.6,0.6
		c-0.2,0.2-0.3,0.3-0.4,0.3c-0.2,0-0.5-0.4-1.3-0.9C305.4,377.2,305.8,376.3,306.8,375.8z M305.7,381.5c0-0.3,0.2-0.6,0.6-0.5
		c0.2,0,0.3,0,0.5,0.2c0.6,0.3,0.2,0.8,0.2,0.8s-0.4,0.7-1,0.7C305.3,382.6,305.7,382,305.7,381.5z"/>
	<g>
		<path class="st2" d="M287.6,323.4c2.1,1.1,2.3,1.2,3.7,1.2c0.9,0,0.5,0.6,0.6,1.6c-0.2,0.7-0.8,1.1-0.5,3.2
			c1.8,2.1,10.5,2.5,10.5,2.5s0.1,0,0.3-0.1c0.1,0.1,0.2,0.1,0.2,0.1s8.7-0.3,10.5-2.4c0.3-2-0.3-2.5-0.5-3.2c0.1-1-0.3-1.6,0.6-1.6
			c1.5,0,1.7-0.1,3.7-1.2c2.6-1.3,4-1.8,3.2-2.6c-1.1-0.6-2.5-0.9-3.4-0.5c-1.5-0.7-3.3-1.2-3.7-1c-1,0.3-1.6-1-2.7-0.1
			c-1.9,1.3-4.8,2.5-7.7,1.9c-0.1,0.1-0.2,0.1-0.3,0.2c-0.1,0-0.2-0.1-0.3-0.1c-2.9,0.5-5.9-0.7-7.7-2c-1-1-1.6,0.4-2.7,0.1
			c-0.4-0.2-2.2,0.2-3.7,0.9c-0.9-0.4-2.3-0.1-3.4,0.5C283.6,321.6,285,322.1,287.6,323.4z"/>
		<path class="st2" d="M288.8,309c0.5,0.8,3,1.2,4,1.6c0.7,0.4-0.7,0.4,0,1.8c1.9,1.8,9.2,2,9.2,2s0.1,0,0.3-0.1v0
			c0.1,0,0.1,0,0.1,0s7.2,0,9.2-1.9c0.7-1.4-0.7-1.4,0-1.8c1-0.4,3.5-0.8,4-1.6c1.3-0.4,3.3-0.5,3.3-1.7c-0.9-1.3-2.1-1.7-3.5-2
			c-2.1-1-3.1-1.8-4.3-1.7c-2.3,0.6-6.5-0.1-7.8-0.1c-0.4,0.1-0.8,0.2-1.2,0.2c-0.3-0.1-0.7-0.1-1-0.2c-1.3,0-5.5,0.6-7.8,0
			c-1.2-0.1-2.2,0.6-4.3,1.6c-1.3,0.3-2.6,0.6-3.5,2C285.5,308.4,287.5,308.5,288.8,309z"/>
		<path class="st2" d="M290.9,298.3c1.1-0.2,0.8,0.7,2.1,0.6c2-0.9,9.2-1.2,9.2-1.2s0.1,0,0.3,0v0c0.1,0,0.1,0,0.1,0
			s7.2,0.4,9.1,1.3c1.2,0.1,0.9-0.8,2.1-0.6c1.1,0.2,1.9,0.2,2.3-1.2c-0.3-1.4-1.4-2-2.5-2.1c-1.5-0.6-2.4-0.5-2.4-2
			c-0.1-1.4,0.3-3.3-4.1-3.7c-3.6-0.3-4.3,0-4.3,0c0,0-0.1,0-0.3,0.1c-0.1,0-0.1,0-0.2,0c0,0-0.7-0.3-4.3,0c-4.4,0.4-4,2.3-4.1,3.7
			c-0.1,1.4-0.9,1.3-2.5,2c-1.1,0.1-2.3,0.6-2.6,2.1C288.9,298.5,289.7,298.5,290.9,298.3z"/>
		<path class="st2" d="M292.8,284.7c0.6,0.5-0.1,0.6,1.6,0.6c1.2-0.7,7.7-0.6,7.7-0.6s0.1,0,0.3,0v0c0,0,0.1,0,0.1,0s6.5,0,7.7,0.7
			c1.7,0,1-0.1,1.6-0.6c1.3,0,4,0.4,4.2-1c-1.6-1.8-2.8-1.9-3.2-2.8c-0.9-1.3-1.7-2-2.1-2.3c-0.7-0.3-6.7-1.3-8.2-0.9
			c-0.1,0-0.2,0.1-0.2,0.1c0,0-0.1,0-0.1-0.1c-1.5-0.4-7.5,0.5-8.2,0.8c-0.4,0.3-1.2,0.9-2.2,2.3c-0.4,0.9-1.5,1-3.2,2.8
			C288.8,285.1,291.5,284.7,292.8,284.7z"/>
		<path class="st2" d="M294.9,260.2c2.6-2.5,7.4-1.8,7.4-1.8s0.1,0,0.3,0v0c0.3,0,4.9-0.5,7.3,1.9c-0.5-1-1.5-3.9,1.3-5.2
			c-0.2-1.4-4.8-4.2-8.6-3.7c-0.1,0-0.1,0-0.2,0c0,0,0,0,0,0c-3.8-0.6-8.5,2.3-8.7,3.6C296.5,256.3,295.5,259.1,294.9,260.2z"/>
		<path class="st2" d="M298.5,125.4c0.6-0.3,1.4-0.2,2.2,0.3c0.7,0.4,1.1,1.2,2.3,1.4V127c1-0.2,1.5-1,2.1-1.3
			c0.9-0.5,1.6-0.6,2.2-0.3c0.6,0.3,2.3,0.4,2.9-0.6c0.3-1.2-0.9-0.7-1.6-1.5c-0.7-0.9,1-1.4-0.9-2c-0.8-0.3-4.2-0.3-5-0.3v0
			c-0.8,0-3.7-0.3-4.5,0c-1.9,0.6-0.5,1.5-1.2,2.3c-0.7,0.8-1.8,0.3-1.6,1.5C296.2,125.8,297.9,125.7,298.5,125.4z"/>
		<path class="st2" d="M294.8,132.2c1,0.3,1.7,0.2,2.3-0.1c0.6-0.3,0.3-0.8,0.7-1.2c0.4-0.1,1.2,0.4,2.7,1.5
			c0.8,0.6,1.8,0.7,2.6,0.8v-0.1c0.8-0.1,1.6-0.2,2.4-0.7c1.5-1.1,2.3-1.6,2.7-1.5c0.4,0.4,0.1,0.9,0.7,1.2c0.6,0.3,1.3,0.4,2.3,0.1
			c1-0.2,2.4-0.4,2.3-1.1c0-0.7-1-1.7-1.4-1.8c-0.4-0.1-1.1-0.2-1.7-0.3c-0.5-0.1-1.1-0.5-1.4-1.1c-0.3-0.6-0.3-1.2-0.8-1.5
			c-0.5-0.3-1.5-0.4-1.5-0.4s-1-0.2-2,0.8c-0.8,0.8-1.1,1-1.9,1.1l0,0c-0.7-0.1-1-0.3-1.7-1c-0.9-1-2-0.8-2-0.8s-1,0.1-1.5,0.4
			c-0.5,0.3-0.5,1-0.8,1.5c-0.3,0.6-0.8,1-1.4,1.1c-0.5,0.1-1.3,0.2-1.7,0.3c-0.4,0.1-1.4,1.1-1.4,1.8
			C292.4,131.8,293.7,132,294.8,132.2z"/>
		<path class="st2" d="M293.1,140.7c0.6,0,2,0,2.5,0.1c0.5,0.1,0.2,0.5,1.1,1.1c0.4,0.1,1.3-0.5,2.6-0.4c1.1,0.7,2.9,0.9,3.9,0.8v0
			c1,0,2.6-0.2,3.6-0.8c1.3-0.1,2.2,0.4,2.6,0.4c0.8-0.6,0.6-1,1.1-1.1c0.5-0.1,1.9-0.1,2.5-0.1c1.2-0.6,2.4-1.3,2.3-1.8
			c-0.7-0.6-1.8-0.9-2.4-1.9c-0.7-1-1-2.3-2.3-2.8c-1.4-0.7-1.8-0.5-1.8-0.5s-0.4-0.7-3,1.1c-0.9,0.2-1.7,0.2-2.4,0.1v0c0,0,0,0,0,0
			c-0.1,0-0.2,0-0.2,0l0,0.1c-0.7,0.1-1.6,0-2.4-0.1c-2.6-1.7-3-1.1-3-1.1s-0.5-0.3-1.8,0.5c-1.2,0.5-1.6,1.8-2.3,2.8
			c-0.7,1-1.7,1.3-2.5,1.9C290.7,139.4,291.8,140.1,293.1,140.7z"/>
		<path class="st2" d="M290.8,148.9c0.5-0.8,1.1-1.1,1.7-0.9c0.5,0.2,1.6,0.2,2.1-0.2c0.8,0.5,0.8,0.4,2.3,2.2
			c1.9,1.3,3,2.5,6.2,2.2c2.9,0.2,4-0.9,5.9-2.1c1.5-1.8,1.5-1.7,2.3-2.2c0.5,0.4,1.6,0.3,2.1,0.2c0.5-0.1,1.2,0.2,1.6,0.9
			c0.5,0.1,1.5-0.2,1.6-1.1c0.2-0.9-0.5-1.6-1.6-2.3c-0.9-0.7-2.3-2-2.3-2s-0.7,0-1.1,0c-0.4,0-1.9,0.7-2.9,1.4
			c-1.4,0.7-2,0.5-3.5,1c-1.4,0.1-2,0.3-2.3,0.4c-0.3-0.1-0.9-0.3-2.2-0.4c-1.5-0.5-2.1-0.3-3.5-1c-1-0.7-2.5-1.4-2.9-1.4
			c-0.4,0-1.1,0-1.1,0s-1.5,1.2-2.3,2c-1.1,0.6-1.8,1.3-1.6,2.3C289.3,148.7,290.3,149,290.8,148.9z"/>
		<path class="st2" d="M297,155.4c-0.9,0.4-1.4,0.8-1.4,0.8s-0.3,0.9,0.2,2.1c0.6,1.3,2.5,3.2,4,3.4c1,0.2,2.1,0.4,2.8,0.6l0,0.1
			c0,0,0.1,0,0.2,0c0.2,0,0.3,0.1,0.3,0.1v-0.1c0.6-0.1,1.8-0.4,2.8-0.6c1.4-0.2,3.4-2.1,4-3.4c0.6-1.3,0.3-2.1,0.3-2.1
			s-0.5-0.5-1.4-0.8c-0.9-0.4-1.3,0.3-2.6,0.6c-1.2,0.3-3.3,0-3.3,0l-0.2,0l0,0c-0.6,0.1-2.1,0.2-3.1,0
			C298.4,155.7,297.9,155,297,155.4z"/>
		<path class="st2" d="M300.6,155.5c0.9,0.2,2.1,0,2.4,0c0.5,0,1.4,0.1,2.1,0c1.1-0.2,2.5-0.3,2.9-0.8c0.4-0.6-0.2-1.6-0.2-1.6
			s-0.1-1.2-0.8-1.1c-0.8,0.3-3,0.9-3.6,0.5c-0.2,0-0.4,0-0.6,0v0c-0.1,0-0.2,0-0.3,0c-0.7,0.4-2.9-0.2-3.6-0.5
			c-0.7-0.1-0.8,1.1-0.8,1.1s-0.5,1-0.2,1.6C298.1,155.2,299.5,155.3,300.6,155.5z"/>
		<path class="st2" d="M320.6,333.4c-2,1-5.8,2.4-6.6,2.6c-1.4,0.6-9.2,3.5-11.6,2.6c-0.1,0-0.2,0-0.3,0v0c-0.1,0-0.1,0-0.2,0
			c-2.5,0.9-10.2-2.1-11.6-2.7c-0.8-0.2-4.6-1.6-6.6-2.7c-1.7-0.6-0.8,1.3,0.7,3.1c0.8,1.8,1.7,3.4,4.7,4.6c1.5,0.6,2.2,2.1,2.2,3.9
			c-0.4,1.2-0.9,1.3,2.1,3.2c2.1,1.3,6.4,1.5,8.8,1.6v0c2.4,0,6.6-0.2,8.7-1.5c3-1.8,2.5-1.9,2.1-3.2c0-1.8,0.6-3.3,2.2-3.9
			c3-1.2,3.9-2.7,4.8-4.6C321.4,334.7,322.3,332.8,320.6,333.4z"/>
		<path class="st2" d="M309.3,267c0.3-1.6,0.4-1.8,0.8-2.5c-1.1-0.8-4.3-2.9-7.5-2.6c-0.1,0.1-0.1,0.1-0.2,0.2
			c-0.1,0-0.1-0.1-0.2-0.1c-3.1-0.3-6.4,1.7-7.5,2.6c0.4,0.6,0.5,0.8,0.8,2.5c3.4,2.7,1,5.8-0.1,7.2c-0.7,1-1,0.5,0,1.1
			c0.9-1,6.8-1.1,6.8-1.1s0.1,0,0.2-0.1c0.1,0,0.1,0.1,0.1,0.1s5.9,0.2,6.8,1.2c1-0.6,0.7-0.1,0-1.1
			C308.2,272.8,305.9,269.6,309.3,267z"/>
		<path class="st2" d="M313.8,216.9c0.6-0.4,1.2-0.2,2-0.5c0.2-0.5-0.1-1.2-0.2-2.3c0.3-1.3,0.5-1.7-0.4-2.5
			c-1.5-1.4-1.4-2.8-1.3-4.3c0.3-1,1.1-2.5,1.4-3.1c0.1-0.6-0.4-1.9-1.3-2.4c-2.1-1.4-1.4-3.6-1.2-4.7c0.2-0.6,0.6-1.5,0.7-2.2
			c-0.2-0.3-0.6-0.9-1.1-2.1c0.1-1.2,0-1.9-0.4-2.8c0.1-1.2,1-2.9,1.2-3.7c-0.1-0.3-0.8-1.1-1.6-2.8c-0.5-1.4-0.6-2.7-0.4-3.9
			c0.7-0.7,1-1.1,0.8-1.9c-0.1,0-1.3-0.1-2.5-0.3c-0.9-0.5-1.6-1.5-1.8-2.4c1.3-2.5-0.2-4.7,0.3-5.5c0.5-0.8,2.6-1.6,3.1-1.7
			c0.5-0.1,0.8-0.2,0.9-0.8c-0.1-0.1-2.1-0.9-3.4-1.2c-0.9-0.3-5.5,2-5.7,2c0,0-0.2,0-0.4,0c-0.1,0-0.1,0-0.2,0
			c-0.2,0-4.7-2.3-5.6-2c-1.3,0.3-3.3,1.1-3.4,1.2c0.2,0.6,0.4,0.7,0.9,0.8c0.5,0.2,2.6,0.9,3.1,1.7c0.5,0.8-1,3.1,0.3,5.5
			c-0.2,0.9-0.9,1.9-1.8,2.4c-1.1,0.2-2.4,0.3-2.5,0.3c-0.2,0.8,0.2,1.2,0.8,1.9c0.2,1.2,0.1,2.5-0.4,3.9c-0.7,1.6-1.5,2.5-1.6,2.8
			c0.2,0.8,1.1,2.5,1.2,3.7c-0.4,0.9-0.5,1.7-0.4,2.8c-0.5,1.2-0.9,1.8-1.1,2.1c0.1,0.7,0.5,1.6,0.7,2.2c0.1,1.1,0.9,3.3-1.3,4.7
			c-0.9,0.5-1.4,1.8-1.3,2.4c0.2,0.6,1,2.1,1.3,3.1c0.1,1.5,0.2,2.9-1.3,4.3c-0.9,0.7-0.7,1.1-0.5,2.5c-0.2,1-0.4,1.8-0.2,2.3
			c0.8,0.4,1.4,0.2,2,0.5c0.6,0.4,0.8,2.3,0.5,3.5c-0.4,1.4-0.7,2.6-0.6,3.4c-0.9,0.7-1.5,0.9-1.3,1.3c0.3,1.3,0.1,2.9-0.1,3.3
			c0.9,0.1,1.2,0,1.7,0.7c0.3,1.1-0.1,2.9,0.4,4.2c-0.4,1.3-0.6,1.6-0.4,2c0.9,0.3,1.8,1.3,1.9,1.4c0.8,0.4,1.4,0.7,1.6,2.3
			c0.2,1.6,0.5,3.6-0.1,4.5l0.6,0.9c0,0,0.1,0.1,0.3,0.2c0.6,0.4,1.6,1.5,1,3.2c1.1-0.3,5.3-0.4,5.3-0.4s0.1,0,0.3,0v0
			c0.5,0,4.2,0.2,5.2,0.5c-0.7-1.7,0.4-2.7,1-3.2c0.2-0.1,0.3-0.2,0.3-0.2l0.6-0.9c-0.5-0.8-0.2-2.9,0-4.5c0.2-1.6,0.9-1.9,1.7-2.2
			c0.1-0.2,1-1.2,1.9-1.4c0.3-0.4,0-0.6-0.3-2c0.5-1.3,0.2-3.1,0.4-4.2c0.5-0.7,0.8-0.6,1.7-0.7c-0.2-0.4-0.3-2,0-3.3
			c0.2-0.4-0.5-0.6-1.3-1.3c0.1-0.8-0.2-2-0.6-3.4C312.9,219.2,313.1,217.3,313.8,216.9z"/>
		<path class="st2" d="M302.3,251c0.1,0,0.2,0,0.3,0l0-0.1c0.3,0,0.7-0.1,1-0.1c2.6-0.4,5.9,1.8,7.2,2.6c0.3-0.5,0-1.1-0.3-2
			c-0.2-0.8-0.8-0.9-1.5-1.4c-0.2-0.5-0.4-0.8-1.1-1.6c-0.5-0.5-4.7-0.6-5.6-0.7v0c-1.3,0-4.8,0.1-5.3,0.6c-0.7,0.8-0.9,1.1-1.1,1.6
			c-0.7,0.5-1.3,0.5-1.5,1.4c-0.2,0.9-0.6,1.5-0.3,2c1.3-0.8,4.7-3,7.2-2.6C301.6,250.9,302,250.9,302.3,251L302.3,251
			C302.3,251,302.3,251,302.3,251z"/>
		<path class="st2" d="M311.8,262.1c0,0-0.2-0.2-0.3-0.4c-3.2-2.7-5.1-2.7-6.5-3c-0.5-0.1-1.6-0.1-2.7-0.1v0c-1,0-2-0.1-2.4,0.1
			c-1.3,0.3-3.3,0.2-6.5,2.9c-0.1,0.2-0.3,0.4-0.3,0.4s1.6,1.3,1.7,2c0.6-0.5,4.6-3.1,7.8-2.8l0-0.1c3.1-0.1,6.9,2.3,7.5,2.9
			C310.2,263.4,311.8,262.1,311.8,262.1z"/>
		<path class="st2" d="M302.3,277.3c0.1,0,0.1,0,0.2,0.1l0-0.1c0.1,0,0.3,0,0.4,0c0.9,0,6.8,0.4,7.1,0.9c0.6-0.4,0.3-1.2,0.3-1.2
			s-0.9-2.4-6.7-2.2c-0.5,0-0.9,0-1.4,0v0c-0.4,0-0.7,0-1.1,0c-5.7-0.3-6.7,2.1-6.7,2.1s-0.3,0.7,0.3,1.2c0.3-0.5,6.2-0.8,7.1-0.8
			C302,277.2,302.1,277.3,302.3,277.3L302.3,277.3C302.2,277.3,302.3,277.3,302.3,277.3z"/>
		<path class="st2" d="M302.2,288.8c0.1,0,0.1,0,0.2,0.1v-0.1c0.2-0.1,0.3-0.1,0.4-0.2c1.4,0.1,5.3,0.1,6.2,0.7
			c0.9-0.1,1.6-0.8,1.6-0.9c0.1-0.1,0.1-0.4,0.1-0.4c0-0.1-0.1-2-2.2-2.2c-1.4-0.1-3.9-0.4-6.4-0.4v0c-2.3,0-4.8,0.2-6.1,0.4
			c-2.1,0.2-2.2,2.1-2.2,2.2c0,0,0.1,0.3,0.1,0.4c0.1,0.1,0.7,0.9,1.6,1c0.9-0.5,4.8-0.5,6.2-0.6C301.9,288.7,302,288.7,302.2,288.8
			L302.2,288.8C302.2,288.8,302.2,288.8,302.2,288.8z"/>
		<path class="st2" d="M302.2,303.1c0.1,0,0.1,0,0.2,0l0-0.1c0.3-0.1,0.6-0.1,0.8-0.2c1.6,0.2,6.9,0.6,7.7,0.3c0.8-0.6,1-1.3,1-1.5
			c0-0.2,0-0.5,0-0.5s-0.1-2.1-4.1-2.5c-1.4-0.2-3.6-0.4-5.6-0.5v0c-2,0.1-4.1,0.3-5.4,0.4c-4,0.4-4.1,2.5-4.1,2.5s0,0.3,0,0.5
			c0,0.2,0.2,0.9,1,1.5c0.8,0.4,6,0,7.7-0.2C301.6,303,301.8,303.1,302.2,303.1L302.2,303.1C302.2,303.1,302.2,303.1,302.2,303.1z"
			/>
		<path class="st2" d="M310.7,314c-1.7,0.4-4.4,0.9-5.2,0.9c-0.4,0-1.8,0.1-3.4,0.1v0c-1.5,0-2.8-0.1-3.2-0.1c-0.8,0-3.5-0.6-5.2-1
			c-1.7-0.4-1.3,2-1.3,2l0,0.5c0,0,0.2,0.2,1.1,1.3c1.2,1.5,4.8,2.7,5.7,2.8c0.4,0,1.8,0.1,3.1,0.2v0c1.2-0.1,2.5-0.1,2.9-0.1
			c0.9-0.1,4.6-1.2,5.7-2.7c0.9-1.2,1.1-1.3,1.1-1.3l0-0.5C311.9,316,312.3,313.6,310.7,314z"/>
		<path class="st2" d="M313.6,333c0,0-0.3-2.4-1.3-2.2c-0.9,0.5-5.6,1.7-6.6,1.7c-0.5,0-2.1,0-3.7-0.1v0c-1.6,0-3.1,0.1-3.5,0
			c-1,0-5.7-1.3-6.6-1.8c-1.1-0.1-1.3,2.2-1.3,2.2s-0.1-1.5,0,0.7c0.1,2.2,1.4,2.1,2.2,2.5c0.8,0.3,5.6,1.7,6,1.7
			c0.3,0,2,0.1,3.3,0.2v0c1.2-0.1,2.9-0.1,3.2-0.1c0.4,0,5.2-1.3,6-1.7c0.8-0.3,2.1-0.2,2.2-2.4C313.8,331.5,313.6,333,313.6,333z"
			/>
		<path class="st2" d="M313.6,348.6c0,0-0.1-0.8-1.5,0c-1.4,1-6.1,1.9-7.8,1.9c-0.7,0-1.5,0-2.3,0v0c-0.8,0-1.5,0-2.2,0
			c-1.7,0-6.3-1-7.8-2c-1.5-0.8-1.5,0-1.5,0s-0.3,0.1-0.3,0.8c0,0.6,0.3,2.4,2.1,4.2c1.7,1.8,4.8,3,7.6,3.6c0.7,0.1,1.4,0.2,2.1,0.2
			v0c0.7,0,1.4,0,2.1-0.1c2.8-0.6,5.9-1.8,7.7-3.6s2.1-3.6,2.1-4.2C313.9,348.7,313.6,348.6,313.6,348.6z"/>
		<path class="st2" d="M306.6,142.4c-0.9,0.3-1.6,0.5-2.4,0.4c-0.4-0.1-1,0-1.5,0v0c-0.4,0-0.9,0-1.2,0c-0.8,0.1-1.5-0.1-2.4-0.4
			c-0.9-0.3-2.4,0-2.4,0c-0.1,0.3-0.5,1.2,0,1.8c0.5,0.6,0.6,0.6,1.1,0.8c0.5,0.2,4,1.3,4.7,0.8c0.1-0.1,0.2-0.1,0.2-0.2
			c0.1,0.1,0.1,0.1,0.2,0.2c0.7,0.5,4.2-0.5,4.7-0.7c0.5-0.2,0.7-0.2,1.1-0.8c0.5-0.6,0.1-1.5,0-1.8
			C309,142.4,307.5,142.1,306.6,142.4z"/>
		<path class="st2" d="M307.6,131.7c-0.5,0.3-1.4,0.6-2,0.9c-0.6,0.4-2.4,0.9-2.8,0.9c-0.5-0.1-2.1-0.6-2.6-0.9
			c-0.6-0.4-1.5-0.7-2-0.9c-0.4,0.1-0.6,0.9-0.6,0.9s0.5,0.5,1.1,0.6c0.6,0.1,1.6,1,2,1.4c0.4,0.3,2.2,0,2.2,0s0,0,0,0v0
			c0.5,0.1,1.7,0.3,2,0c0.4-0.3,1.5-1.3,2-1.4c0.6-0.1,1.1-0.6,1.1-0.6S308,131.8,307.6,131.7z"/>
		<path class="st2" d="M302.6,166.9c0.1,0,0.3,0,0.4,0v-0.1c0.5-0.1,1-0.1,1.4-0.2c1.4-0.3,2.6-0.9,3.7-1.6c1-0.8,0.9-1.6,0.9-2.3
			c0-0.7-0.3-1.1-0.9-1.3c-0.8,0.1-0.8,0-1.7,0.8c-0.9,0.4-1.2,0.4-1.9,0.7c-0.5,0.1-1.2,0.3-2,0.2l0,0.1c-0.6,0-1.1-0.2-1.5-0.2
			c-0.7-0.3-1-0.3-1.9-0.8c-0.9-0.8-0.9-0.7-1.7-0.8c-0.6,0.2-0.9,0.6-0.9,1.3c0,0.7-0.1,1.5,0.9,2.3c1,0.8,2.2,1.3,3.6,1.6
			C301.6,166.7,302,166.8,302.6,166.9L302.6,166.9C302.6,166.9,302.6,166.9,302.6,166.9z"/>
	</g>
	<path class="st1" d="M453.8,430.6c0,0-2.1-3.8-4.2-3.4c-0.8,0.2-2.6,1-2.6,2.5c0.3,1.2,0,2.6,1.3,3.8c1.2,1,2,2.3,5.3,3.9
		c1.4,1.1,2.5,1.9,3.9,0.9c0.7-1.2,1.2-2,1.8-2.3c0.6-1.2,1-1.7-0.1-2.4c-1.6-0.5-2.8-0.9-3.5-1.3
		C455,431.9,453.8,430.6,453.8,430.6z"/>
	<path class="st1" d="M461.1,436.1c0,0-0.5-0.9-1.2-0.2c-0.5,0.6-2,2.6-2.3,2.8c-0.5,0.3-1.1,0.2-1.3,0.6c0.4,0.8,1.6,2.8,2.5,3
		c1.1-0.2,2.3-0.1,2.4-0.7c0.2-0.6,2.6-1.8,1.6-2.7c-0.6-0.5-1.1-1.4-1.3-1.9C461.4,436.7,461.1,436.1,461.1,436.1z"/>
	<path class="st1" d="M462.6,441.3c0,0,0.8-1.5,1.3-0.5c0.5,1,0.4,1.5,1.1,2.3c0.6,0.8,2.3,1.8,2,2.6c-0.9,0.4-1.6,0.6-2.1,1.2
		c-0.4,1.1-1.2,1.6-1.8,1.1c-0.7-0.9-2.6-2.8-2.9-3.9c-0.5-0.8-0.8-1.2,0-1.5C461.1,442.4,462.6,441.3,462.6,441.3z"/>
	<path class="st1" d="M469,449.1c0,0,0.8-0.4,0-1.6c-0.8-0.8-1.1-1.6-1.6-1.5c-0.6,0.3-1.6,0.4-2.2,1.3c-0.3,0.6-0.8,0.9-1.3,0.9
		c-0.3,0.5-0.6,0.1-0.2,1c0.8,1.5,1.2,2.1,1.9,2c0.9-0.1,1.9-0.7,2.2-1C468.2,449.9,469,449.1,469,449.1z"/>
	<path class="st1" d="M470,449c0,0,1.4,0.7,1.8,1.5c0.4,0.9,0.7,1.7,0.5,2c-0.6,0.4-2.2,2-2.8,2.1c-0.7,0.4-1.6,0.1-2.4-0.7
		c-0.7-0.5-1.1-2-1.1-2s-0.2-0.2,1.1-0.8c1.2-0.6,2-1.2,2.1-1.3c0-0.2,0.5-0.9,0.5-0.9L470,449z"/>
	<path class="st1" d="M472.6,453l-2.3,1.8c0,0-0.3,0.3,0,0.9c0.3,0.6,1.8,2.2,2.4,2.5c0.6,0.2,2,1.4,2.5,1.2
		c0.6-0.2,2.3-0.5,1.4-2.5c-1-2.1-1.9-2.4-2.2-2.7c-0.3-0.3-1.5-1.1-1.5-1.1L472.6,453z"/>
	<path class="st1" d="M457.9,464.8c0,0,0.6-1.1-0.4-1c-0.9,0.3-2.6,0.7-3.1,0.6c-0.7,0.6-1.2,0.2-1.5,1.2c0.2,1.2,0,2.1,0.3,3
		c0.1,1.4-0.4,2.1,0.1,2.4c0.5,0.3,1.2,0.3,1.9,0c0.7-0.3,2.7-0.5,3-0.4c0.4-0.8,0.2-1.1,0-1.7c-0.3-0.6-0.4-2.7-0.4-2.9
		C457.9,465.7,457.9,464.8,457.9,464.8z"/>
	<path class="st1" d="M456.5,457.6c0,0,1.9,2.3,1.5,5c-0.2,0.6-0.8,1.1-1.3,1.2c-0.7,0.1-2.2,0-2.4,0.1c-0.4,0.2-0.9,0.8-1.4,0.8
		c-0.9-0.3-2.8-0.9-2.8-5.4c0.5-0.7,0.4-0.8,0.8-0.8c0.8,0.2,2.4,0.1,2.6-0.4C454.4,457.9,456.5,457.6,456.5,457.6z"/>
	<path class="st1" d="M458.6,471.5c0,0-1.1-0.4-1.9-0.6c-0.9,0.3-2.6,0.7-2.7,1c-0.2,0.8-0.8,3,0.1,4.1c0.9,0.5,1.4,0.8,2.1,0.6
		c0.7-0.2,2.5-0.9,2.9-3.4c-0.1-1.6-0.4-1.5-0.4-1.5C458.6,471.5,458.6,471.5,458.6,471.5z"/>
	<path class="st1" d="M458.4,477.5c0,0,0-1.1-0.6-0.9c-0.8,0.4-1.8,0.5-2.2,0.5c-0.5,0-1.4-0.6-0.9,1.6c0.4,1.9,0.2,3.5,0,4.7
		c-0.2,1.5,0.2,0.5,1,0.3c0.8-0.2,1.5-0.4,2.1,0c0.6,0.4,1,0.1,0.8-0.9c-0.2-1.1-0.1-3-0.1-3.5C458.4,478.6,458.4,477.5,458.4,477.5
		z"/>
	<path class="st1" d="M458.7,485.5c0,0-0.5-1.7-1.4-1.8c-0.8,0-1.7-0.1-2.3,1c-0.6,1-0.3,1.4-0.3,1.8c0,0.5,0.8,0.6,1.5,0.7
		c0.7,0.1,2.5-0.7,2.5-1.2C458.7,485.5,458.7,485.5,458.7,485.5z"/>
	<path class="st1" d="M458.2,487.5c0,0,0-0.4-0.8,0c-0.9,0.4-2.1,0-2.5-0.2c-0.5,0.2-0.4,0.9-0.2,2.3c0,1.9-0.5,3-0.7,3.5
		c0.4,1.2,1.8,2.4,3.1,1.4c1.2-1.1,1.6-1.4,1.2-2.9c-0.3-1.7-0.4-2.5-0.2-2.9C458.2,488.3,458.2,487.5,458.2,487.5z"/>
	<path class="st2" d="M323.1,781c0.1-0.2,0.5-1.2-1.6-0.4c-1,0-1.8-0.2-2.5-0.9c-0.6,0.1-0.8,0.2-3,1.4c-1.2,0.4-1.4,1-1.3,1.6
		c-0.1,1.1-0.3,8.2-0.5,9.4c0.8,0,0.6-0.4,1.3-0.9c0.7-0.5,1.9-1,2.6-1.2c0.7-0.2,3.3,0.2,4,0.5c1-0.5,0.9-0.7,0.7-1.7
		c-0.2-1-0.5-2.8-0.5-2.8s0-1.7,0.2-2.5C322.6,782.8,323.1,781,323.1,781z"/>
	<path class="st2" d="M322.3,791.5c0,0-2.6-1.1-4.3-0.7c-1.2,0.4-3.5,1.5-3.7,2.6c-0.1,1.3-0.1,3.3,1.3,4.2c2.1,0.2,3.5-0.3,4.4-1
		c1.2-0.5,2.8,0.3,3.3-0.4c0.4-1.3,0.5-2.7-0.1-3.6C322.6,791.6,322.3,791.5,322.3,791.5z"/>
	<path class="st2" d="M328.8,777.9c0,0-2.2-1.1-3.9-0.6c-0.9,0.1-1.2,0.1-1.2,0.7c0.2,1.3,0.3,3.7,2.1,6.4c1.7,2.8,1.7,4.7,2.2,4.7
		c0.6,0,1.5-0.6,2.5-1.4c1.4,0.2,2.4,0.8,2.7,0c-0.2-1.3,0.1-0.8-1.1-2.8c-1.9-2.3-2.8-3.9-3.1-4.6
		C328.9,779.4,328.8,777.9,328.8,777.9z"/>
	<path class="st2" d="M334.8,779c0,0-1-0.6-2.7-0.8c-1.6-0.1-2,0-2.3,0.5c0,1.1,0.4,3.6,1.8,4.6c1.9,1.6,4.3,4.9,4.3,5.4
		c0.9,0.2,1.3,0,1.7-0.6c0.6-0.5,1.4,0,1.9-0.5c-0.2-1.1-0.5-1.4-1.7-2.6c-1.2-1.3-2.7-3.9-2.9-4.5C334.8,779.7,334.8,779,334.8,779
		z"/>
	<path class="st2" d="M340.5,779.5c0,0-3.1-1-4.1-0.4c-0.4,1.3-0.8,1.1,0.6,3.3c1.6,2.2,3.8,4.3,4.3,5.2c0.8,1.5,1.4,3.1,2.6,2.7
		c1.7-1,2.5-1.5,2.8-1.5c0.3-0.1,1.3,0,0.6-1c-0.7-1-2.1-1.7-2.9-2.5c-0.8-0.9-2.8-2.8-3.1-3.7C340.9,780.5,340.5,779.5,340.5,779.5
		z"/>
	<path class="st2" d="M344.1,779.2c0,0-1.7-0.6-2.5-0.4c-0.4,0.7-0.5,1.8,0.3,2.7c1.5,1.5,2.8,2.7,4.6,3.6c1.4,1.2,1.7,1.7,2,2.2
		c1.5,0.2,2.7,0.1,2.7-0.6c-0.6-0.9-1.3-1.3-2-1.9c-0.7-0.6-1.8-1.3-2-2.1c-0.2-0.8-0.7-2.3-1.7-3.1
		C344.1,779.2,344.1,779.2,344.1,779.2z"/>
	<path class="st2" d="M334.4,789.7c0,0-0.3-1-0.7-1.6c-0.7,0.2-2.5,0.2-2.7,0c-0.7,0.2-2.1,0.7-2.4,1.6c0.2,1.3,0.4,2,1,2.4
		c1.1,0,1.9,0.1,2.7-0.7c1-0.8,1.6-1.1,2.2-1.1C334.7,789.7,334.4,789.7,334.4,789.7z"/>
	<path class="st2" d="M341.8,790.3c0-0.3-0.9-0.9-1.3-1.5c-0.6-0.8-0.8-0.8-1.5-0.7c-0.9,0.2-1.6,0.8-2,1.2c-0.2,1-0.2,1.9,0.3,2.5
		c1.5,0.5,2.3,0.4,2.7,0c0.8-0.2,1.7,0.1,1.7-0.4C341.9,790.7,341.8,790.3,341.8,790.3z"/>
	<path class="st2" d="M348.4,789.3c0,0-0.4-0.5-1.7,0c-1.6,0.9-2.3,0.8-2.2,2.3c1.1,1.5,1,1.9,1.5,1.7c0.5-0.2,0.5-0.4,1.3-0.8
		c0.7-0.5,1.3-0.7,1.7-0.6c0.4,0.1,0.3-1.1,0-1.7S348.4,789.3,348.4,789.3z"/>
	<path class="st2" d="M352.7,788.4c0,0-0.6-0.8-1.1-1.1c-0.6,0.2-1.6,0.4-2.1,0.5c-0.1,0.9,0.1,2.4,0.7,2.6c0.8,0,1.8,0.4,2.1-0.3
		C352.6,789.3,352.7,788.4,352.7,788.4z"/>
	<path class="st2" d="M353.5,788.9l-0.8,1.2c0,0,0.3,0.3-0.4,0.6c0,0.5,0.1,1,0.6,1.1c0.9,0,2,1,2.3,1.1c0.7-0.2,2-1,2.1-1.5
		c0.1-0.5-0.6-1.2-1.2-1.4c-0.8-0.5-1.6-0.9-1.8-1.1C353.8,788.7,353.5,788.9,353.5,788.9z"/>
	<path class="st2" d="M324.4,797.4c0,0-1.9-0.6-2.9-0.5c-1.2,0.2-1.9,0.4-3.3,1.1c-1.6,0.3-1.4,0.8-1.3,1.4c0.7,1.3,2.3,4.5,4.2,5.3
		c1.8,0.6,5.2,0.7,5.7-1.3c-0.3-2.4-1.2-2.3-1.5-3.7C325,797.9,324.4,797.4,324.4,797.4z"/>
	<path class="st2" d="M335.4,791.2c0,0-1.7-0.8-3.1,1c-0.8,0.4-0.9,0.5-1.7,0.6c-0.1,1,1.2,2.9,2,3.2c2.1-0.8,3.6-0.1,4-1.2
		c0.4-1.1,0.1-1.3-0.4-2.4C335.6,791.3,335.4,791.2,335.4,791.2z"/>
	<path class="st2" d="M343.3,792.6c0,0-1.1-0.9-2.4-0.6c-1.4,0.6-2.1,0.7-2.2,1.7c0.4,1.4,1.3,3.1,1.7,2.8c0.5-0.8,0.6-1.4,1.2-1.6
		c0.6-0.2,1.1-0.1,1.7,0.1c1-0.4,0.7-1.1,0.3-1.8C343.3,792.6,343.3,792.6,343.3,792.6z"/>
	<path class="st2" d="M345.3,796.8c0,0-0.3-1.2-1-1.5c-0.8,0-1.5,0.2-2.4,0.2c-0.8,0.8-1.1,0.7-1,1.6c0.7,1.1,0.6,1.4,1,1.7
		c0.5,0.3,1-0.3,1.8-0.6c0.9-0.4,1.3-0.3,1.5-0.6C345.6,797.2,345.3,796.8,345.3,796.8z"/>
	<path class="st2" d="M347.2,798.8c0,0-0.8-1.2-1.3-1c-0.7,0.3-1.8,0.8-2.4,1.1c-0.5,0.9-0.6,1.5-0.2,2.1c1.2,1,2.3,2.1,3.1,1.8
		c0.8-0.3,1.3-1,1.1-2.2C347.3,799.3,347.2,798.8,347.2,798.8z"/>
	<path class="st2" d="M350.4,793.2c0,0-0.2-0.8-0.8-1.1c-0.6-0.3-0.9-0.2-1.2,0c-0.3,0.2-1.8,0.6-1.9,1.4c0.1,1.3,0.2,2.7,1,3.1
		c1.3,0.2,1.4-0.2,1.9-0.7c0.5-0.4,0.6-0.6,1.1-0.6c0.5-0.1,0.4-0.8,0.3-1.3C350.6,793.5,350.4,793.2,350.4,793.2z"/>
	<path class="st2" d="M351.4,795.9c0,0-1.4-0.1-2.1,0.6c-0.5,0.6-1.4,0.7-1.1,1.3c0.6,1.2,2,3.4,3,3.3c1.1-0.6,1.2-2.3,1.2-3.1
		C352.4,797.2,351.4,795.9,351.4,795.9z"/>
	<path class="st2" d="M360,796.3c0,0,0.1-0.5-0.5-2.1c-0.7-2-1-2.2-1.6-2.5c-0.7,0.6-1.6,1.3-1.8,1.4c0,0.9-0.1,1.3,0.8,2
		c0.6,1.4,1,2.8,1.8,2.5C359.5,797.2,360,796.3,360,796.3z"/>
	<path class="st2" d="M337.9,796.1c0,0-0.4-1.4-1.7-0.7c-1.2,0.3-2.3,0.4-2.8,1c0.1,1.1-0.6,2.3,0.3,3.1c1.1,0.6,2.1,0.5,2.5,0.2
		c0.8-0.5,1.2-0.7,1.6-0.6c0.7-0.2,0.7-0.8,0.6-1.3C338.4,797.4,337.9,796.1,337.9,796.1z"/>
	<path class="st2" d="M338.8,799.3c0,0,2.2,1.6,1.7,2.9c-1.1,1.3-2.9,1.5-3.6,1c-1-0.9-2-2.3-2-2.5c0.6-0.4,2.3-0.9,2.2-1.1
		C337.4,799.7,338.8,799.3,338.8,799.3z"/>
	<path class="st1" d="M434.3,436.5c0,0,1.1-1.3-0.6-2.9c-0.7-1-0.8-1.7-1.7-1.2c-1.2,1.1-3.1,2.2-3.3,3.4c0.2,1.2,0.2,1.4,1,2.4
		c0.6,0.7,0.7,0.8,0.9,1.2c0.2,0.8,1.1,1.4,2.2,1c1.3-0.4,3.1-0.1,2.8-1.7C435.2,437.1,434.3,436.5,434.3,436.5z"/>
	<path class="st2" d="M392.3,171.5l-0.8,2.6c0,0-4-2-5-2.6c-1.7-0.3-5.6-0.5-7.5,1.2c-2,1.7-7.2,8.3-4.2,18.5
		c1.5,2.3,2.3,1.8,1.9,2.9c-2,0.3-3-0.8-3.6,0.5c-0.2,2.5,0.2,7.9-1.2,10.4c-2.2,4-2.7,6.1-3.1,7.8c-0.6,1.8-0.9,1.3-0.9,1.3
		l-1.9-1.7c0.6-2.2,3.5-5.1-3.6-14.6c0.2-2.4,0.8-9.9-7.2-15.1c0.3-2.3-0.5-7.3-5-10.1c0-2-0.1-5.9-2-7.4c2.9-0.2,12.1-0.6,18.7,0.7
		c3.4,0.5,5.8,0.2,6.2,0.2c1.3,0.8,3.2,1.8,4.2,1.7c1.4-0.6,2.2,0.1,2.8,0c1.2-0.2,4-0.7,5.2-0.8c1.2,0.5,5.8,3,6.5,3.9
		C392.3,171.5,392.3,171.5,392.3,171.5z"/>
	<path class="st2" d="M346.8,182l-2.1-1.2c0,0-4.1,1.9-6.1,2.5c-1.3,2.1-1.7,4.5-1,5.3c1.8-0.6,9.3-5.3,9.3-6
		C346.8,182,346.8,182,346.8,182z"/>
	<path class="st2" d="M354.9,194.1c0,0,0-3.4-2.2-5.4c-1.1,0.8-3,2.5-4.3,2.6C351,192.6,354.9,194.1,354.9,194.1z"/>
	<polygon class="st2" points="351.1,198.2 341.9,196.1 340.6,196.1 342.3,199.5 348.2,201.2 351.1,198.2 	"/>
	<path class="st2" d="M358.6,203.3c0,0,0,0.1,0.1,0.2c0.2,0.7,0.9,2.8,0.9,3.5c-1.7-0.4-3.5-1.4-3.5-1.4
		C356.9,205,358.6,203.3,358.6,203.3z"/>
	<path class="st2" d="M357.5,212.1l-6.4-2.7c0,0-4.6,2.3-5.5,2.5c0.6,2.4,2.1,6.3,2.1,6.3l1.2,0.6
		C348.8,218.8,356.6,214.3,357.5,212.1z"/>
	<path class="st2" d="M362.9,218.3c0,0,0.7,3.8,0.4,5.4c-4-0.8-6.3-2-6.3-2S362.7,218.9,362.9,218.3z"/>
	<path class="st2" d="M359.5,228.1l-9.2-3.3c0,0-0.2,0.5-0.8,0.5c1.1,2.7,1,5.5,1,5.5c2.3,0.8,3.4,1,3.4,1L359.5,228.1z"/>
</g>
<g id="skeleton_shadows">
</g>
</svg>
